<svg xmlns="http://www.w3.org/2000/svg" xmlns:android="http://schemas.android.com/apk/res/android" width="18dp" height="22dp" viewportWidth="18" viewportHeight="22">
	<path d="M16.975,17.7L16.975,17.7L13.285,21C13.369,21 13.45,20.968 13.51,20.909L13.58,20.981L13.58,20.981L16.975,17.7ZM1.64,21.1H13.285L17,17.406H17.1V17.406V1.625C17.1,1.432 17.021,1.247 16.882,1.112C16.743,0.976 16.556,0.9 16.36,0.9H1.64C1.444,0.9 1.257,0.976 1.118,1.112C0.979,1.247 0.9,1.432 0.9,1.625V20.375C0.9,20.568 0.979,20.753 1.118,20.889C1.257,21.024 1.444,21.1 1.64,21.1ZM15.502,17.819L13.58,19.695V17.819H15.502ZM1.74,1.725H16.26V16.994H13.48C13.285,16.994 13.097,17.07 12.958,17.205C12.819,17.341 12.74,17.526 12.74,17.719V20.275H1.74V1.725Z" stroke-width="0.2" fill="#fff" stroke="#4F4F4F"/>
	<path d="M8.779,7.563V7.194H9.219V7.563C9.219,7.756 9.298,7.94 9.437,8.076C9.576,8.212 9.764,8.288 9.959,8.288H10.92C11.115,8.288 11.303,8.212 11.442,8.076C11.581,7.94 11.66,7.756 11.66,7.563V6.938C11.66,6.744 11.581,6.56 11.442,6.424C11.303,6.288 11.115,6.213 10.92,6.213L9.959,6.213L9.959,6.213C9.794,6.214 9.634,6.269 9.505,6.369H8.494C8.365,6.269 8.205,6.214 8.04,6.213V6.213H8.039H7.079C6.884,6.213 6.696,6.288 6.557,6.424C6.418,6.56 6.339,6.744 6.339,6.938V7.563C6.339,7.756 6.418,7.94 6.557,8.076C6.696,8.212 6.884,8.288 7.079,8.288H8.039C8.235,8.288 8.423,8.212 8.562,8.076C8.701,7.94 8.779,7.756 8.779,7.563ZM10.059,7.037H10.819V7.463H10.059V7.037ZM7.179,7.037H7.939V7.463H7.179V7.037Z" stroke-width="0.2" fill="#fff" stroke="#4F4F4F"/>
	<path d="M9.48,9.025H8.52C8.41,9.025 8.303,9.068 8.224,9.145C8.145,9.222 8.1,9.327 8.1,9.438C8.1,9.548 8.145,9.653 8.224,9.73C8.303,9.807 8.41,9.85 8.52,9.85H9.48C9.591,9.85 9.697,9.807 9.776,9.73C9.855,9.653 9.9,9.548 9.9,9.438C9.9,9.327 9.855,9.222 9.776,9.145C9.697,9.068 9.591,9.025 9.48,9.025Z" stroke-width="0.2" fill="#fff" stroke="#4F4F4F"/>
	<path d="M5.263,13.69L5.418,13.796L5.42,13.608C5.421,13.39 5.468,13.175 5.555,12.974L5.587,12.903L5.525,12.855C5.319,12.697 5.125,12.525 4.943,12.341C5.318,12.172 5.712,12.048 6.117,11.972C6.441,11.911 6.744,11.769 6.994,11.558C7.21,11.377 7.38,11.15 7.493,10.896C7.929,11.21 8.454,11.387 8.997,11.401L8.997,11.401L9.002,11.401C9.547,11.388 10.073,11.212 10.511,10.898C10.554,10.986 10.601,11.072 10.655,11.155L10.722,11.26L10.81,11.172L11.275,10.703L11.327,10.651L11.293,10.587C11.246,10.495 11.206,10.399 11.176,10.301C12.024,9.373 12.557,8.028 12.557,6.994C12.557,5.154 10.954,3.67 9,3.67C7.045,3.67 5.442,5.165 5.442,7.004C5.442,8.033 5.975,9.378 6.825,10.311C6.722,10.634 6.492,11.072 5.974,11.164L5.973,11.164C5.422,11.266 4.889,11.444 4.39,11.694C3.896,11.015 3.567,10.236 3.425,9.414C3.279,8.565 3.338,7.695 3.597,6.872C3.857,6.05 4.31,5.297 4.92,4.676C5.53,4.054 6.281,3.58 7.113,3.292C7.945,3.004 8.834,2.909 9.709,3.016C10.585,3.123 11.423,3.428 12.156,3.908C12.889,4.387 13.497,5.026 13.932,5.776C14.366,6.525 14.616,7.362 14.66,8.222L14.664,8.3L14.741,8.315C14.957,8.356 15.162,8.439 15.345,8.559L15.5,8.66L15.5,8.474C15.496,7.384 15.205,6.313 14.655,5.365C14.106,4.416 13.315,3.622 12.36,3.059C11.406,2.495 10.318,2.182 9.204,2.147C8.089,2.113 6.984,2.36 5.995,2.863C5.006,3.367 4.166,4.111 3.556,5.024C2.946,5.936 2.587,6.987 2.514,8.075C2.44,9.163 2.655,10.251 3.136,11.235C3.618,12.218 4.35,13.064 5.263,13.69ZM6.282,7.004V6.918C6.331,5.587 7.524,4.506 8.998,4.506C10.504,4.506 11.716,5.634 11.716,7.004C11.716,7.696 11.403,8.594 10.898,9.321C10.392,10.05 9.714,10.576 9,10.576C8.285,10.576 7.607,10.046 7.1,9.314C6.595,8.586 6.282,7.687 6.282,7.004Z" stroke-width="0.2" fill="#fff" stroke="#4F4F4F"/>
	<path d="M15.299,9.073L15.299,9.073C15.528,9.304 15.656,9.612 15.656,9.934C15.656,10.256 15.528,10.565 15.299,10.795L15.299,10.796L9.646,16.421C9.646,16.421 9.646,16.421 9.646,16.421C9.549,16.517 9.434,16.593 9.307,16.645C9.18,16.698 9.044,16.724 8.907,16.724C8.769,16.724 8.633,16.698 8.506,16.645C8.379,16.593 8.264,16.517 8.167,16.421C8.167,16.421 8.167,16.421 8.167,16.421L6.22,14.483C5.941,14.206 5.84,13.878 5.869,13.563C5.897,13.25 6.052,12.954 6.274,12.731C6.496,12.507 6.79,12.35 7.105,12.321C7.423,12.293 7.755,12.397 8.041,12.682C8.041,12.682 8.041,12.682 8.041,12.682M15.299,9.073L7.971,12.753L8.041,12.682M15.299,9.073C15.183,8.958 15.046,8.867 14.894,8.805C14.743,8.743 14.58,8.711 14.415,8.711C14.251,8.711 14.089,8.743 13.937,8.805C13.785,8.867 13.648,8.958 13.532,9.073L13.603,9.144L13.532,9.073L8.972,13.607M15.299,9.073L8.972,13.607M8.041,12.682L8.972,13.607M8.041,12.682L8.972,13.607M9.049,15.844L9.049,15.845C9.031,15.863 9.009,15.878 8.984,15.888C8.96,15.898 8.934,15.903 8.907,15.903C8.881,15.903 8.855,15.898 8.83,15.888C8.806,15.878 8.784,15.863 8.766,15.845L8.766,15.845L6.819,13.896L6.819,13.896C6.649,13.727 6.689,13.473 6.855,13.294C6.935,13.207 7.036,13.15 7.138,13.138C7.235,13.126 7.342,13.155 7.444,13.256L8.69,14.506L8.69,14.506C8.727,14.543 8.771,14.573 8.82,14.593C8.868,14.613 8.921,14.623 8.973,14.623C9.026,14.623 9.078,14.613 9.126,14.593C9.175,14.573 9.219,14.543 9.256,14.507C9.256,14.507 9.256,14.506 9.256,14.506L14.13,9.664C14.13,9.664 14.13,9.664 14.13,9.663C14.206,9.59 14.309,9.549 14.417,9.549C14.524,9.549 14.627,9.59 14.703,9.663C14.775,9.739 14.815,9.838 14.815,9.941C14.815,10.045 14.774,10.144 14.701,10.22L9.049,15.844Z" stroke-width="0.2" fill="#fff" stroke="#4F4F4F"/>
	<path d="M8.68,17.15H2.6C2.49,17.15 2.383,17.193 2.304,17.27C2.225,17.347 2.18,17.452 2.18,17.563C2.18,17.673 2.225,17.778 2.304,17.855C2.383,17.932 2.49,17.975 2.6,17.975H8.68C8.791,17.975 8.897,17.932 8.976,17.855C9.055,17.778 9.1,17.673 9.1,17.563C9.1,17.452 9.055,17.347 8.976,17.27C8.897,17.193 8.791,17.15 8.68,17.15Z" stroke-width="0.2" fill="#fff" stroke="#4F4F4F"/>
	<path d="M8.68,18.4H2.6C2.49,18.4 2.383,18.443 2.304,18.52C2.225,18.597 2.18,18.702 2.18,18.813C2.18,18.923 2.225,19.028 2.304,19.105C2.383,19.182 2.49,19.225 2.6,19.225H8.68C8.791,19.225 8.897,19.182 8.976,19.105C9.055,19.028 9.1,18.923 9.1,18.813C9.1,18.702 9.055,18.597 8.976,18.52C8.897,18.443 8.791,18.4 8.68,18.4Z" stroke-width="0.2" fill="#fff" stroke="#4F4F4F"/>
</svg>
