<svg width="24" height="30" viewBox="0 0 24 30" fill="none" xmlns="http://www.w3.org/2000/svg">
<g clip-path="url(#clip0_330_49686)">
<path d="M8.99402 5.90325V3.28564C8.99402 -0.428546 14.6537 -0.428546 14.6537 3.28564V5.86788C17.5543 7.03519 19.4291 9.82968 19.4291 12.9425C19.4291 14.6758 19.4999 15.9846 20.9855 16.8336C22.3297 17.6118 23.214 18.4254 23.1433 20.1586C22.9664 24.8633 14.6184 24.3327 11.8239 24.3327C8.99402 24.3327 0.68131 24.8633 0.504444 20.1586C0.433698 18.4254 1.31803 17.6118 2.66221 16.8336C4.14789 15.9846 4.21863 14.6051 4.21863 12.9425C4.21863 9.7943 6.12879 7.07057 8.99402 5.90325ZM8.60491 26.5966C7.89745 25.2524 9.91372 24.1912 10.6212 25.5C11.1518 26.4551 12.5313 26.4551 13.0266 25.5C13.734 24.1912 15.7503 25.2524 15.0428 26.5966C13.6633 29.1434 9.98447 29.1788 8.60491 26.5966ZM12.3545 5.33728V3.28564C12.3545 2.57817 11.2933 2.57817 11.2933 3.28564V5.33728C11.647 5.33728 12.0007 5.33728 12.3545 5.33728ZM6.51789 12.9425C6.51789 15.454 6.12879 17.5057 3.79415 18.8145C3.26355 19.1328 2.76833 19.3097 2.8037 20.0525C2.90982 22.4579 10.798 22.0334 11.8239 22.0334C12.5667 22.0334 20.7733 22.564 20.844 20.0525C20.8794 19.3097 20.3842 19.1328 19.8536 18.8145C17.5897 17.541 17.1299 15.4894 17.1299 12.9425C17.1299 10.0065 14.7599 7.63654 11.8239 7.63654C8.8879 7.63654 6.51789 10.0065 6.51789 12.9425Z" fill="white"/>
</g>
<defs>
<clipPath id="clip0_330_49686">
<rect width="23" height="29" fill="white" transform="translate(0.5 0.5)"/>
</clipPath>
</defs>
</svg>
