<svg width="18" height="20" viewBox="0 0 18 20" fill="none" xmlns="http://www.w3.org/2000/svg">
<g clip-path="url(#clip0_330_49688)">
<path fill-rule="evenodd" clip-rule="evenodd" d="M10.6989 0.5L6.36742 0.512602L6.35407 1.80049H10.7431C10.7433 1.6636 10.7982 0.5 10.6989 0.5ZM6.35432 5.5379V14.4877H5.53073V5.5379H1.51139L2.13976 17.5987C2.1662 18.1087 2.53957 18.55 3.05997 18.55H14.0374C14.5578 18.55 14.9312 18.1087 14.9576 17.5987L15.586 5.5379H11.5669V14.4877H10.7433V5.5379H6.35432ZM11.5669 2.62408C7.99038 2.62408 4.41408 2.62408 0.83754 2.62408C0.652708 2.62408 0.5 2.77654 0.5 2.96162V4.37702C0.5 4.47017 0.537806 4.55468 0.598593 4.61596L0.599335 4.61522C0.72758 4.74347 0.890914 4.71456 1.07871 4.71456H16.2643C16.355 4.71332 16.4378 4.67552 16.4981 4.61522L16.4988 4.61596C16.5596 4.55468 16.5974 4.47017 16.5974 4.37702V2.96162C16.5974 2.77679 16.4449 2.62408 16.2599 2.62408H11.5669Z" fill="white"/>
</g>
<defs>
<clipPath id="clip0_330_49688">
<rect width="17" height="19" fill="white" transform="translate(0.5 0.5)"/>
</clipPath>
</defs>
</svg>
