<svg width="19" height="19" viewBox="0 0 19 19" fill="none" xmlns="http://www.w3.org/2000/svg">
<g clip-path="url(#clip0_330_49705)">
<path fill-rule="evenodd" clip-rule="evenodd" d="M17.3826 1.13203C16.5399 0.289318 15.1736 0.289327 14.3309 1.13203L6.72958 8.73338C6.60394 8.85902 6.51829 9.01904 6.48344 9.19328L5.9174 12.0235C5.85838 12.3185 5.95074 12.6236 6.16352 12.8364C6.3763 13.0491 6.68134 13.1416 6.97642 13.0825L9.80671 12.5164C9.98095 12.4816 10.141 12.396 10.2666 12.2704L17.8679 4.66903C18.7106 3.82632 18.7106 2.46002 17.8679 1.61731L17.3826 1.13203ZM8.19508 9.81347L13.5926 4.41596L14.5839 5.40737L9.18643 10.8049L7.94722 11.0527L8.19508 9.81347ZM14.8653 3.14317L15.8568 4.13459L16.595 3.39623C16.7348 3.25647 16.7348 3.02986 16.595 2.8901L16.1098 2.40482C15.9701 2.26506 15.7435 2.26506 15.6037 2.40482L14.8653 3.14317Z" fill="white"/>
<path d="M2.3 4.9998C2.3 4.50275 2.70295 4.0998 3.2 4.0998H8.6V2.2998H3.2C1.70883 2.2998 0.5 3.50864 0.5 4.9998V15.7998C0.5 17.291 1.70883 18.4998 3.2 18.4998H14C15.4912 18.4998 16.7 17.291 16.7 15.7998V10.3998H14.9V15.7998C14.9 16.2969 14.4971 16.6998 14 16.6998H3.2C2.70295 16.6998 2.3 16.2969 2.3 15.7998V4.9998Z" fill="white"/>
</g>
<defs>
<clipPath id="clip0_330_49705">
<rect width="18" height="18" fill="white" transform="translate(0.5 0.5)"/>
</clipPath>
</defs>
</svg>
