<svg width="20" height="20" viewBox="0 0 20 20" fill="none" xmlns="http://www.w3.org/2000/svg">
<g clip-path="url(#clip0_330_49711)">
<path d="M3.88889 0H1.11111C0.497461 0 0 0.497461 0 1.11111V3.88889C0 4.50254 0.497461 5 1.11111 5H3.88889C4.50254 5 5 4.50254 5 3.88889V1.11111C5 0.497461 4.50254 0 3.88889 0Z" fill="white"/>
<path d="M3.88889 7.5H1.11111C0.497461 7.5 0 7.99746 0 8.61111V11.3889C0 12.0025 0.497461 12.5 1.11111 12.5H3.88889C4.50254 12.5 5 12.0025 5 11.3889V8.61111C5 7.99746 4.50254 7.5 3.88889 7.5Z" fill="white"/>
<path d="M3.88889 15H1.11111C0.497461 15 0 15.4975 0 16.1111V18.8889C0 19.5025 0.497461 20 1.11111 20H3.88889C4.50254 20 5 19.5025 5 18.8889V16.1111C5 15.4975 4.50254 15 3.88889 15Z" fill="white"/>
<path d="M18.0007 1.38867H7.88943C7.59475 1.38867 7.31213 1.50574 7.10376 1.71411C6.89538 1.92248 6.77832 2.2051 6.77832 2.49978C6.77832 2.79447 6.89538 3.07708 7.10376 3.28546C7.31213 3.49383 7.59475 3.61089 7.88943 3.61089H18.0007C18.2953 3.61089 18.578 3.49383 18.7863 3.28546C18.9947 3.07708 19.1118 2.79447 19.1118 2.49978C19.1118 2.2051 18.9947 1.92248 18.7863 1.71411C18.578 1.50574 18.2953 1.38867 18.0007 1.38867Z" fill="white"/>
<path d="M18.0007 8.88867H7.88943C7.59475 8.88867 7.31213 9.00574 7.10376 9.21411C6.89538 9.42248 6.77832 9.7051 6.77832 9.99978C6.77832 10.2945 6.89538 10.5771 7.10376 10.7855C7.31213 10.9938 7.59475 11.1109 7.88943 11.1109H18.0007C18.2953 11.1109 18.578 10.9938 18.7863 10.7855C18.9947 10.5771 19.1118 10.2945 19.1118 9.99978C19.1118 9.7051 18.9947 9.42248 18.7863 9.21411C18.578 9.00574 18.2953 8.88867 18.0007 8.88867Z" fill="white"/>
<path d="M18.0007 16.3887H7.88943C7.59475 16.3887 7.31213 16.5057 7.10376 16.7141C6.89538 16.9225 6.77832 17.2051 6.77832 17.4998C6.77832 17.7945 6.89538 18.0771 7.10376 18.2855C7.31213 18.4938 7.59475 18.6109 7.88943 18.6109H18.0007C18.2953 18.6109 18.578 18.4938 18.7863 18.2855C18.9947 18.0771 19.1118 17.7945 19.1118 17.4998C19.1118 17.2051 18.9947 16.9225 18.7863 16.7141C18.578 16.5057 18.2953 16.3887 18.0007 16.3887Z" fill="white"/>
</g>
<defs>
<clipPath id="clip0_330_49711">
<rect width="20" height="20" fill="white"/>
</clipPath>
</defs>
</svg>
