<svg width="22" height="22" viewBox="0 0 22 22" fill="none" xmlns="http://www.w3.org/2000/svg">
<g clip-path="url(#clip0_330_49708)">
<path d="M17.0519 16.0322L17.1223 16.0697L17.1928 16.0322L18.1383 15.529L18.2178 15.4867V15.3966V14.3899V14.2998L18.1383 14.2575L17.1928 13.7543L17.1223 13.7168L17.0519 13.7543L16.1064 14.2575L16.0269 14.2998V14.3899V15.3966V15.4867L16.1064 15.529L17.0519 16.0322ZM17.1223 15.4091L16.6281 15.146V14.6405L17.1223 14.3774L17.6166 14.6405V15.146L17.1223 15.4091Z" fill="white" stroke="white" stroke-width="0.3"/>
<path d="M21.1348 10.2306V10.1615L21.0823 10.1166L19.7917 9.0129L21.1364 6.06652L21.1683 5.99645L21.13 5.92963L19.8258 3.65523L19.7998 3.60985L19.7512 3.59049L14.0343 1.31332L13.984 1.29327L13.9325 1.31L12.6535 1.72539L9.98301 0.857354L9.92013 0.836914L9.86262 0.869543L7.94394 1.95815L7.88756 1.99014L7.87222 2.05312L7.58948 3.2141L5.92639 4.20039L5.86729 4.23544L5.85523 4.30309L5.48872 6.35967H3.41857H3.36205L3.31958 6.39696L0.900911 8.52112L0.849854 8.56596L0.849893 8.63391L0.855917 19.195L0.855955 19.2608L0.904325 19.3053L2.86517 21.1104L2.90823 21.15H2.96676H19.1083H19.1732L19.2176 21.1027L21.1001 19.1005L21.1409 19.0571V18.9976L21.1348 12.3887V10.2306ZM20.5001 6.02568L19.3194 8.61033L19.1182 8.43906L19.0762 8.40329H19.021H8.96142L11.6414 2.66619L13.9617 1.90898L19.3748 4.06618L20.5001 6.02568ZM9.98632 1.47128L11.7169 2.03132L11.2635 2.17959L11.2018 2.19979L11.1743 2.25864L8.30202 8.40357H6.93792L8.41336 2.36214L9.98632 1.47128ZM18.8478 8.981L20.5333 10.4219V12.2387H16.268H16.2114L16.169 12.276L14.6238 13.634L14.5728 13.6788V13.7466V15.971V16.0367L14.621 16.0812L16.1632 17.5059L16.2063 17.5457H16.265H20.5394V18.8331L18.9046 20.5726H3.14885L1.45708 19.0128L1.45113 8.82137L3.59558 6.93737H5.3869L5.12687 8.40329H3.4785H3.3285V8.55329V8.831V8.981H3.4785H18.8478ZM5.73621 8.40329L6.41563 4.59026L7.39289 4.01046L6.31889 8.40329H5.73621ZM20.5336 12.8164V16.9677H16.4501L15.174 15.7915V13.9336L16.445 12.8164H20.5336Z" fill="white" stroke="white" stroke-width="0.3"/>
</g>
<defs>
<clipPath id="clip0_330_49708">
<rect width="22" height="22" fill="white"/>
</clipPath>
</defs>
</svg>
