<svg width="28" height="21" viewBox="0 0 28 21" fill="none" xmlns="http://www.w3.org/2000/svg">
<g clip-path="url(#clip0_330_49697)">
<path d="M25.0459 20.5H9.29574V10.7211H7.8033C7.54505 10.7211 7.30783 10.5468 7.21774 10.2853C7.12765 10.0238 7.19672 9.7268 7.39191 9.54278L7.39491 9.53955L17.1693 0.5L26.9467 9.54278C27.1419 9.7268 27.211 10.0238 27.1209 10.2853C27.0308 10.5468 26.7936 10.7211 26.5354 10.7211H25.0429V20.5H25.0459ZM10.4969 19.2086H23.8448V9.42978H24.9859L17.1723 2.20137L9.3588 9.42978H10.4999V19.2086H10.4969Z" fill="white"/>
<path d="M20.2537 20.5004H14.0918V12.5585C14.0918 12.1227 14.4221 11.7676 14.8275 11.7676H19.518C19.7162 11.7676 19.8994 11.8515 20.0405 12C20.1787 12.1485 20.2567 12.3487 20.2537 12.5618V20.5004ZM15.293 19.2091H19.0526V13.0557H15.293V19.2091Z" fill="white"/>
<path d="M24.2748 8.77096L21.0557 5.79437V2.71124L21.6592 2.70801H23.7493L24.2748 2.85329L24.2778 3.35692V8.77096H24.2748ZM22.2568 5.20034L23.0736 5.95579V3.99614H22.2568V5.20034Z" fill="white"/>
<path d="M10.4973 19.0569H2.22135V11.0956H1.11929C0.864045 11.0956 0.629819 10.9213 0.539732 10.6662C0.449646 10.4079 0.515709 10.1142 0.707894 9.93014L0.7139 9.92369L8.74364 2.49512L12.8005 6.24653L9.35923 9.42974H10.5003V19.0569H10.4973ZM3.42251 17.7655H9.29617V10.7211H7.80373C7.54248 10.7211 7.31426 10.5532 7.22117 10.2917C7.12808 10.0302 7.19114 9.73967 7.38333 9.55242L7.39534 9.53951L10.9568 6.24653L8.74364 4.19972L2.6838 9.80424H3.42251V17.7655Z" fill="white"/>
<path d="M9.89664 19.0571H6.125V12.5196C6.125 12.0709 6.46433 11.7061 6.88173 11.7061H8.24504V12.9974H7.32315V17.7658H9.89664V19.0571Z" fill="white"/>
</g>
<defs>
<clipPath id="clip0_330_49697">
<rect width="27" height="20" fill="white" transform="translate(0.5 0.5)"/>
</clipPath>
</defs>
</svg>
