<svg width="22" height="22" viewBox="0 0 22 22" fill="none" xmlns="http://www.w3.org/2000/svg">
<g clip-path="url(#clip0_330_49718)">
<path d="M2.85704 19.7686H12.0048C12.969 20.5954 14.218 21.1 15.5856 21.1C18.6259 21.1 21.0985 18.6266 21.0985 15.5864C21.0985 14.2181 20.5939 12.9684 19.7663 12.0035V4.40216C19.7663 3.32265 18.8887 2.44502 17.8092 2.44502H16.2649V2.14359C16.2649 1.4584 15.708 0.900738 15.022 0.900738H14.9206C14.2346 0.900738 13.6778 1.4584 13.6778 2.14359V2.44502H6.98776V2.14288C6.98776 1.45765 6.43013 0.900024 5.7449 0.900024H5.64419C4.95896 0.900024 4.40133 1.45765 4.40133 2.14288V2.44502H2.85704C1.7775 2.44502 0.899902 3.32339 0.899902 4.40216V17.8114C0.899902 18.8909 1.77753 19.7686 2.85704 19.7686ZM1.95633 17.8114V7.79859H18.7085V11.0536C17.8198 10.4384 16.7463 10.0736 15.5842 10.0736C12.5439 10.0736 10.0713 12.5469 10.0713 15.5871C10.0713 16.7487 10.4362 17.8234 11.0521 18.7129H2.8573C2.36071 18.7116 1.95633 18.3082 1.95633 17.8114ZM15.5856 20.0421C13.1273 20.0421 11.1292 18.0433 11.1292 15.5864C11.1292 13.1295 13.1273 11.1307 15.5856 11.1307C18.044 11.1307 20.042 13.1295 20.042 15.5864C20.042 18.0433 18.0425 20.0421 15.5856 20.0421ZM14.7349 2.14359C14.7349 2.04398 14.8214 1.95788 14.9206 1.95788H15.0235C15.1238 1.95788 15.2092 2.04366 15.2092 2.14359V4.18216C15.2092 4.28161 15.1221 4.36788 15.0235 4.36788H14.9206C14.8208 4.36788 14.7349 4.28193 14.7349 4.18216V2.14359ZM5.45847 2.14288C5.45847 2.04327 5.54497 1.95716 5.64419 1.95716H5.74704C5.84681 1.95716 5.93276 2.04311 5.93276 2.14288V4.18288C5.93276 4.28249 5.84626 4.36859 5.74704 4.36859H5.64419C5.54441 4.36859 5.45847 4.28265 5.45847 4.18288V2.14288ZM2.85704 3.50216H4.40204V4.18288C4.40204 4.86811 4.95967 5.42573 5.6449 5.42573H5.74776C6.43298 5.42573 6.99061 4.86811 6.99061 4.18288V3.50216H13.6799V4.18216C13.6799 4.86747 14.2383 5.42502 14.9235 5.42502H15.0263C15.7123 5.42502 16.2692 4.86735 16.2692 4.18216V3.50216H17.8135C18.3089 3.50216 18.7128 3.90592 18.7128 4.40216V6.74145H1.95633V4.40216C1.95633 3.90606 2.36075 3.50216 2.85704 3.50216Z" fill="white" stroke="white" stroke-width="0.2"/>
<path d="M16.029 15.1715V12.0965C16.029 11.8038 15.7911 11.568 15.4998 11.568C15.2081 11.568 14.9712 11.8049 14.9712 12.0965V15.7008C14.9712 15.9931 15.208 16.2301 15.4998 16.2301H18.6405C18.933 16.2301 19.1698 15.9924 19.1698 15.7008C19.1698 15.4093 18.933 15.1715 18.6405 15.1715H16.029Z" fill="white" stroke="white" stroke-width="0.2"/>
</g>
<defs>
<clipPath id="clip0_330_49718">
<rect width="22" height="22" fill="white"/>
</clipPath>
</defs>
</svg>
