<svg xmlns="http://www.w3.org/2000/svg" xmlns:android="http://schemas.android.com/apk/res/android" width="18dp" height="20dp" viewportWidth="18" viewportHeight="20">
	<path d="M1.505,8.412V5.222H15.097L13.207,7.332C12.913,7.66 12.913,8.192 13.207,8.52C13.354,8.683 13.546,8.766 13.739,8.766C13.932,8.766 14.124,8.683 14.271,8.52L17.445,4.976C17.45,4.971 17.453,4.965 17.458,4.96C17.487,4.926 17.514,4.889 17.538,4.85C17.546,4.836 17.552,4.821 17.559,4.807C17.577,4.774 17.594,4.741 17.608,4.706C17.615,4.688 17.617,4.669 17.623,4.652C17.633,4.618 17.644,4.584 17.651,4.549C17.661,4.495 17.666,4.439 17.666,4.383C17.666,4.326 17.661,4.271 17.651,4.217C17.644,4.181 17.633,4.147 17.622,4.113C17.617,4.095 17.615,4.077 17.608,4.06C17.594,4.023 17.575,3.988 17.557,3.954C17.551,3.941 17.546,3.928 17.539,3.915C17.511,3.87 17.48,3.827 17.445,3.789L14.272,0.246C13.978,-0.082 13.502,-0.082 13.208,0.246C12.914,0.574 12.914,1.106 13.208,1.434L15.097,3.543H0.752C0.337,3.543 0,3.919 0,4.383V8.412C0,8.876 0.337,9.252 0.752,9.252C1.168,9.252 1.505,8.876 1.505,8.412ZM17.248,10.748C16.832,10.748 16.495,11.124 16.495,11.588V14.778H2.903L4.793,12.668C5.087,12.34 5.087,11.808 4.793,11.48C4.499,11.152 4.023,11.153 3.729,11.48L0.555,15.023C0.55,15.028 0.547,15.035 0.543,15.04C0.514,15.074 0.485,15.11 0.462,15.15C0.454,15.163 0.449,15.178 0.442,15.191C0.424,15.225 0.406,15.258 0.393,15.294C0.386,15.311 0.383,15.33 0.378,15.347C0.367,15.381 0.356,15.415 0.349,15.451C0.34,15.505 0.334,15.561 0.334,15.617C0.334,15.673 0.34,15.729 0.349,15.783C0.356,15.819 0.367,15.854 0.378,15.888C0.383,15.905 0.386,15.923 0.393,15.94C0.407,15.978 0.425,16.013 0.444,16.048C0.45,16.06 0.455,16.073 0.462,16.084C0.489,16.13 0.52,16.173 0.555,16.212L3.728,19.754C3.875,19.918 4.068,20 4.26,20C4.453,20 4.645,19.918 4.792,19.754C5.086,19.426 5.086,18.894 4.792,18.566L2.903,16.457H17.248C17.663,16.457 18,16.081 18,15.617V11.588C18,11.124 17.663,10.748 17.248,10.748Z" fill="#fff"/>
</svg>
