<svg width="75" height="51" viewBox="0 0 75 51" fill="none" xmlns="http://www.w3.org/2000/svg">
<path d="M55.3305 27.458C55.3636 27.3651 55.4137 27.2823 55.4458 27.1889L60.1433 13.4576L60.1439 13.4542C60.33 13.1215 60.4337 12.744 60.4453 12.3572C60.4453 10.5927 58.7407 9.26784 55.1417 8.20373L53.348 4.39109C53.2546 4.19338 53.1132 4.02586 52.9383 3.90598C52.7634 3.7861 52.5615 3.71824 52.3535 3.70945C52.143 3.68273 51.9298 3.7259 51.7432 3.83304C51.5567 3.94018 51.4059 4.10604 51.3115 4.30788L49.7585 7.05958C48.5682 6.87799 47.3077 6.72277 45.9769 6.5939L42.8636 0.637319C42.7566 0.444425 42.6044 0.284391 42.4217 0.172904C42.239 0.061418 42.0322 0.00230591 41.8215 0.00136564C41.6099 0.00614828 41.4035 0.0722928 41.2247 0.192656C41.0458 0.313019 40.9013 0.483028 40.8067 0.684325L38.2129 6.19826C37.5326 6.1907 36.8499 6.18306 36.1801 6.19738L33.5871 0.684765C33.4925 0.483468 33.348 0.313458 33.1692 0.193095C32.9903 0.0727318 32.7839 0.00658903 32.5723 0.00180639C32.3593 -0.0107795 32.1475 0.0426101 31.9625 0.155497C31.7775 0.268384 31.6274 0.435915 31.5302 0.637758L28.4102 6.60752C27.025 6.73967 25.7673 6.89129 24.6371 7.06239L23.0826 4.30788C22.9858 4.10815 22.8346 3.94415 22.6486 3.83736C22.4627 3.73058 22.2507 3.68599 22.0405 3.70945C21.8326 3.71824 21.6307 3.7861 21.4558 3.90598C21.2809 4.02586 21.1394 4.19338 21.0461 4.39109L19.2535 8.20311C15.6532 9.26933 13.9491 10.594 13.9491 12.3572C13.9517 12.8217 14.0809 13.2754 14.3211 13.6635L18.9481 27.1889C18.9802 27.2826 19.0301 27.3651 19.0634 27.458C7.10156 29.5824 0 33.5926 0 38.3043C0 46.3306 19.1638 50.66 37.197 50.66C55.2301 50.66 74.3939 46.3306 74.3939 38.3043C74.3939 33.5926 67.2923 29.5824 55.3305 27.458ZM58.1171 12.3155C58.1055 12.3325 58.0881 12.3419 58.0771 12.3595C57.8916 12.6157 57.6557 12.8258 57.3858 12.975L56.6187 11.3441C57.1772 11.5517 57.6879 11.8828 58.1171 12.3155ZM52.2152 7.51023L55.228 13.914C55.1886 13.9269 55.1494 13.9397 55.1093 13.9525C54.911 14.0167 54.7002 14.0805 54.4838 14.1439C54.2619 14.2078 54.0319 14.2715 53.7905 14.3347C53.6905 14.3611 53.5903 14.3874 53.4871 14.4138C53.1441 14.4999 52.7854 14.5848 52.4062 14.6675C52.3703 14.6755 52.3354 14.6834 52.2992 14.6913C51.8727 14.7833 51.4244 14.8727 50.9542 14.9596L50.9187 14.9664C50.4511 15.052 49.9599 15.1343 49.4492 15.2131L49.3429 15.2299C48.8651 15.3029 48.3642 15.3712 47.8499 15.4368C47.8105 15.442 47.7724 15.4472 47.7326 15.4522L52.2152 7.51023ZM48.4575 9.36563L47.9217 10.3145L47.3502 9.22136C47.729 9.26643 48.0919 9.3159 48.4575 9.36563ZM41.901 3.88465L46.54 12.7628L44.8553 15.7483C44.6874 15.7626 44.5227 15.7776 44.352 15.7911C44.1555 15.8064 43.9656 15.824 43.7655 15.838C43.3163 15.8699 42.848 15.8954 42.3792 15.9211C42.146 15.9337 41.9204 15.9495 41.6827 15.9604C41.2098 15.9824 40.7171 15.9973 40.2257 16.0125C39.9781 16.02 39.7396 16.0314 39.4875 16.0371C38.7436 16.0543 37.9801 16.0632 37.197 16.064C36.8492 16.064 36.5177 16.056 36.1772 16.0526L41.901 3.88465ZM32.4929 3.88465L35.8969 11.1224L33.8327 15.5113C33.7621 15.6629 33.7218 15.8283 33.7141 15.9973C32.2424 15.9445 30.8512 15.8625 29.5405 15.7512L27.8542 12.763L32.4929 3.88465ZM27.0373 9.23304L26.4719 10.315L25.9389 9.37046C26.2966 9.32319 26.6557 9.27697 27.0373 9.23304ZM22.1785 7.51093L26.661 15.4527C26.3414 15.4126 26.0221 15.3725 25.7155 15.3297L19.3769 13.9818C19.309 13.96 19.2312 13.9389 19.1656 13.917L22.1785 7.51093ZM16.5351 12.6113C16.453 12.5371 16.3797 12.4526 16.3168 12.3596C16.3127 12.3529 16.3058 12.3494 16.3016 12.3427C16.707 11.8813 17.215 11.5357 17.7789 11.3376L17.0138 12.9641C16.8448 12.8617 16.6846 12.7436 16.5351 12.6113ZM17.5723 15.936C17.8913 16.0645 18.2648 16.177 18.6182 16.2956C18.653 16.3178 18.6889 16.3379 18.7257 16.3559C18.8622 16.3999 19.02 16.4397 19.1621 16.4824C19.3482 16.5395 19.5402 16.5939 19.7339 16.6484C20.0859 16.7461 20.4564 16.8394 20.8384 16.9307C22.1251 17.2418 23.5377 17.504 25.0433 17.7215C25.1538 17.7376 25.2542 17.7566 25.3664 17.7721C25.382 17.7743 25.3973 17.7736 25.4126 17.775C29.3218 18.2914 33.2577 18.5453 37.197 18.5351C37.9053 18.5351 38.6642 18.5224 39.4416 18.5036C39.7783 18.4962 40.1126 18.4868 40.4495 18.4758C40.7919 18.464 41.1416 18.4474 41.492 18.4319C42.3847 18.3928 43.2699 18.3412 44.1477 18.2771C44.2979 18.2661 44.4466 18.2565 44.5973 18.2446C45.1469 18.2018 45.6884 18.1542 46.2272 18.1012C46.443 18.0801 46.6566 18.0558 46.872 18.033C47.4889 17.9671 48.0964 17.897 48.6917 17.8174C49.2574 17.7426 49.8184 17.6632 50.3683 17.5745C50.6094 17.5351 50.8386 17.4913 51.0743 17.4496C51.6004 17.3572 52.1143 17.258 52.6158 17.1521C52.8005 17.1126 52.9821 17.0731 53.162 17.0315C53.7225 16.9039 54.2607 16.7663 54.7765 16.6185C54.8779 16.5895 54.9851 16.5628 55.0844 16.5331C55.6323 16.3694 56.1528 16.1951 56.6353 16.0066C56.6864 16.0175 56.7381 16.0248 56.7902 16.0283L53.2617 26.3443C53.0787 26.8791 52.8307 27.3723 52.6042 27.88L52.5966 27.8888C51.9074 29.4315 51.0169 30.8631 49.9515 32.1414C49.9254 32.1725 49.8989 32.2029 49.8727 32.234C49.395 32.7963 48.885 33.3265 48.3455 33.8216C48.183 33.9717 48.0109 34.1071 47.8435 34.2504C47.4468 34.5907 47.0374 34.9135 46.6143 35.2147C46.4187 35.3539 46.2223 35.4915 46.0219 35.6219L45.9864 35.6442C45.5067 35.9547 45.0137 36.2393 44.5074 36.4982C44.4285 36.5387 44.3525 36.586 44.2731 36.625C44.0618 36.728 43.8417 36.8106 43.6262 36.9043C43.1445 37.1164 42.6604 37.3231 42.1609 37.4876C42.071 37.5173 41.9785 37.5381 41.8881 37.5662C41.5717 37.6629 41.2472 37.7325 40.9247 37.8098C40.6177 37.8845 40.3138 37.9695 40.0022 38.0261C39.8359 38.0562 39.6697 38.0868 39.5023 38.1118C37.9748 38.368 36.4189 38.368 34.8913 38.1118C34.7239 38.0868 34.5577 38.0562 34.3914 38.0261C34.0798 37.9695 33.7758 37.8845 33.4689 37.8098C33.1465 37.7325 32.8218 37.6632 32.5054 37.5662C32.4149 37.5381 32.3224 37.5173 32.2326 37.4876C31.7331 37.3231 31.249 37.1164 30.7674 36.9043C30.5518 36.8106 30.3318 36.728 30.1205 36.625C30.0411 36.586 29.9651 36.5387 29.8862 36.4982C29.3802 36.2392 28.8872 35.9546 28.4071 35.6442L28.3717 35.6219C28.1713 35.4915 27.9749 35.3539 27.7793 35.2147C27.3561 34.9135 26.9471 34.5908 26.55 34.2504C26.3827 34.1071 26.2105 33.9717 26.0481 33.8216C25.5086 33.3265 24.9985 32.7963 24.5209 32.234C24.4947 32.203 24.4682 32.1725 24.4421 32.1414C23.3767 30.8631 22.4862 29.4315 21.797 27.8888C21.7939 27.8819 21.7883 27.8772 21.7853 27.8705C21.5605 27.3659 21.3136 26.8758 21.1322 26.3444L17.5723 15.936ZM60.445 38.3043C60.445 39.9814 52.2401 43.2466 37.197 43.2466C22.1538 43.2466 13.9489 39.9814 13.9489 38.3043C13.9489 37.5875 16.2533 35.7414 23.3071 34.4792L23.3081 34.4803C23.7074 34.9157 24.1257 35.3229 24.5583 35.7185C24.6872 35.8367 24.8166 35.9528 24.948 36.0674C25.0608 36.1659 25.1756 36.2598 25.2904 36.3554C25.8145 36.7897 26.3592 37.1953 26.9223 37.5706C27.1188 37.7024 27.3151 37.831 27.5157 37.9554C27.7141 38.0779 27.9087 38.2062 28.1105 38.3213C28.4724 38.5262 28.8405 38.7118 29.2146 38.8924L29.2352 38.903C29.3591 38.9632 29.4764 39.0348 29.6017 39.0925C29.9548 39.2547 30.3189 39.386 30.6804 39.5254C30.9488 39.628 31.2077 39.7495 31.481 39.8397C31.5768 39.8717 31.6763 39.8901 31.7725 39.9204C31.9846 39.9874 32.2002 40.0385 32.4147 40.0978C32.8875 40.2284 33.3624 40.3452 33.8442 40.4371C34.0251 40.4711 34.2028 40.5124 34.385 40.5411C34.5323 40.5646 34.6804 40.579 34.8283 40.5989C36.3999 40.8344 37.9947 40.8344 39.5662 40.5989C39.7142 40.579 39.8622 40.5646 40.0095 40.5411C40.1918 40.5124 40.3694 40.4708 40.5504 40.4371C41.0321 40.3452 41.5071 40.2284 41.9798 40.0978C42.1947 40.0385 42.4097 39.9874 42.6221 39.9204C42.7183 39.8901 42.8177 39.8717 42.9135 39.8397C43.1868 39.7495 43.4458 39.628 43.7143 39.5254C44.0757 39.386 44.4398 39.2547 44.7929 39.0925C44.9181 39.0351 45.0356 38.9632 45.1594 38.903L45.18 38.8924C45.554 38.7119 45.9221 38.5263 46.2841 38.3213C46.4859 38.2062 46.6809 38.0779 46.8788 37.9554C47.0794 37.831 47.2756 37.7024 47.4722 37.5706C48.0352 37.1953 48.5798 36.7897 49.1039 36.3554C49.2187 36.2598 49.3334 36.1659 49.4462 36.0674C49.5777 35.9531 49.707 35.8367 49.8359 35.7185C50.2685 35.3231 50.6868 34.9157 51.0861 34.4803L51.0871 34.4792C58.1407 35.7414 60.445 37.5872 60.445 38.3043ZM37.197 48.1889C16.646 48.1889 2.32481 42.9786 2.32481 38.3043C2.32481 35.6157 7.88327 31.8463 20.0582 29.7816C20.5 30.6601 21.0016 31.5033 21.5589 32.3043C16.6461 33.3147 11.624 35.1251 11.624 38.3045C11.624 43.3988 24.8805 45.718 37.197 45.718C49.5134 45.718 62.7699 43.3988 62.7699 38.3045C62.7699 35.1251 57.7478 33.3147 52.835 32.3043C53.3923 31.5033 53.8939 30.6601 54.3357 29.7816C66.5106 31.8463 72.0691 35.6157 72.0691 38.3043C72.0691 42.9787 57.7479 48.1889 37.197 48.1889Z" fill="#989FAD"/>
</svg>
