<svg width="58" height="59" viewBox="0 0 58 59" fill="none" xmlns="http://www.w3.org/2000/svg">
<path d="M54.3692 41.459H51.6835C51.6835 41.3349 51.6835 41.2728 51.6835 41.1487C51.6835 37.6728 49.4563 34.6315 46.1811 33.3901C44.9365 30.1625 41.5957 27.928 37.8619 27.928C36.8139 27.928 35.8313 28.1142 34.8487 28.4246C33.2111 26.8729 30.9839 26.0039 28.6257 26.0039C26.6606 26.0039 24.7609 26.6246 23.2543 27.7418C22.2717 27.3694 21.1581 27.1832 20.0446 27.1832C16.0487 27.1832 12.6425 29.666 11.5289 33.2039C8.05713 34.3832 5.63344 37.4866 5.63344 41.0866C5.63344 41.2107 5.63344 41.2728 5.63344 41.3969H2.94773C1.3101 41.3969 0 42.6383 0 44.19C0 45.7418 1.3101 46.9831 2.94773 46.9831H4.51985L6.81253 54.8038C7.53309 57.2245 9.89127 58.9003 12.5115 58.9003H44.609C47.2947 58.9003 49.5874 57.2245 50.3079 54.8038L52.6006 46.9831H54.1727C55.8103 46.9831 57.1204 45.7418 57.1204 44.19C57.317 42.7004 56.0069 41.459 54.3692 41.459ZM10.1533 41.0866C10.1533 39.0383 11.7254 37.3004 13.8871 36.9901C14.8697 36.8659 15.6557 36.059 15.7867 35.128C16.0487 33.0177 17.8829 31.4039 20.1756 31.4039C21.0271 31.4039 21.8132 31.6522 22.5337 32.0866C23.4508 32.6453 24.6954 32.4591 25.416 31.7142C26.2675 30.7832 27.4466 30.2866 28.7567 30.2866C30.2633 30.2866 31.639 31.0315 32.4905 32.2108C32.818 32.7073 33.3421 33.0177 33.9316 33.1418C34.5212 33.2659 35.1107 33.1418 35.6348 32.8315C36.3553 32.397 37.2069 32.1487 38.0585 32.1487C40.1546 32.1487 41.9233 33.5142 42.3818 35.4383C42.5783 36.2452 43.2334 36.8659 44.0194 37.0521C45.9846 37.4866 47.3602 39.1625 47.3602 41.0866C47.3602 41.2107 47.3602 41.2728 47.3602 41.3969H10.1533C10.1533 41.3349 10.1533 41.2107 10.1533 41.0866Z" fill="#989FAD"/>
<path d="M12.4458 17.3143L13.4284 19.5488C13.7559 20.3556 14.6075 20.8522 15.459 20.8522C15.721 20.8522 16.0486 20.7901 16.3106 20.666C17.4242 20.2315 18.0137 18.9901 17.4897 17.935L16.5071 15.7005C15.9176 14.397 16.1796 12.8453 17.1622 11.7902C19.1928 9.49362 19.6514 6.32811 18.4723 3.53502L17.5552 1.30055C17.0967 0.245378 15.7866 -0.313241 14.673 0.183309C13.5594 0.61779 12.9698 1.85916 13.4939 2.91433L14.4764 5.14881C15.066 6.45225 14.804 8.00397 13.8214 9.05914C11.7252 11.3557 11.2667 14.5212 12.4458 17.3143Z" fill="#989FAD"/>
<path d="M25.6771 17.3143L26.6596 19.5488C26.9872 20.3556 27.8387 20.8522 28.6903 20.8522C28.9523 20.8522 29.2798 20.7901 29.5419 20.666C30.6554 20.2315 31.245 18.9901 30.7209 17.935L29.7384 15.7005C29.1488 14.397 29.4108 12.8453 30.3934 11.7902C32.4241 9.49362 32.8826 6.32811 31.7035 3.53502L30.7209 1.30055C30.2624 0.245378 28.9523 -0.313241 27.8387 0.183309C26.7251 0.61779 26.1356 1.85916 26.6596 2.91433L27.6422 5.14881C28.2318 6.45225 27.9697 8.00397 26.9872 9.05914C24.9565 11.3557 24.4325 14.5212 25.6771 17.3143Z" fill="#989FAD"/>
<path d="M38.8452 17.3143L39.8278 19.5488C40.1553 20.3556 41.0069 20.8522 41.8585 20.8522C42.1205 20.8522 42.448 20.7901 42.71 20.666C43.8236 20.2315 44.4132 18.9901 43.8891 17.935L42.9065 15.7005C42.317 14.397 42.579 12.8453 43.5616 11.7902C45.5922 9.49362 46.0508 6.32811 44.8717 3.53502L43.8891 1.30055C43.4306 0.245378 42.1205 -0.313241 41.0069 0.183309C39.8933 0.61779 39.3038 1.85916 39.8278 2.91433L40.8104 5.14881C41.3999 6.45225 41.1379 8.00397 40.1553 9.05914C38.1902 11.3557 37.6661 14.5212 38.8452 17.3143Z" fill="#989FAD"/>
</svg>
