<svg xmlns="http://www.w3.org/2000/svg" xmlns:android="http://schemas.android.com/apk/res/android" width="26dp" height="20dp" viewportWidth="26" viewportHeight="20">
	<path d="M11.2,2.2c-2.1,2.1 -1.3,4.4 2.7,8 3.5,3.1 4,3.3 4.4,1.7 0.3,-1.1 1,-1.9 1.5,-1.9 1.8,-0 4.2,3 4.2,5.2 0,1.7 -0.5,2 -3,1.6 -1.6,-0.3 -3,-0.1 -3,0.4 0,0.4 -2.2,0.8 -5,0.8 -2.7,-0 -5,-0.4 -5,-0.8 0,-0.5 -1.3,-0.7 -2.9,-0.4 -2.4,0.3 -3,-0 -3.4,-1.9 -0.4,-2.3 -0.4,-2.2 -0.6,0.3 -0.1,2.5 0.2,2.6 5.9,3.3 3.3,0.4 8.7,0.4 12,-0 5.5,-0.6 6,-0.9 6,-3.1 0,-1.3 -0.9,-3.3 -1.9,-4.3 -1.1,-1.1 -1.7,-2.1 -1.5,-2.4 0.3,-0.2 -0.4,-0.7 -1.4,-0.9 -1.3,-0.4 -1.9,-0 -1.8,1 0.1,1.8 -1.4,2.5 -3.2,1.3 -1.2,-0.7 -1.2,-1.2 0,-3 2.1,-3.3 -1.3,-7.6 -4,-4.9zM14.5,5c0,1.3 -0.6,2.5 -1.2,2.7 -1.6,0.6 -2.7,-2.1 -1.9,-4.3 0.9,-2.3 3.1,-1.1 3.1,1.6z" fill="#fff" stroke="#00000000"/>
	<path d="M4,3.5c-1,1.2 -1,2.2 -0.3,3.8 0.9,1.9 0.7,2.6 -0.6,3.5 -1.3,1 -1.2,1 0.7,0.2 1.7,-0.8 2.7,-0.8 3.7,-0 1,0.8 1.9,0.9 3.2,0.1 1.6,-0.9 1.5,-1 -0.7,-0.8 -1.8,0.1 -2.5,-0.3 -2.4,-1.5 0.1,-1 -0.4,-1.4 -1.2,-1.1 -1.8,0.7 -3,-2.5 -1.5,-4 0.9,-0.9 1.4,-0.8 2.2,0.3 0.9,1.2 1,1.2 0.7,0.1 -0.6,-2.1 -2.3,-2.4 -3.8,-0.6z" fill="#fff" stroke="#00000000"/>
	<path d="M18.5,3.1c-0.4,0.6 -0.4,1.3 -0.1,1.6 0.3,0.4 0.6,0.1 0.6,-0.5 0,-2 2,-1.3 3,1 0.5,1.4 0.9,1.7 0.9,0.7 0.1,-1.5 -1.7,-3.9 -3,-3.9 -0.4,-0 -1.1,0.5 -1.4,1.1z" fill="#fff" stroke="#00000000"/>
</svg>
