<svg width="46" height="62" viewBox="0 0 46 62" fill="none" xmlns="http://www.w3.org/2000/svg">
<path d="M41.231 0H4.68901C2.10197 0 0 1.91905 0 4.28095V54.7667C0 57.1286 2.10197 59.0476 4.68901 59.0476H8.40789V60.5238C8.40789 61.4095 9.05465 62 10.0248 62C10.9949 62 11.6417 61.4095 11.6417 60.5238V59.0476H34.2783V60.5238C34.2783 61.4095 34.9251 62 35.8952 62C36.8653 62 37.5121 61.4095 37.5121 60.5238V59.0476H41.231C43.818 59.0476 45.92 57.1286 45.92 54.7667V4.28095C45.92 1.91905 43.818 0 41.231 0ZM4.68901 2.95238H41.231C42.0394 2.95238 42.6862 3.54286 42.6862 4.28095V23.0286H3.2338V4.28095C3.2338 3.54286 3.88056 2.95238 4.68901 2.95238ZM41.231 56.0952H4.68901C3.88056 56.0952 3.2338 55.5048 3.2338 54.7667V25.981H42.5245V54.7667C42.6862 55.5048 42.0394 56.0952 41.231 56.0952Z" fill="#989FAD"/>
<path d="M10.0246 17.7139C10.9948 17.7139 11.6415 17.1234 11.6415 16.2377V10.0377C11.6415 9.152 10.9948 8.56152 10.0246 8.56152C9.05448 8.56152 8.40771 9.152 8.40771 10.0377V16.2377C8.40771 17.1234 9.05448 17.7139 10.0246 17.7139Z" fill="#989FAD"/>
<path d="M10.0246 30.7051C9.05448 30.7051 8.40771 31.2956 8.40771 32.1813V51.5194C8.40771 52.4051 9.05448 52.9956 10.0246 52.9956C10.9948 52.9956 11.6415 52.4051 11.6415 51.5194V32.1813C11.6415 31.2956 10.8331 30.7051 10.0246 30.7051Z" fill="#989FAD"/>
</svg>
