<svg width="23" height="23" viewBox="0 0 23 23" fill="none" xmlns="http://www.w3.org/2000/svg">
<g clip-path="url(#clip0_330_49758)">
<path d="M9.82806 1.50102C9.77421 1.5113 9.72572 1.54027 9.69115 1.58282C9.65658 1.62536 9.63815 1.67876 9.63912 1.73357V2.64195C8.52509 2.87447 7.48819 3.30491 6.56515 3.90642L5.85297 3.19425C5.83129 3.17184 5.80532 3.15401 5.7766 3.14184C5.74789 3.12967 5.71702 3.1234 5.68583 3.1234C5.65464 3.1234 5.62378 3.12967 5.59506 3.14184C5.56635 3.15401 5.54038 3.17184 5.51869 3.19425L3.19323 5.51971C3.15019 5.56325 3.12605 5.622 3.12605 5.68322C3.12605 5.74444 3.15019 5.8032 3.19323 5.84673L3.91993 6.57344C3.31956 7.49487 2.88197 8.52647 2.6482 9.64014H1.73255C1.67087 9.64015 1.61173 9.66465 1.56812 9.70826C1.52451 9.75187 1.50001 9.81102 1.5 9.87269V13.1283C1.50001 13.19 1.52451 13.2492 1.56812 13.2928C1.61173 13.3364 1.67087 13.3609 1.73255 13.3609H2.6482C2.88194 14.47 3.32238 15.502 3.91993 16.4203L3.19323 17.147C3.15019 17.1906 3.12605 17.2493 3.12605 17.3105C3.12605 17.3718 3.15019 17.4305 3.19323 17.474L5.51869 19.7995C5.54038 19.8219 5.56635 19.8397 5.59506 19.8519C5.62378 19.8641 5.65464 19.8704 5.68583 19.8704C5.71702 19.8704 5.74789 19.8641 5.7766 19.8519C5.80532 19.8397 5.83129 19.8219 5.85297 19.7995L6.68869 18.9638C6.73163 18.9194 6.75524 18.8598 6.75438 18.798C6.75352 18.7362 6.72825 18.6773 6.68409 18.6341C6.63993 18.5909 6.58047 18.567 6.5187 18.5675C6.45693 18.5679 6.39786 18.5929 6.3544 18.6368L5.68583 19.3053L3.69465 17.3142L4.37049 16.6311C4.40671 16.5924 4.42862 16.5424 4.43259 16.4896C4.43655 16.4367 4.42233 16.3841 4.39229 16.3404C3.73404 15.3755 3.26241 14.2747 3.04062 13.0847C3.03057 13.0321 3.00267 12.9846 2.96163 12.9501C2.92058 12.9157 2.86891 12.8965 2.81534 12.8958H1.96509V10.1052H2.81534C2.86995 10.1042 2.92246 10.084 2.96365 10.0481C3.00484 10.0122 3.03209 9.96298 3.04062 9.90902C3.26241 8.71906 3.73404 7.62546 4.39229 6.66064C4.42423 6.61633 4.43955 6.56218 4.43556 6.50771C4.43157 6.45323 4.40854 6.40189 4.37049 6.36269L3.69465 5.68686L5.68583 3.68841L6.3544 4.35698C6.3927 4.39613 6.44357 4.42051 6.49808 4.42583C6.55258 4.43115 6.60721 4.41706 6.65235 4.38605C7.61586 3.72724 8.72354 3.26325 9.91527 3.04164C9.96789 3.0316 10.0154 3.0037 10.0499 2.96265C10.0843 2.9216 10.1035 2.86993 10.1042 2.81636V1.96612H12.8948V2.81636C12.8955 2.86993 12.9147 2.9216 12.9491 2.96265C12.9835 3.0037 13.0311 3.0316 13.0837 3.04164C14.2754 3.26325 15.3831 3.72724 16.3466 4.38605C16.3918 4.41706 16.4464 4.43115 16.5009 4.42583C16.5554 4.42051 16.6063 4.39613 16.6446 4.35698L17.3131 3.68841L19.3043 5.68686L18.6285 6.36269C18.5904 6.40189 18.5674 6.45323 18.5634 6.50771C18.5594 6.56218 18.5747 6.61633 18.6067 6.66064C19.2649 7.62546 19.7366 8.71906 19.9584 9.90902C19.9669 9.96298 19.9941 10.0122 20.0353 10.0481C20.0765 10.084 20.129 10.1042 20.1836 10.1052H21.0339V12.8958H20.1836C20.1301 12.8965 20.0784 12.9157 20.0373 12.9501C19.9963 12.9846 19.9684 13.0321 19.9584 13.0847C19.7366 14.2747 19.2649 15.3755 18.6067 16.3404C18.5766 16.3841 18.5624 16.4367 18.5664 16.4896C18.5704 16.5424 18.5923 16.5924 18.6285 16.6311L19.3043 17.3142L17.3131 19.3053L16.6446 18.6368C16.6063 18.5976 16.5554 18.5732 16.5009 18.5679C16.4464 18.5626 16.3918 18.5767 16.3466 18.6077C15.3831 19.2665 14.2754 19.7305 13.0837 19.9521C13.0299 19.9624 12.9814 19.9914 12.9468 20.0339C12.9122 20.0765 12.8938 20.1298 12.8948 20.1847V21.0349H10.1042V20.1847C10.1052 20.1298 10.0868 20.0765 10.0522 20.0339C10.0176 19.9914 9.96912 19.9624 9.91527 19.9521C9.28759 19.8354 8.67136 19.6623 8.10577 19.4216L7.64794 19.1963C7.62038 19.1782 7.58927 19.1662 7.55669 19.161C7.5241 19.1558 7.49079 19.1576 7.45896 19.1663C7.42713 19.175 7.39751 19.1903 7.37207 19.2113C7.34663 19.2323 7.32595 19.2585 7.3114 19.2881C7.29686 19.3177 7.28878 19.3501 7.2877 19.3831C7.28663 19.416 7.29258 19.4489 7.30516 19.4794C7.31775 19.5099 7.33668 19.5373 7.36069 19.56C7.38471 19.5826 7.41327 19.5998 7.44446 19.6106L7.90956 19.8431C7.91192 19.8456 7.91435 19.848 7.91682 19.8504C8.46092 20.082 9.05055 20.2314 9.63912 20.3518V21.2675C9.63912 21.3291 9.66363 21.3883 9.70724 21.4319C9.75085 21.4755 9.80999 21.5 9.87166 21.5H13.1273C13.189 21.5 13.2481 21.4755 13.2917 21.4319C13.3353 21.3883 13.3599 21.3291 13.3599 21.2675V20.3518C14.4739 20.1193 15.5108 19.6889 16.4338 19.0873L17.146 19.7995C17.1677 19.8219 17.1937 19.8397 17.2224 19.8519C17.2511 19.8641 17.282 19.8704 17.3131 19.8704C17.3443 19.8704 17.3752 19.8641 17.4039 19.8519C17.4326 19.8397 17.4586 19.8219 17.4803 19.7995L19.8057 17.474C19.8488 17.4305 19.8729 17.3718 19.8729 17.3105C19.8729 17.2493 19.8488 17.1906 19.8057 17.147L19.079 16.4203C19.6766 15.502 20.117 14.47 20.3508 13.3609H21.2664C21.3281 13.3609 21.3872 13.3364 21.4309 13.2928C21.4745 13.2492 21.499 13.19 21.499 13.1283V9.87269C21.499 9.81102 21.4745 9.75187 21.4309 9.70826C21.3872 9.66465 21.3281 9.64015 21.2664 9.64014H20.3508C20.117 8.52647 19.6794 7.49487 19.079 6.57344L19.8057 5.84673C19.8488 5.8032 19.8729 5.74444 19.8729 5.68322C19.8729 5.622 19.8488 5.56325 19.8057 5.51971L17.4803 3.19425C17.4586 3.17184 17.4326 3.15401 17.4039 3.14184C17.3752 3.12967 17.3443 3.1234 17.3131 3.1234C17.282 3.1234 17.2511 3.12967 17.2224 3.14184C17.1937 3.15401 17.1677 3.17184 17.146 3.19425L16.4338 3.90642C15.5108 3.30496 14.4739 2.87447 13.3599 2.64195V1.73357C13.3599 1.6719 13.3353 1.61275 13.2917 1.56914C13.2481 1.52553 13.189 1.50103 13.1273 1.50102H9.87166C9.85716 1.49966 9.84256 1.49966 9.82806 1.50102ZM11.4995 4.75667C7.77772 4.75667 4.75565 7.77874 4.75565 11.5005C4.75565 15.2223 7.77772 18.2444 11.4995 18.2444C15.2213 18.2444 18.2433 15.2223 18.2433 11.5005C18.2433 7.77874 15.2213 4.75667 11.4995 4.75667ZM11.4995 5.22176C14.9699 5.22176 17.7782 8.03009 17.7782 11.5005C17.7782 13.256 17.0556 14.8379 15.8961 15.977C15.7252 14.0506 14.3816 12.2087 12.575 11.6677C13.1839 11.3011 13.5924 10.633 13.5924 9.87269C13.5924 8.71956 12.6526 7.77977 11.4995 7.77977C10.3464 7.77977 9.40657 8.71956 9.40657 9.87269C9.40657 10.633 9.8151 11.3011 10.424 11.6677C8.61742 12.2087 7.27381 14.0506 7.10291 15.977C5.94334 14.8379 5.22074 13.256 5.22074 11.5005C5.22074 8.03009 8.02908 5.22176 11.4995 5.22176ZM11.4995 8.24486C12.4013 8.24486 13.1273 8.97091 13.1273 9.87269C13.1273 10.7745 12.4013 11.5005 11.4995 11.5005C10.5977 11.5005 9.87166 10.7745 9.87166 9.87269C9.87166 8.97091 10.5977 8.24486 11.4995 8.24486ZM11.4995 11.9656C11.5767 11.9656 11.6558 11.9672 11.732 11.9729C11.7326 11.99 11.735 12.0071 11.7393 12.0237L12.4369 14.5817C12.4432 14.6049 12.453 14.627 12.466 14.6472L11.4995 15.7954L10.533 14.6472C10.546 14.627 10.5558 14.6049 10.562 14.5817L11.2597 12.0237C11.264 12.0071 11.2664 11.99 11.2669 11.9729C11.3432 11.9672 11.4223 11.9656 11.4995 11.9656ZM10.7655 12.0528L10.1769 14.2257L9.11589 12.9757C9.11352 12.9733 9.1111 12.9708 9.10862 12.9685C9.59134 12.53 10.1498 12.1986 10.7655 12.0528ZM12.2335 12.0528C12.8477 12.1982 13.4084 12.5244 13.8904 12.9612C13.8878 12.966 13.8853 12.9708 13.8831 12.9757L12.8221 14.2257L12.2335 12.0528ZM8.7816 13.2882L11.3251 16.2968C11.3469 16.3215 11.3737 16.3413 11.4038 16.3549C11.4339 16.3685 11.4665 16.3755 11.4995 16.3755C11.5325 16.3755 11.5651 16.3685 11.5952 16.3549C11.6252 16.3413 11.6521 16.3215 11.6739 16.2968L14.2174 13.2882C14.974 14.1273 15.4528 15.2585 15.4528 16.384C14.3739 17.2582 12.9976 17.7793 11.4995 17.7793C10.0013 17.7793 8.62511 17.2582 7.5462 16.384C7.5462 15.2585 8.02497 14.1273 8.7816 13.2882Z" fill="white"/>
<mask id="mask0_330_49758" style="mask-type:luminance" maskUnits="userSpaceOnUse" x="0" y="0" width="23" height="23">
<path d="M22.5 0.5H0.5V22.5H22.5V0.5Z" fill="white"/>
<path d="M9.82806 1.50102C9.77421 1.5113 9.72572 1.54027 9.69115 1.58282C9.65658 1.62536 9.63815 1.67876 9.63912 1.73357V2.64195C8.52509 2.87447 7.48819 3.30491 6.56515 3.90642L5.85297 3.19425C5.83129 3.17184 5.80532 3.15401 5.7766 3.14184C5.74789 3.12967 5.71702 3.1234 5.68583 3.1234C5.65464 3.1234 5.62378 3.12967 5.59506 3.14184C5.56635 3.15401 5.54038 3.17184 5.51869 3.19425L3.19323 5.51971C3.15019 5.56325 3.12605 5.622 3.12605 5.68322C3.12605 5.74444 3.15019 5.8032 3.19323 5.84673L3.91993 6.57344C3.31956 7.49487 2.88197 8.52647 2.6482 9.64014H1.73255C1.67087 9.64015 1.61173 9.66465 1.56812 9.70826C1.52451 9.75187 1.50001 9.81102 1.5 9.87269V13.1283C1.50001 13.19 1.52451 13.2492 1.56812 13.2928C1.61173 13.3364 1.67087 13.3609 1.73255 13.3609H2.6482C2.88194 14.47 3.32238 15.502 3.91993 16.4203L3.19323 17.147C3.15019 17.1906 3.12605 17.2493 3.12605 17.3105C3.12605 17.3718 3.15019 17.4305 3.19323 17.474L5.51869 19.7995C5.54038 19.8219 5.56635 19.8397 5.59506 19.8519C5.62378 19.8641 5.65464 19.8704 5.68583 19.8704C5.71702 19.8704 5.74789 19.8641 5.7766 19.8519C5.80532 19.8397 5.83129 19.8219 5.85297 19.7995L6.68869 18.9638C6.73163 18.9194 6.75524 18.8598 6.75438 18.798C6.75352 18.7362 6.72825 18.6773 6.68409 18.6341C6.63993 18.5909 6.58047 18.567 6.5187 18.5675C6.45693 18.5679 6.39786 18.5929 6.3544 18.6368L5.68583 19.3053L3.69465 17.3142L4.37049 16.6311C4.40671 16.5924 4.42862 16.5424 4.43259 16.4896C4.43655 16.4367 4.42233 16.3841 4.39229 16.3404C3.73404 15.3755 3.26241 14.2747 3.04062 13.0847C3.03057 13.0321 3.00267 12.9846 2.96163 12.9501C2.92058 12.9157 2.86891 12.8965 2.81534 12.8958H1.96509V10.1052H2.81534C2.86995 10.1042 2.92246 10.084 2.96365 10.0481C3.00484 10.0122 3.03209 9.96298 3.04062 9.90902C3.26241 8.71906 3.73404 7.62546 4.39229 6.66064C4.42423 6.61633 4.43955 6.56218 4.43556 6.50771C4.43157 6.45323 4.40854 6.40189 4.37049 6.36269L3.69465 5.68686L5.68583 3.68841L6.3544 4.35698C6.3927 4.39613 6.44357 4.42051 6.49808 4.42583C6.55258 4.43115 6.60721 4.41706 6.65235 4.38605C7.61586 3.72724 8.72354 3.26325 9.91527 3.04164C9.96789 3.0316 10.0154 3.0037 10.0499 2.96265C10.0843 2.9216 10.1035 2.86993 10.1042 2.81636V1.96612H12.8948V2.81636C12.8955 2.86993 12.9147 2.9216 12.9491 2.96265C12.9835 3.0037 13.0311 3.0316 13.0837 3.04164C14.2754 3.26325 15.3831 3.72724 16.3466 4.38605C16.3918 4.41706 16.4464 4.43115 16.5009 4.42583C16.5554 4.42051 16.6063 4.39613 16.6446 4.35698L17.3131 3.68841L19.3043 5.68686L18.6285 6.36269C18.5904 6.40189 18.5674 6.45323 18.5634 6.50771C18.5594 6.56218 18.5747 6.61633 18.6067 6.66064C19.2649 7.62546 19.7366 8.71906 19.9584 9.90902C19.9669 9.96298 19.9941 10.0122 20.0353 10.0481C20.0765 10.084 20.129 10.1042 20.1836 10.1052H21.0339V12.8958H20.1836C20.1301 12.8965 20.0784 12.9157 20.0373 12.9501C19.9963 12.9846 19.9684 13.0321 19.9584 13.0847C19.7366 14.2747 19.2649 15.3755 18.6067 16.3404C18.5766 16.3841 18.5624 16.4367 18.5664 16.4896C18.5704 16.5424 18.5923 16.5924 18.6285 16.6311L19.3043 17.3142L17.3131 19.3053L16.6446 18.6368C16.6063 18.5976 16.5554 18.5732 16.5009 18.5679C16.4464 18.5626 16.3918 18.5767 16.3466 18.6077C15.3831 19.2665 14.2754 19.7305 13.0837 19.9521C13.0299 19.9624 12.9814 19.9914 12.9468 20.0339C12.9122 20.0765 12.8938 20.1298 12.8948 20.1847V21.0349H10.1042V20.1847C10.1052 20.1298 10.0868 20.0765 10.0522 20.0339C10.0176 19.9914 9.96912 19.9624 9.91527 19.9521C9.28759 19.8354 8.67136 19.6623 8.10577 19.4216L7.64794 19.1963C7.62038 19.1782 7.58927 19.1662 7.55669 19.161C7.5241 19.1558 7.49079 19.1576 7.45896 19.1663C7.42713 19.175 7.39751 19.1903 7.37207 19.2113C7.34663 19.2323 7.32595 19.2585 7.3114 19.2881C7.29686 19.3177 7.28878 19.3501 7.2877 19.3831C7.28663 19.416 7.29258 19.4489 7.30516 19.4794C7.31775 19.5099 7.33668 19.5373 7.36069 19.56C7.38471 19.5826 7.41327 19.5998 7.44446 19.6106L7.90956 19.8431C7.91192 19.8456 7.91435 19.848 7.91682 19.8504C8.46092 20.082 9.05055 20.2314 9.63912 20.3518V21.2675C9.63912 21.3291 9.66363 21.3883 9.70724 21.4319C9.75085 21.4755 9.80999 21.5 9.87166 21.5H13.1273C13.189 21.5 13.2481 21.4755 13.2917 21.4319C13.3353 21.3883 13.3599 21.3291 13.3599 21.2675V20.3518C14.4739 20.1193 15.5108 19.6889 16.4338 19.0873L17.146 19.7995C17.1677 19.8219 17.1937 19.8397 17.2224 19.8519C17.2511 19.8641 17.282 19.8704 17.3131 19.8704C17.3443 19.8704 17.3752 19.8641 17.4039 19.8519C17.4326 19.8397 17.4586 19.8219 17.4803 19.7995L19.8057 17.474C19.8488 17.4305 19.8729 17.3718 19.8729 17.3105C19.8729 17.2493 19.8488 17.1906 19.8057 17.147L19.079 16.4203C19.6766 15.502 20.117 14.47 20.3508 13.3609H21.2664C21.3281 13.3609 21.3872 13.3364 21.4309 13.2928C21.4745 13.2492 21.499 13.19 21.499 13.1283V9.87269C21.499 9.81102 21.4745 9.75187 21.4309 9.70826C21.3872 9.66465 21.3281 9.64015 21.2664 9.64014H20.3508C20.117 8.52647 19.6794 7.49487 19.079 6.57344L19.8057 5.84673C19.8488 5.8032 19.8729 5.74444 19.8729 5.68322C19.8729 5.622 19.8488 5.56325 19.8057 5.51971L17.4803 3.19425C17.4586 3.17184 17.4326 3.15401 17.4039 3.14184C17.3752 3.12967 17.3443 3.1234 17.3131 3.1234C17.282 3.1234 17.2511 3.12967 17.2224 3.14184C17.1937 3.15401 17.1677 3.17184 17.146 3.19425L16.4338 3.90642C15.5108 3.30496 14.4739 2.87447 13.3599 2.64195V1.73357C13.3599 1.6719 13.3353 1.61275 13.2917 1.56914C13.2481 1.52553 13.189 1.50103 13.1273 1.50102H9.87166C9.85716 1.49966 9.84256 1.49966 9.82806 1.50102ZM11.4995 4.75667C7.77772 4.75667 4.75565 7.77874 4.75565 11.5005C4.75565 15.2223 7.77772 18.2444 11.4995 18.2444C15.2213 18.2444 18.2433 15.2223 18.2433 11.5005C18.2433 7.77874 15.2213 4.75667 11.4995 4.75667ZM11.4995 5.22176C14.9699 5.22176 17.7782 8.03009 17.7782 11.5005C17.7782 13.256 17.0556 14.8379 15.8961 15.977C15.7252 14.0506 14.3816 12.2087 12.575 11.6677C13.1839 11.3011 13.5924 10.633 13.5924 9.87269C13.5924 8.71956 12.6526 7.77977 11.4995 7.77977C10.3464 7.77977 9.40657 8.71956 9.40657 9.87269C9.40657 10.633 9.8151 11.3011 10.424 11.6677C8.61742 12.2087 7.27381 14.0506 7.10291 15.977C5.94334 14.8379 5.22074 13.256 5.22074 11.5005C5.22074 8.03009 8.02908 5.22176 11.4995 5.22176ZM11.4995 8.24486C12.4013 8.24486 13.1273 8.97091 13.1273 9.87269C13.1273 10.7745 12.4013 11.5005 11.4995 11.5005C10.5977 11.5005 9.87166 10.7745 9.87166 9.87269C9.87166 8.97091 10.5977 8.24486 11.4995 8.24486ZM11.4995 11.9656C11.5767 11.9656 11.6558 11.9672 11.732 11.9729C11.7326 11.99 11.735 12.0071 11.7393 12.0237L12.4369 14.5817C12.4432 14.6049 12.453 14.627 12.466 14.6472L11.4995 15.7954L10.533 14.6472C10.546 14.627 10.5558 14.6049 10.562 14.5817L11.2597 12.0237C11.264 12.0071 11.2664 11.99 11.2669 11.9729C11.3432 11.9672 11.4223 11.9656 11.4995 11.9656ZM10.7655 12.0528L10.1769 14.2257L9.11589 12.9757C9.11352 12.9733 9.1111 12.9708 9.10862 12.9685C9.59134 12.53 10.1498 12.1986 10.7655 12.0528ZM12.2335 12.0528C12.8477 12.1982 13.4084 12.5244 13.8904 12.9612C13.8878 12.966 13.8853 12.9708 13.8831 12.9757L12.8221 14.2257L12.2335 12.0528ZM8.7816 13.2882L11.3251 16.2968C11.3469 16.3215 11.3737 16.3413 11.4038 16.3549C11.4339 16.3685 11.4665 16.3755 11.4995 16.3755C11.5325 16.3755 11.5651 16.3685 11.5952 16.3549C11.6252 16.3413 11.6521 16.3215 11.6739 16.2968L14.2174 13.2882C14.974 14.1273 15.4528 15.2585 15.4528 16.384C14.3739 17.2582 12.9976 17.7793 11.4995 17.7793C10.0013 17.7793 8.62511 17.2582 7.5462 16.384C7.5462 15.2585 8.02497 14.1273 8.7816 13.2882Z" fill="black"/>
</mask>
<g mask="url(#mask0_330_49758)">
<path d="M9.82806 1.50102C9.77421 1.5113 9.72572 1.54027 9.69115 1.58282C9.65658 1.62536 9.63815 1.67876 9.63912 1.73357V2.64195C8.52509 2.87447 7.48819 3.30491 6.56515 3.90642L5.85297 3.19425C5.83129 3.17184 5.80532 3.15401 5.7766 3.14184C5.74789 3.12967 5.71702 3.1234 5.68583 3.1234C5.65464 3.1234 5.62378 3.12967 5.59506 3.14184C5.56635 3.15401 5.54038 3.17184 5.51869 3.19425L3.19323 5.51971C3.15019 5.56325 3.12605 5.622 3.12605 5.68322C3.12605 5.74444 3.15019 5.8032 3.19323 5.84673L3.91993 6.57344C3.31956 7.49487 2.88197 8.52647 2.6482 9.64014H1.73255C1.67087 9.64015 1.61173 9.66465 1.56812 9.70826C1.52451 9.75187 1.50001 9.81102 1.5 9.87269V13.1283C1.50001 13.19 1.52451 13.2492 1.56812 13.2928C1.61173 13.3364 1.67087 13.3609 1.73255 13.3609H2.6482C2.88194 14.47 3.32238 15.502 3.91993 16.4203L3.19323 17.147C3.15019 17.1906 3.12605 17.2493 3.12605 17.3105C3.12605 17.3718 3.15019 17.4305 3.19323 17.474L5.51869 19.7995C5.54038 19.8219 5.56635 19.8397 5.59506 19.8519C5.62378 19.8641 5.65464 19.8704 5.68583 19.8704C5.71702 19.8704 5.74789 19.8641 5.7766 19.8519C5.80532 19.8397 5.83129 19.8219 5.85297 19.7995L6.68869 18.9638C6.73163 18.9194 6.75524 18.8598 6.75438 18.798C6.75352 18.7362 6.72825 18.6773 6.68409 18.6341C6.63993 18.5909 6.58047 18.567 6.5187 18.5675C6.45693 18.5679 6.39786 18.5929 6.3544 18.6368L5.68583 19.3053L3.69465 17.3142L4.37049 16.6311C4.40671 16.5924 4.42862 16.5424 4.43259 16.4896C4.43655 16.4367 4.42233 16.3841 4.39229 16.3404C3.73404 15.3755 3.26241 14.2747 3.04062 13.0847C3.03057 13.0321 3.00267 12.9846 2.96163 12.9501C2.92058 12.9157 2.86891 12.8965 2.81534 12.8958H1.96509V10.1052H2.81534C2.86995 10.1042 2.92246 10.084 2.96365 10.0481C3.00484 10.0122 3.03209 9.96298 3.04062 9.90902C3.26241 8.71906 3.73404 7.62546 4.39229 6.66064C4.42423 6.61633 4.43955 6.56218 4.43556 6.50771C4.43157 6.45323 4.40854 6.40189 4.37049 6.36269L3.69465 5.68686L5.68583 3.68841L6.3544 4.35698C6.3927 4.39613 6.44357 4.42051 6.49808 4.42583C6.55258 4.43115 6.60721 4.41706 6.65235 4.38605C7.61586 3.72724 8.72354 3.26325 9.91527 3.04164C9.96789 3.0316 10.0154 3.0037 10.0499 2.96265C10.0843 2.9216 10.1035 2.86993 10.1042 2.81636V1.96612H12.8948V2.81636C12.8955 2.86993 12.9147 2.9216 12.9491 2.96265C12.9835 3.0037 13.0311 3.0316 13.0837 3.04164C14.2754 3.26325 15.3831 3.72724 16.3466 4.38605C16.3918 4.41706 16.4464 4.43115 16.5009 4.42583C16.5554 4.42051 16.6063 4.39613 16.6446 4.35698L17.3131 3.68841L19.3043 5.68686L18.6285 6.36269C18.5904 6.40189 18.5674 6.45323 18.5634 6.50771C18.5594 6.56218 18.5747 6.61633 18.6067 6.66064C19.2649 7.62546 19.7366 8.71906 19.9584 9.90902C19.9669 9.96298 19.9941 10.0122 20.0353 10.0481C20.0765 10.084 20.129 10.1042 20.1836 10.1052H21.0339V12.8958H20.1836C20.1301 12.8965 20.0784 12.9157 20.0373 12.9501C19.9963 12.9846 19.9684 13.0321 19.9584 13.0847C19.7366 14.2747 19.2649 15.3755 18.6067 16.3404C18.5766 16.3841 18.5624 16.4367 18.5664 16.4896C18.5704 16.5424 18.5923 16.5924 18.6285 16.6311L19.3043 17.3142L17.3131 19.3053L16.6446 18.6368C16.6063 18.5976 16.5554 18.5732 16.5009 18.5679C16.4464 18.5626 16.3918 18.5767 16.3466 18.6077C15.3831 19.2665 14.2754 19.7305 13.0837 19.9521C13.0299 19.9624 12.9814 19.9914 12.9468 20.0339C12.9122 20.0765 12.8938 20.1298 12.8948 20.1847V21.0349H10.1042V20.1847C10.1052 20.1298 10.0868 20.0765 10.0522 20.0339C10.0176 19.9914 9.96912 19.9624 9.91527 19.9521C9.28759 19.8354 8.67136 19.6623 8.10577 19.4216L7.64794 19.1963C7.62038 19.1782 7.58927 19.1662 7.55669 19.161C7.5241 19.1558 7.49079 19.1576 7.45896 19.1663C7.42713 19.175 7.39751 19.1903 7.37207 19.2113C7.34663 19.2323 7.32595 19.2585 7.3114 19.2881C7.29686 19.3177 7.28878 19.3501 7.2877 19.3831C7.28663 19.416 7.29258 19.4489 7.30516 19.4794C7.31775 19.5099 7.33668 19.5373 7.36069 19.56C7.38471 19.5826 7.41327 19.5998 7.44446 19.6106L7.90956 19.8431C7.91192 19.8456 7.91435 19.848 7.91682 19.8504C8.46092 20.082 9.05055 20.2314 9.63912 20.3518V21.2675C9.63912 21.3291 9.66363 21.3883 9.70724 21.4319C9.75085 21.4755 9.80999 21.5 9.87166 21.5H13.1273C13.189 21.5 13.2481 21.4755 13.2917 21.4319C13.3353 21.3883 13.3599 21.3291 13.3599 21.2675V20.3518C14.4739 20.1193 15.5108 19.6889 16.4338 19.0873L17.146 19.7995C17.1677 19.8219 17.1937 19.8397 17.2224 19.8519C17.2511 19.8641 17.282 19.8704 17.3131 19.8704C17.3443 19.8704 17.3752 19.8641 17.4039 19.8519C17.4326 19.8397 17.4586 19.8219 17.4803 19.7995L19.8057 17.474C19.8488 17.4305 19.8729 17.3718 19.8729 17.3105C19.8729 17.2493 19.8488 17.1906 19.8057 17.147L19.079 16.4203C19.6766 15.502 20.117 14.47 20.3508 13.3609H21.2664C21.3281 13.3609 21.3872 13.3364 21.4309 13.2928C21.4745 13.2492 21.499 13.19 21.499 13.1283V9.87269C21.499 9.81102 21.4745 9.75187 21.4309 9.70826C21.3872 9.66465 21.3281 9.64015 21.2664 9.64014H20.3508C20.117 8.52647 19.6794 7.49487 19.079 6.57344L19.8057 5.84673C19.8488 5.8032 19.8729 5.74444 19.8729 5.68322C19.8729 5.622 19.8488 5.56325 19.8057 5.51971L17.4803 3.19425C17.4586 3.17184 17.4326 3.15401 17.4039 3.14184C17.3752 3.12967 17.3443 3.1234 17.3131 3.1234C17.282 3.1234 17.2511 3.12967 17.2224 3.14184C17.1937 3.15401 17.1677 3.17184 17.146 3.19425L16.4338 3.90642C15.5108 3.30496 14.4739 2.87447 13.3599 2.64195V1.73357C13.3599 1.6719 13.3353 1.61275 13.2917 1.56914C13.2481 1.52553 13.189 1.50103 13.1273 1.50102H9.87166C9.85716 1.49966 9.84256 1.49966 9.82806 1.50102ZM11.4995 4.75667C7.77772 4.75667 4.75565 7.77874 4.75565 11.5005C4.75565 15.2223 7.77772 18.2444 11.4995 18.2444C15.2213 18.2444 18.2433 15.2223 18.2433 11.5005C18.2433 7.77874 15.2213 4.75667 11.4995 4.75667ZM11.4995 5.22176C14.9699 5.22176 17.7782 8.03009 17.7782 11.5005C17.7782 13.256 17.0556 14.8379 15.8961 15.977C15.7252 14.0506 14.3816 12.2087 12.575 11.6677C13.1839 11.3011 13.5924 10.633 13.5924 9.87269C13.5924 8.71956 12.6526 7.77977 11.4995 7.77977C10.3464 7.77977 9.40657 8.71956 9.40657 9.87269C9.40657 10.633 9.8151 11.3011 10.424 11.6677C8.61742 12.2087 7.27381 14.0506 7.10291 15.977C5.94334 14.8379 5.22074 13.256 5.22074 11.5005C5.22074 8.03009 8.02908 5.22176 11.4995 5.22176ZM11.4995 8.24486C12.4013 8.24486 13.1273 8.97091 13.1273 9.87269C13.1273 10.7745 12.4013 11.5005 11.4995 11.5005C10.5977 11.5005 9.87166 10.7745 9.87166 9.87269C9.87166 8.97091 10.5977 8.24486 11.4995 8.24486ZM11.4995 11.9656C11.5767 11.9656 11.6558 11.9672 11.732 11.9729C11.7326 11.99 11.735 12.0071 11.7393 12.0237L12.4369 14.5817C12.4432 14.6049 12.453 14.627 12.466 14.6472L11.4995 15.7954L10.533 14.6472C10.546 14.627 10.5558 14.6049 10.562 14.5817L11.2597 12.0237C11.264 12.0071 11.2664 11.99 11.2669 11.9729C11.3432 11.9672 11.4223 11.9656 11.4995 11.9656ZM10.7655 12.0528L10.1769 14.2257L9.11589 12.9757C9.11352 12.9733 9.1111 12.9708 9.10862 12.9685C9.59134 12.53 10.1498 12.1986 10.7655 12.0528ZM12.2335 12.0528C12.8477 12.1982 13.4084 12.5244 13.8904 12.9612C13.8878 12.966 13.8853 12.9708 13.8831 12.9757L12.8221 14.2257L12.2335 12.0528ZM8.7816 13.2882L11.3251 16.2968C11.3469 16.3215 11.3737 16.3413 11.4038 16.3549C11.4339 16.3685 11.4665 16.3755 11.4995 16.3755C11.5325 16.3755 11.5651 16.3685 11.5952 16.3549C11.6252 16.3413 11.6521 16.3215 11.6739 16.2968L14.2174 13.2882C14.974 14.1273 15.4528 15.2585 15.4528 16.384C14.3739 17.2582 12.9976 17.7793 11.4995 17.7793C10.0013 17.7793 8.62511 17.2582 7.5462 16.384C7.5462 15.2585 8.02497 14.1273 8.7816 13.2882Z" stroke="white" stroke-width="0.6"/>
</g>
</g>
<defs>
<clipPath id="clip0_330_49758">
<rect width="22" height="22" fill="white" transform="translate(0.5 0.5)"/>
</clipPath>
</defs>
</svg>
