<svg width="69" height="61" viewBox="0 0 69 61" fill="none" xmlns="http://www.w3.org/2000/svg">
<path d="M59.6528 0H8.46038C3.8 0 0 3.8 0 8.46038V52.3396C0 57 3.8 60.8 8.46038 60.8H11.6151C13.4075 56.7132 17.4226 49.9736 25.166 46.1736C38.717 39.5774 32.766 36.2792 28.966 33.4113C25.7396 30.9736 26.3849 23.3736 40.2943 18.7132C54.2755 14.0528 48.1811 12.117 48.1811 12.117C48.1811 12.117 54.5623 12.4038 49.6868 17.566C44.8113 22.7283 33.8415 24.3774 41.2981 30.3283C47.3208 35.2038 60.6566 38.5019 45.8868 48.4679C39.7208 52.6264 40.2943 57.5019 41.7283 60.6566H59.5811C64.2415 60.6566 68.0415 56.8566 68.0415 52.1962V8.46038C68.1132 3.8 64.3132 0 59.6528 0Z" fill="#989FAD"/>
</svg>
