<svg xmlns="http://www.w3.org/2000/svg" xmlns:android="http://schemas.android.com/apk/res/android" width="20dp" height="20dp" viewportWidth="20" viewportHeight="20">
	<path d="M2.955,17.586C2.855,17.586 2.758,17.542 2.693,17.466L1.807,16.431C1.682,16.287 1.7,16.069 1.845,15.945C1.989,15.821 2.207,15.838 2.331,15.983L2.9,16.645L3.838,15C3.931,14.835 4.141,14.776 4.307,14.873C4.472,14.966 4.531,15.176 4.434,15.342L3.251,17.41C3.196,17.507 3.096,17.573 2.986,17.583C2.976,17.586 2.965,17.586 2.955,17.586Z" fill="#ffffff"/>
	<path d="M8.966,2.76H5.862C5.673,2.76 5.518,2.605 5.518,2.415C5.518,2.225 5.673,2.07 5.862,2.07H8.966C9.156,2.07 9.311,2.225 9.311,2.415C9.311,2.605 9.156,2.76 8.966,2.76Z" fill="#fff"/>
	<path d="M17.586,20H2.414C1.083,20 0,18.917 0,17.587V4.484C0,3.153 1.083,2.07 2.414,2.07H3.793C3.983,2.07 4.138,2.225 4.138,2.415C4.138,2.605 3.983,2.76 3.793,2.76H2.414C1.462,2.76 0.69,3.532 0.69,4.484V17.587C0.69,18.538 1.462,19.31 2.414,19.31H17.586C18.538,19.31 19.31,18.538 19.31,17.587V4.484C19.31,3.532 18.538,2.76 17.586,2.76H16.207C16.017,2.76 15.862,2.605 15.862,2.415C15.862,2.225 16.017,2.07 16.207,2.07H17.586C18.917,2.07 20,3.153 20,4.484V17.587C20,18.917 18.917,20 17.586,20Z" fill="#fff"/>
	<path d="M14.138,2.76H11.034C10.845,2.76 10.689,2.605 10.689,2.415C10.689,2.225 10.845,2.07 11.034,2.07H14.138C14.327,2.07 14.483,2.225 14.483,2.415C14.483,2.605 14.327,2.76 14.138,2.76Z" fill="#fff"/>
	<path d="M19.655,6.205H0.345C0.155,6.205 0,6.05 0,5.86C0,5.671 0.155,5.516 0.345,5.516H19.655C19.845,5.516 20,5.671 20,5.86C20,6.05 19.845,6.205 19.655,6.205Z" fill="#fff"/>
	<path d="M5.862,4.138H3.793C3.603,4.138 3.448,3.982 3.448,3.793V0.345C3.448,0.155 3.603,0 3.793,0H5.862C6.052,0 6.207,0.155 6.207,0.345V3.793C6.207,3.982 6.052,4.138 5.862,4.138ZM4.138,3.448H5.517V0.69H4.138V3.448Z" fill="#fff"/>
	<path d="M16.207,4.138H14.138C13.948,4.138 13.793,3.982 13.793,3.793V0.345C13.793,0.155 13.948,0 14.138,0H16.207C16.396,0 16.552,0.155 16.552,0.345V3.793C16.552,3.982 16.396,4.138 16.207,4.138ZM14.483,3.448H15.862V0.69H14.483V3.448Z" fill="#fff"/>
	<path d="M11.035,4.138H8.966C8.776,4.138 8.621,3.982 8.621,3.793V0.345C8.621,0.155 8.776,0 8.966,0H11.035C11.224,0 11.38,0.155 11.38,0.345V3.793C11.38,3.982 11.224,4.138 11.035,4.138ZM9.311,3.448H10.69V0.69H9.311V3.448Z" fill="#fff"/>
	<path d="M11.035,17.587H8.966C8.776,17.587 8.621,17.431 8.621,17.242V15.173C8.621,14.983 8.776,14.828 8.966,14.828H11.035C11.224,14.828 11.38,14.983 11.38,15.173V17.242C11.38,17.431 11.224,17.587 11.035,17.587ZM9.311,16.897H10.69V15.518H9.311V16.897Z" fill="#fff"/>
	<path d="M7.587,17.587H5.518C5.328,17.587 5.173,17.431 5.173,17.242V15.173C5.173,14.983 5.328,14.828 5.518,14.828H7.587C7.776,14.828 7.931,14.983 7.931,15.173V17.242C7.931,17.431 7.776,17.587 7.587,17.587ZM5.863,16.897H7.242V15.518H5.863V16.897Z" fill="#fff"/>
	<path d="M17.931,13.794H15.862C15.673,13.794 15.518,13.638 15.518,13.449V11.38C15.518,11.19 15.673,11.035 15.862,11.035H17.931C18.121,11.035 18.276,11.19 18.276,11.38V13.449C18.276,13.638 18.121,13.794 17.931,13.794ZM16.207,13.104H17.587V11.725H16.207V13.104Z" fill="#fff"/>
	<path d="M11.035,13.794H8.966C8.776,13.794 8.621,13.638 8.621,13.449V11.38C8.621,11.19 8.776,11.035 8.966,11.035H11.035C11.224,11.035 11.38,11.19 11.38,11.38V13.449C11.38,13.638 11.224,13.794 11.035,13.794ZM9.311,13.104H10.69V11.725H9.311V13.104Z" fill="#fff"/>
	<path d="M7.587,13.794H5.518C5.328,13.794 5.173,13.638 5.173,13.449V11.38C5.173,11.19 5.328,11.035 5.518,11.035H7.587C7.776,11.035 7.931,11.19 7.931,11.38V13.449C7.931,13.638 7.776,13.794 7.587,13.794ZM5.863,13.104H7.242V11.725H5.863V13.104Z" fill="#fff"/>
	<path d="M4.138,13.794H2.069C1.88,13.794 1.725,13.638 1.725,13.449V11.38C1.725,11.19 1.88,11.035 2.069,11.035H4.138C4.328,11.035 4.483,11.19 4.483,11.38V13.449C4.483,13.638 4.328,13.794 4.138,13.794ZM2.414,13.104H3.794V11.725H2.414V13.104Z" fill="#fff"/>
	<path d="M17.931,10.003H15.862C15.673,10.003 15.518,9.847 15.518,9.658V7.589C15.518,7.399 15.673,7.244 15.862,7.244H17.931C18.121,7.244 18.276,7.399 18.276,7.589V9.658C18.276,9.847 18.121,10.003 17.931,10.003ZM16.207,9.313H17.587V7.934H16.207V9.313Z" fill="#fff"/>
	<path d="M14.483,10.003H12.414C12.224,10.003 12.069,9.847 12.069,9.658V7.589C12.069,7.399 12.224,7.244 12.414,7.244H14.483C14.673,7.244 14.828,7.399 14.828,7.589V9.658C14.828,9.847 14.673,10.003 14.483,10.003ZM12.759,9.313H14.138V7.934H12.759V9.313Z" fill="#fff"/>
	<path d="M11.035,10.003H8.966C8.776,10.003 8.621,9.847 8.621,9.658V7.589C8.621,7.399 8.776,7.244 8.966,7.244H11.035C11.224,7.244 11.38,7.399 11.38,7.589V9.658C11.38,9.847 11.224,10.003 11.035,10.003ZM9.311,9.313H10.69V7.934H9.311V9.313Z" fill="#fff"/>
	<path d="M4.137,10.003H2.068C1.879,10.003 1.724,9.847 1.724,9.658V7.589C1.724,7.399 1.879,7.244 2.068,7.244H4.137C4.327,7.244 4.482,7.399 4.482,7.589V9.658C4.482,9.847 4.327,10.003 4.137,10.003ZM2.413,9.313H3.793V7.934H2.413V9.313Z" fill="#fff"/>
	<path d="M13.3,13.792C13.2,13.792 13.103,13.747 13.038,13.671L12.151,12.636C12.027,12.492 12.044,12.274 12.189,12.15C12.334,12.026 12.551,12.043 12.675,12.188L13.244,12.85L14.182,11.205C14.276,11.04 14.486,10.981 14.651,11.078C14.817,11.171 14.875,11.381 14.779,11.547L13.596,13.616C13.541,13.712 13.441,13.778 13.331,13.788C13.32,13.792 13.31,13.792 13.3,13.792Z" fill="#fff"/>
	<path d="M6.403,9.999C6.303,9.999 6.207,9.954 6.141,9.878L5.255,8.843C5.131,8.699 5.148,8.481 5.293,8.357C5.438,8.233 5.655,8.25 5.779,8.395L6.348,9.057L7.286,7.412C7.379,7.247 7.589,7.188 7.755,7.285C7.92,7.378 7.979,7.588 7.882,7.754L6.7,9.823C6.644,9.919 6.544,9.985 6.434,9.995C6.424,9.999 6.413,9.999 6.403,9.999Z" fill="#fff"/>
</svg>
