<svg width="20" height="20" viewBox="0 0 20 20" fill="none" xmlns="http://www.w3.org/2000/svg">
<path d="M2.95486 17.5864C2.85486 17.5864 2.75831 17.5416 2.6928 17.4657L1.80659 16.4313C1.68245 16.2865 1.69969 16.0693 1.84452 15.9451C1.98935 15.821 2.20659 15.8382 2.33073 15.9831L2.89969 16.6451L3.83762 15.0004C3.93073 14.8349 4.14107 14.7763 4.30659 14.8728C4.47211 14.9659 4.53073 15.1762 4.43417 15.3417L3.25142 17.4105C3.19624 17.5071 3.09624 17.5726 2.9859 17.5829C2.97555 17.5864 2.96521 17.5864 2.95486 17.5864Z" fill="#4F4F4F"/>
<path d="M8.96585 2.75992H5.86241C5.67275 2.75992 5.51758 2.60476 5.51758 2.41512C5.51758 2.22547 5.67275 2.07031 5.86241 2.07031H8.96585C9.15551 2.07031 9.31068 2.22547 9.31068 2.41512C9.31068 2.60476 9.15551 2.75992 8.96585 2.75992Z" fill="#4F4F4F"/>
<path d="M17.5862 20.0001H2.41379C1.08276 20.0001 0 18.9174 0 17.5865V4.48393C0 3.15299 1.08276 2.07031 2.41379 2.07031H3.7931C3.98276 2.07031 4.13793 2.22547 4.13793 2.41512C4.13793 2.60476 3.98276 2.75992 3.7931 2.75992H2.41379C1.46207 2.75992 0.689655 3.53228 0.689655 4.48393V17.5865C0.689655 18.5381 1.46207 19.3105 2.41379 19.3105H17.5862C18.5379 19.3105 19.3103 18.5381 19.3103 17.5865V4.48393C19.3103 3.53228 18.5379 2.75992 17.5862 2.75992H16.2069C16.0172 2.75992 15.8621 2.60476 15.8621 2.41512C15.8621 2.22547 16.0172 2.07031 16.2069 2.07031H17.5862C18.9172 2.07031 20 3.15299 20 4.48393V17.5865C20 18.9174 18.9172 20.0001 17.5862 20.0001Z" fill="#4F4F4F"/>
<path d="M14.1377 2.75992H11.0343C10.8446 2.75992 10.6895 2.60476 10.6895 2.41512C10.6895 2.22547 10.8446 2.07031 11.0343 2.07031H14.1377C14.3274 2.07031 14.4826 2.22547 14.4826 2.41512C14.4826 2.60476 14.3274 2.75992 14.1377 2.75992Z" fill="#4F4F4F"/>
<path d="M19.6552 6.20523H0.344828C0.155172 6.20523 0 6.05007 0 5.86043C0 5.67079 0.155172 5.51562 0.344828 5.51562H19.6552C19.8448 5.51562 20 5.67079 20 5.86043C20 6.05007 19.8448 6.20523 19.6552 6.20523Z" fill="#4F4F4F"/>
<path d="M5.86204 4.13764H3.79307C3.60341 4.13764 3.44824 3.98248 3.44824 3.79283V0.344803C3.44824 0.155161 3.60341 0 3.79307 0H5.86204C6.05169 0 6.20686 0.155161 6.20686 0.344803V3.79283C6.20686 3.98248 6.05169 4.13764 5.86204 4.13764ZM4.1379 3.44803H5.51721V0.689606H4.1379V3.44803Z" fill="#4F4F4F"/>
<path d="M16.2068 4.13764H14.1378C13.9481 4.13764 13.793 3.98248 13.793 3.79283V0.344803C13.793 0.155161 13.9481 0 14.1378 0H16.2068C16.3964 0 16.5516 0.155161 16.5516 0.344803V3.79283C16.5516 3.98248 16.3964 4.13764 16.2068 4.13764ZM14.4826 3.44803H15.8619V0.689606H14.4826V3.44803Z" fill="#4F4F4F"/>
<path d="M11.0349 4.13764H8.96592C8.77627 4.13764 8.62109 3.98248 8.62109 3.79283V0.344803C8.62109 0.155161 8.77627 0 8.96592 0H11.0349C11.2245 0 11.3797 0.155161 11.3797 0.344803V3.79283C11.3797 3.98248 11.2245 4.13764 11.0349 4.13764ZM9.31075 3.44803H10.6901V0.689606H9.31075V3.44803Z" fill="#4F4F4F"/>
<path d="M11.0349 17.5866H8.96592C8.77627 17.5866 8.62109 17.4314 8.62109 17.2417V15.1729C8.62109 14.9833 8.77627 14.8281 8.96592 14.8281H11.0349C11.2245 14.8281 11.3797 14.9833 11.3797 15.1729V17.2417C11.3797 17.4314 11.2245 17.5866 11.0349 17.5866ZM9.31075 16.8969H10.6901V15.5177H9.31075V16.8969Z" fill="#4F4F4F"/>
<path d="M7.58664 17.5866H5.51768C5.32802 17.5866 5.17285 17.4314 5.17285 17.2417V15.1729C5.17285 14.9833 5.32802 14.8281 5.51768 14.8281H7.58664C7.7763 14.8281 7.93147 14.9833 7.93147 15.1729V17.2417C7.93147 17.4314 7.7763 17.5866 7.58664 17.5866ZM5.86251 16.8969H7.24182V15.5177H5.86251V16.8969Z" fill="#4F4F4F"/>
<path d="M17.9314 13.7936H15.8624C15.6728 13.7936 15.5176 13.6384 15.5176 13.4488V11.38C15.5176 11.1903 15.6728 11.0352 15.8624 11.0352H17.9314C18.121 11.0352 18.2762 11.1903 18.2762 11.38V13.4488C18.2762 13.6384 18.121 13.7936 17.9314 13.7936ZM16.2072 13.104H17.5865V11.7248H16.2072V13.104Z" fill="#4F4F4F"/>
<path d="M11.0349 13.7936H8.96592C8.77627 13.7936 8.62109 13.6384 8.62109 13.4488V11.38C8.62109 11.1903 8.77627 11.0352 8.96592 11.0352H11.0349C11.2245 11.0352 11.3797 11.1903 11.3797 11.38V13.4488C11.3797 13.6384 11.2245 13.7936 11.0349 13.7936ZM9.31075 13.104H10.6901V11.7248H9.31075V13.104Z" fill="#4F4F4F"/>
<path d="M7.58664 13.7936H5.51768C5.32802 13.7936 5.17285 13.6384 5.17285 13.4488V11.38C5.17285 11.1903 5.32802 11.0352 5.51768 11.0352H7.58664C7.7763 11.0352 7.93147 11.1903 7.93147 11.38V13.4488C7.93147 13.6384 7.7763 13.7936 7.58664 13.7936ZM5.86251 13.104H7.24182V11.7248H5.86251V13.104Z" fill="#4F4F4F"/>
<path d="M4.1384 13.7936H2.06944C1.87978 13.7936 1.72461 13.6384 1.72461 13.4488V11.38C1.72461 11.1903 1.87978 11.0352 2.06944 11.0352H4.1384C4.32806 11.0352 4.48323 11.1903 4.48323 11.38V13.4488C4.48323 13.6384 4.32806 13.7936 4.1384 13.7936ZM2.41426 13.104H3.79358V11.7248H2.41426V13.104Z" fill="#4F4F4F"/>
<path d="M17.9314 10.0026H15.8624C15.6728 10.0026 15.5176 9.8474 15.5176 9.65776V7.58894C15.5176 7.3993 15.6728 7.24414 15.8624 7.24414H17.9314C18.121 7.24414 18.2762 7.3993 18.2762 7.58894V9.65776C18.2762 9.8474 18.121 10.0026 17.9314 10.0026ZM16.2072 9.31296H17.5865V7.93375H16.2072V9.31296Z" fill="#4F4F4F"/>
<path d="M14.4831 10.0026H12.4142C12.2245 10.0026 12.0693 9.8474 12.0693 9.65776V7.58894C12.0693 7.3993 12.2245 7.24414 12.4142 7.24414H14.4831C14.6728 7.24414 14.828 7.3993 14.828 7.58894V9.65776C14.828 9.8474 14.6728 10.0026 14.4831 10.0026ZM12.759 9.31296H14.1383V7.93375H12.759V9.31296Z" fill="#4F4F4F"/>
<path d="M11.0349 10.0026H8.96592C8.77627 10.0026 8.62109 9.8474 8.62109 9.65776V7.58894C8.62109 7.3993 8.77627 7.24414 8.96592 7.24414H11.0349C11.2245 7.24414 11.3797 7.3993 11.3797 7.58894V9.65776C11.3797 9.8474 11.2245 10.0026 11.0349 10.0026ZM9.31075 9.31296H10.6901V7.93375H9.31075V9.31296Z" fill="#4F4F4F"/>
<path d="M4.13743 10.0026H2.06846C1.87881 10.0026 1.72363 9.8474 1.72363 9.65776V7.58894C1.72363 7.3993 1.87881 7.24414 2.06846 7.24414H4.13743C4.32708 7.24414 4.48225 7.3993 4.48225 7.58894V9.65776C4.48225 9.8474 4.32708 10.0026 4.13743 10.0026ZM2.41329 9.31296H3.7926V7.93375H2.41329V9.31296Z" fill="#4F4F4F"/>
<path d="M13.2996 13.7915C13.1996 13.7915 13.103 13.7467 13.0375 13.6708L12.1513 12.6364C12.0272 12.4916 12.0444 12.2743 12.1892 12.1502C12.3341 12.0261 12.5513 12.0433 12.6755 12.1881L13.2444 12.8502L14.1823 11.2055C14.2755 11.0399 14.4858 10.9813 14.6513 11.0779C14.8168 11.171 14.8755 11.3813 14.7789 11.5468L13.5961 13.6156C13.541 13.7122 13.441 13.7777 13.3306 13.788C13.3203 13.7915 13.3099 13.7915 13.2996 13.7915Z" fill="#4F4F4F"/>
<path d="M6.40311 9.99851C6.30311 9.99851 6.20655 9.95368 6.14104 9.87783L5.25483 8.84342C5.13069 8.6986 5.14793 8.48137 5.29276 8.35724C5.43759 8.23311 5.65483 8.25036 5.77897 8.39517L6.34793 9.05719L7.28586 7.41248C7.37897 7.24698 7.58931 7.18836 7.75483 7.28491C7.92035 7.378 7.97897 7.58833 7.88242 7.75384L6.69966 9.82266C6.64449 9.9192 6.54449 9.98471 6.43414 9.99506C6.4238 9.99851 6.41345 9.99851 6.40311 9.99851Z" fill="#4F4F4F"/>
</svg>
