<svg width="193" height="236" viewBox="0 0 193 236" fill="none" xmlns="http://www.w3.org/2000/svg">
<g filter="url(#filter0_d_1720_2284)">
<path d="M19.3962 174.712H38.3013V159.113H42.6975V195.161H38.3013V178.673H19.3962V195.161H15V159.113H19.3962V174.712Z" fill="#DFCC83"/>
<path d="M48.2251 195.159L62.9234 159.111H66.7264L81.4247 195.159H76.6516L72.3425 184.301H57.2555L52.9465 195.159H48.2273H48.2251ZM64.784 164.715C63.1743 169.202 61.6367 173.279 60.1724 176.946L58.8233 180.341H70.7824L69.4149 176.949C67.9345 173.216 66.427 169.138 64.8916 164.715H64.784Z" fill="#DFCC83"/>
<path d="M96.9307 195.159H92.5344V163.072H80.4795V159.111H108.986V163.072H96.9307V195.159Z" fill="#DFCC83"/>
<path d="M114.648 195.159V159.111H119.045V195.159H114.648Z" fill="#DFCC83"/>
<path d="M147.335 195.159H145.312L136.224 173.632C134.965 170.669 133.706 167.445 132.448 163.96H132.232C132.484 168.972 132.61 173.56 132.61 177.727V195.158H128.214V159.11H134.551L143.047 179.505C144.018 181.84 145.087 184.651 146.256 187.938H146.391C147.685 184.292 148.754 181.481 149.601 179.505L158.096 159.11H164.434V195.158H160.037V177.727C160.037 173.651 160.163 169.061 160.415 163.96H160.2C158.869 167.642 157.61 170.867 156.424 173.632L147.335 195.159Z" fill="#DFCC83"/>
<path d="M173.604 195.159V159.111H178V195.159H173.604Z" fill="#DFCC83"/>
<path d="M25.7449 208.386V213.333H24.2881V201.385H27.3869C27.9102 201.385 28.3549 201.404 28.722 201.443C29.0881 201.482 29.423 201.543 29.7266 201.626C30.56 201.852 31.1974 202.238 31.6378 202.782C32.0782 203.326 32.2989 204.007 32.2989 204.823C32.2989 205.304 32.2214 205.737 32.0663 206.118C31.9113 206.498 31.6938 206.829 31.4138 207.109C31.1339 207.389 30.799 207.618 30.4082 207.797C30.0173 207.975 29.5845 208.106 29.1075 208.189V208.225L32.6467 213.333H31.1899L27.5075 208.386H25.747H25.7449ZM25.7449 202.698V207.074H27.1834C27.6302 207.074 28.0114 207.059 28.3279 207.029C28.6434 206.999 28.9266 206.946 29.1775 206.868C29.6835 206.714 30.0744 206.466 30.3479 206.127C30.6224 205.789 30.7592 205.344 30.7592 204.797C30.7527 204.285 30.6224 203.873 30.3662 203.56C30.1099 203.247 29.7557 203.023 29.3024 202.885C29.0881 202.82 28.8318 202.772 28.5336 202.742C28.2353 202.712 27.8574 202.697 27.3977 202.697H25.7438L25.7449 202.698Z" fill="#DFCC83"/>
<path d="M45.7322 212.02H51.8641V213.332H44.2754V201.384H51.5336V202.696H45.7322V206.554H50.8897V207.866H45.7322V212.018V212.02Z" fill="#DFCC83"/>
<path d="M67.8104 213.333H66.3536V202.698H62.3579V201.386H71.8061V202.698H67.8104V213.333Z" fill="#DFCC83"/>
<path d="M84.2937 208.386V213.333H82.8369V201.385H85.9357C86.459 201.385 86.9037 201.404 87.2708 201.443C87.6369 201.482 87.9718 201.543 88.2754 201.626C89.1088 201.852 89.7462 202.238 90.1866 202.782C90.627 203.326 90.8477 204.007 90.8477 204.823C90.8477 205.304 90.7702 205.737 90.6151 206.118C90.4601 206.498 90.2426 206.829 89.9626 207.109C89.6827 207.389 89.3478 207.618 88.957 207.797C88.5672 207.975 88.1333 208.106 87.6563 208.189V208.225L91.1955 213.333H89.7387L86.0563 208.386H84.2959H84.2937ZM84.2937 202.698V207.074H85.7322C86.179 207.074 86.5602 207.059 86.8768 207.029C87.1922 206.999 87.4754 206.946 87.7263 206.868C88.2324 206.714 88.6232 206.466 88.8967 206.127C89.1713 205.789 89.308 205.344 89.308 204.797C89.3015 204.285 89.1713 203.873 88.915 203.56C88.6587 203.247 88.3045 203.023 87.8512 202.885C87.6369 202.82 87.3807 202.772 87.0824 202.742C86.7842 202.712 86.4062 202.697 85.9465 202.697H84.2926L84.2937 202.698Z" fill="#DFCC83"/>
<path d="M104.281 212.02H110.412V213.332H102.824V201.384H110.082V202.696H104.281V206.554H109.438V207.866H104.281V212.018V212.02Z" fill="#DFCC83"/>
<path d="M120.862 213.333L125.733 201.385H126.994L131.865 213.333H130.283L128.855 209.734H123.855L122.427 213.333H120.863H120.862ZM126.35 203.243C125.817 204.73 125.307 206.081 124.822 207.297L124.375 208.422H128.339L127.885 207.298C127.394 206.061 126.895 204.709 126.385 203.243H126.35Z" fill="#DFCC83"/>
<path d="M146.158 213.333H144.701V202.698H140.706V201.386H150.154V202.698H146.158V213.333Z" fill="#DFCC83"/>
<path d="M162.347 204.546C162.347 204.898 162.418 205.187 162.561 205.416C162.703 205.646 162.895 205.835 163.136 205.983C163.377 206.132 163.656 206.254 163.974 206.349C164.291 206.445 164.623 206.534 164.967 206.617C165.43 206.73 165.887 206.855 166.336 206.992C166.785 207.129 167.184 207.318 167.534 207.559C167.885 207.8 168.168 208.114 168.386 208.501C168.602 208.889 168.711 209.385 168.711 209.992C168.711 210.599 168.594 211.145 168.359 211.595C168.124 212.044 167.799 212.413 167.385 212.702C166.97 212.991 166.479 213.205 165.914 213.345C165.347 213.485 164.728 213.555 164.054 213.555C163.744 213.555 163.427 213.535 163.103 213.497C162.777 213.458 162.468 213.406 162.173 213.341C161.878 213.275 161.611 213.201 161.373 213.117C161.135 213.034 160.947 212.95 160.81 212.867V211.537C161.024 211.644 161.266 211.742 161.534 211.831C161.802 211.921 162.08 211.997 162.365 212.059C162.65 212.122 162.94 212.171 163.232 212.207C163.523 212.242 163.798 212.261 164.054 212.261C164.471 212.261 164.869 212.225 165.247 212.153C165.626 212.082 165.958 211.963 166.244 211.796C166.53 211.629 166.757 211.401 166.924 211.113C167.091 210.825 167.175 210.462 167.175 210.028C167.175 209.671 167.101 209.376 166.955 209.143C166.809 208.911 166.614 208.72 166.369 208.568C166.125 208.416 165.843 208.293 165.525 208.197C165.206 208.102 164.872 208.012 164.519 207.929C164.054 207.822 163.601 207.701 163.156 207.568C162.713 207.433 162.316 207.248 161.968 207.009C161.619 206.772 161.339 206.465 161.127 206.09C160.916 205.714 160.809 205.236 160.809 204.652C160.809 204.068 160.92 203.522 161.143 203.084C161.365 202.647 161.666 202.285 162.045 201.999C162.425 201.713 162.862 201.502 163.357 201.366C163.851 201.229 164.378 201.16 164.938 201.16C165.576 201.16 166.17 201.222 166.721 201.343C167.273 201.466 167.778 201.625 168.236 201.821V203.169C167.742 202.961 167.231 202.792 166.703 202.661C166.175 202.529 165.61 202.462 165.009 202.455C164.556 202.455 164.163 202.505 163.829 202.603C163.496 202.701 163.219 202.84 162.998 203.022C162.777 203.204 162.614 203.424 162.506 203.683C162.398 203.942 162.346 204.229 162.346 204.544L162.347 204.546Z" fill="#DFCC83"/>
<path d="M96.5019 8C129.38 8 156.127 34.812 156.127 67.7691V131.879C156.127 134.584 154.237 136.472 151.53 136.472H113.329V134.329H151.53C153.207 134.329 154.188 133.525 154.188 131.77V67.7691C154.188 37.159 128.598 10.0007 96.5019 10.0007C64.4059 10.0007 38.8155 37.159 38.8155 67.7691V131.77C38.8155 133.526 39.7964 134.329 41.474 134.329H79.6749V136.472H41.475C38.7682 136.472 36.8774 134.584 36.8774 131.879V67.7691C36.8764 34.812 63.6242 8 96.5019 8Z" fill="#DFCC83"/>
<path d="M86.303 144.603H36.874V140.217L81.7872 140.341V98.0512C81.7872 92.1288 80.3003 86.3936 60.4972 77.6918C53.5438 74.637 49.2843 71.8243 46.6765 69.545V129.517H42.2856V68.8319C42.2856 67.0109 42.3761 65.1759 42.5559 63.3753C42.5559 63.3753 42.9241 59.4643 44.1925 56.0352C44.7836 59.6794 46.8778 63.0644 46.8778 63.0644C47.1169 63.6119 49.3769 68.0144 62.2641 73.6765C80.2357 81.5727 86.3019 87.6919 86.3019 97.9253V144.602L86.303 144.603Z" fill="#DFCC83"/>
<path d="M106.217 97.9253C106.217 87.6908 112.444 81.5716 130.415 73.6765C143.302 68.0144 145.563 63.6119 145.801 63.0644C145.801 63.0644 147.896 59.6805 148.487 56.0352C149.756 59.4632 150.123 63.3753 150.123 63.3753C150.303 65.1759 150.394 67.0119 150.394 68.8319V129.517H146.003V69.545C143.395 71.8232 139.135 74.637 132.182 77.6918C112.379 86.3925 110.767 92.003 110.767 97.9264V140.217H156.124V144.603H106.216V97.9264L106.217 97.9253Z" fill="#DFCC83"/>
<path d="M102.265 56.0349C102.265 56.0349 99.753 59.379 96.7038 59.379C93.6545 59.379 91.2642 56.0349 91.2642 56.0349C91.2642 56.0349 93.6297 52.6908 96.7038 52.6908C99.3869 52.6908 102.265 56.0349 102.265 56.0349Z" fill="#DFCC83"/>
<path d="M82.6377 74.7448C82.6377 74.7448 78.4881 75.2902 76.3551 73.1142C74.2049 70.9199 74.9424 66.8917 74.9424 66.8917C74.9424 66.8917 78.9898 66.242 81.1389 68.4363C83.0157 70.352 82.6367 74.7459 82.6367 74.7459L82.6377 74.7448Z" fill="#DFCC83"/>
<path d="M59.3334 61.3205C59.3334 61.3205 54.7734 61.1559 52.8752 58.4303C50.9619 55.6832 52.4843 51.4861 52.4843 51.4861C52.4843 51.4861 56.9527 51.5194 58.8661 54.2666C60.536 56.6652 59.3334 61.3205 59.3334 61.3205Z" fill="#DFCC83"/>
<path d="M109.972 74.7448C109.972 74.7448 114.121 75.2902 116.254 73.1142C118.405 70.9199 117.667 66.8917 117.667 66.8917C117.667 66.8917 113.62 66.242 111.47 68.4363C109.594 70.352 109.973 74.7459 109.973 74.7459L109.972 74.7448Z" fill="#DFCC83"/>
<path d="M134.168 61.3205C134.168 61.3205 138.728 61.1559 140.627 58.4303C142.54 55.6832 141.018 51.4861 141.018 51.4861C141.018 51.4861 136.549 51.5194 134.636 54.2666C132.966 56.6652 134.168 61.3205 134.168 61.3205Z" fill="#DFCC83"/>
<path d="M117.452 40.3065C117.452 40.3065 122.235 40.1344 124.226 37.2754C126.233 34.3939 124.636 29.9913 124.636 29.9913C124.636 29.9913 119.949 30.0258 117.942 32.9084C116.19 35.4243 117.452 40.3076 117.452 40.3076V40.3065Z" fill="#DFCC83"/>
<path d="M75.4647 40.3065C75.4647 40.3065 70.6819 40.1344 68.6911 37.2754C66.6841 34.3939 68.2808 29.9913 68.2808 29.9913C68.2808 29.9913 72.9678 30.0258 74.9748 32.9084C76.7266 35.4243 75.4647 40.3076 75.4647 40.3076V40.3065Z" fill="#DFCC83"/>
<path d="M96.459 35.1492C96.459 35.1492 91.6816 31.5673 91.6816 27.2208C91.6816 22.8742 96.459 19.4666 96.459 19.4666C96.459 19.4666 101.236 22.8397 101.236 27.2208C101.236 31.0457 96.459 35.1492 96.459 35.1492Z" fill="#DFCC83"/>
<path d="M107.99 113.568H84.4077V118.063H107.99V113.568Z" fill="#DFCC83"/>
<path d="M90.369 73.5988C84.8508 80.7764 81.8037 89.2534 81.8037 100.228H86.3033C86.3033 90.6076 88.8412 83.145 93.5884 76.7622C92.6204 75.7189 91.5513 74.6637 90.3701 73.5988H90.369Z" fill="#DFCC83"/>
<path d="M135.559 29.6589L135.442 29.6556C135.421 30.1967 134.702 43.0106 116.419 53.2795C106.96 58.592 99.0966 63.9153 93.2661 70.1819C94.4279 71.2263 95.4971 72.2675 96.4747 73.3001C101.905 67.425 109.382 62.3879 118.624 57.1969C133.043 49.0975 137.706 39.2609 139.215 33.8441C138.066 32.3877 136.85 30.9883 135.559 29.6589Z" fill="#DFCC83"/>
<path d="M77.8675 55.2727C57.9353 43.2203 57.4475 31.1217 57.4453 30.9937H57.3377C56.0736 32.3878 54.8892 33.8517 53.7759 35.3715C55.3845 40.4872 60.1221 49.3794 74.0215 58.1812C75.2844 57.0959 76.583 56.131 77.8675 55.2727Z" fill="#DFCC83"/>
<path d="M82.3686 57.8284C81.0098 58.6362 79.5982 59.5816 78.2114 60.6723C78.6884 60.9391 79.1708 61.2047 79.6661 61.4704C104.326 74.6726 106.243 89.7743 106.243 94.0887V110.591H110.742V94.0887C110.742 89.1795 108.673 72.146 82.3686 57.8294V57.8284Z" fill="#DFCC83"/>
<path d="M121.001 60.9031C120.911 60.9537 120.824 61.0042 120.734 61.0548C124.577 64.9658 126.397 69.3425 126.397 75.3681H130.896C130.896 68.3378 128.656 63.1082 124.635 58.6938C123.497 59.4414 122.29 60.1792 121.001 60.9031Z" fill="#DFCC83"/>
<path d="M117.132 57.9312C117.681 57.616 118.235 57.3009 118.795 56.9857C119.663 56.4985 120.479 56.0037 121.271 55.5057C115.571 50.7675 107.607 46.8028 98.0758 42.0658C80.6491 33.4048 79.2235 18.6032 79.1083 16.4735C77.6289 16.9994 76.1797 17.5878 74.7627 18.2364C75.426 23.3822 78.809 37.5105 96.071 46.0907C105.266 50.6611 112.219 54.2257 117.131 57.9312H117.132Z" fill="#DFCC83"/>
<path d="M71.1309 61.6126C71.2213 61.6632 71.3085 61.7137 71.3979 61.7643C67.5551 65.6752 65.7355 70.0519 65.7355 76.0776H61.2358C61.2358 69.0473 63.4765 63.8176 67.497 59.4033C68.6351 60.1508 69.8421 60.8887 71.1309 61.6126Z" fill="#DFCC83"/>
<path d="M94.5369 45.1698C95.3423 45.57 96.1326 45.9636 96.9154 46.3541C113.444 37.7039 117.214 22.9335 117.866 17.8748C116.449 17.2262 115.123 16.8261 113.643 16.3001C113.528 18.4309 111.482 34.1135 94.0567 42.7744C93.3622 43.1197 92.6807 43.4585 92.0034 43.7952C92.811 44.2663 93.6476 44.7277 94.5369 45.1698Z" fill="#DFCC83"/>
<path d="M87.3028 46.1568C80.7725 49.4815 75.2564 52.5621 70.9668 56.1289C71.7582 56.6269 72.2998 56.9345 73.0825 57.5498C73.7103 58.0445 74.2756 58.4436 74.8247 58.7588C78.9711 55.6319 84.7025 52.5169 91.9165 48.8749C90.2487 48.0165 88.7144 47.1065 87.3028 46.1578V46.1568Z" fill="#DFCC83"/>
</g>
<defs>
<filter id="filter0_d_1720_2284" x="0" y="0" width="193" height="235.555" filterUnits="userSpaceOnUse" color-interpolation-filters="sRGB">
<feFlood flood-opacity="0" result="BackgroundImageFix"/>
<feColorMatrix in="SourceAlpha" type="matrix" values="0 0 0 0 0 0 0 0 0 0 0 0 0 0 0 0 0 0 127 0" result="hardAlpha"/>
<feOffset dy="7"/>
<feGaussianBlur stdDeviation="7.5"/>
<feComposite in2="hardAlpha" operator="out"/>
<feColorMatrix type="matrix" values="0 0 0 0 0 0 0 0 0 0 0 0 0 0 0 0 0 0 0.3 0"/>
<feBlend mode="normal" in2="BackgroundImageFix" result="effect1_dropShadow_1720_2284"/>
<feBlend mode="normal" in="SourceGraphic" in2="effect1_dropShadow_1720_2284" result="shape"/>
</filter>
</defs>
</svg>
