<svg width="76" height="61" viewBox="0 0 76 61" fill="none" xmlns="http://www.w3.org/2000/svg">
<path d="M52.1516 16.0268C51.5104 14.8519 50.5647 13.8713 49.4138 13.1881C48.2629 12.5049 46.9492 12.1442 45.6108 12.144C44.2877 12.0808 42.9727 12.3828 41.8098 13.0171C40.647 13.6514 39.6811 14.5935 39.0179 15.7401L33.5715 24.6783C32.9523 23.5622 32.0568 22.6237 30.9708 21.953C29.8849 21.2822 28.6448 20.9016 27.3695 20.8477C26.0483 20.796 24.7377 21.103 23.5769 21.7362C22.4162 22.3693 21.4485 23.305 20.7766 24.4438L0.190028 58.0599C0.0694189 58.258 0.00387582 58.4847 0.000166672 58.7166C-0.00354248 58.9485 0.0547167 59.1772 0.168928 59.379C0.283139 59.5809 0.449163 59.7486 0.649855 59.8649C0.850548 59.9811 1.07863 60.0417 1.31056 60.0403H74.2756C74.5021 60.041 74.7248 59.9825 74.9219 59.8708C75.1189 59.7591 75.2834 59.598 75.3991 59.4033C75.5149 59.2086 75.5779 58.9871 75.5819 58.7607C75.586 58.5342 75.5309 58.3107 75.4222 58.112L52.1516 16.0268ZM41.3632 17.0431C41.8111 16.3248 42.4383 15.7357 43.1831 15.3336C43.9279 14.9315 44.7646 14.7303 45.6108 14.7499C46.4789 14.771 47.3255 15.0238 48.0631 15.4819C48.8007 15.9401 49.4026 16.587 49.8063 17.3558L57.1288 30.5937L52.8031 40.2355L46.9137 29.8119C46.8046 29.6224 46.6496 29.4634 46.4628 29.3495C46.2761 29.2357 46.0638 29.1707 45.8453 29.1605C45.6261 29.1583 45.4096 29.2093 45.2144 29.3091C45.0193 29.409 44.8512 29.5547 44.7248 29.7338L37.2198 40.6525L32.008 32.3657L41.3632 17.0431ZM22.9395 25.8249C23.39 25.0916 24.023 24.4877 24.7766 24.0721C25.5302 23.6565 26.3787 23.4434 27.2392 23.4536C28.1073 23.4747 28.9539 23.7275 29.6916 24.1856C30.4292 24.6438 31.031 25.2907 31.4347 26.0595L32.1122 27.2842L23.8776 40.7828L18.5095 33.0693L22.9395 25.8249ZM16.9459 35.4928L22.3923 43.102L14.5746 55.9491L13.6886 57.3823H3.62981L16.9459 35.4928ZM16.7375 57.4344L23.5649 46.2291L30.4445 34.9456L36.0211 43.8056C36.1364 43.9854 36.2942 44.1342 36.4805 44.2387C36.6668 44.3432 36.8759 44.4003 37.0895 44.405C37.3039 44.4009 37.5145 44.347 37.7044 44.2475C37.8944 44.148 38.0586 44.0056 38.184 43.8317L45.6108 33.0172L51.7607 43.7535C51.8744 43.9504 52.0376 44.1142 52.2342 44.2284C52.4308 44.3427 52.6539 44.4036 52.8812 44.405C53.1193 44.3935 53.3496 44.317 53.5471 44.1838C53.7447 44.0505 53.902 43.8656 54.0018 43.6492L58.6403 33.356L71.9564 57.4344H16.7375Z" fill="#989FAD"/>
<path d="M15.7206 6.46256C15.5686 7.4346 15.61 8.42708 15.8422 9.38312C16.0745 10.3392 16.4931 11.24 17.0741 12.034C17.655 12.828 18.387 13.4995 19.2279 14.0102C20.0688 14.5209 21.0023 14.8606 21.9747 15.0099C22.3564 15.0386 22.7397 15.0386 23.1213 15.0099C24.5625 15.0159 25.9749 14.6069 27.1898 13.8317C28.4048 13.0565 29.3708 11.9478 29.9725 10.6382C30.5741 9.32867 30.786 7.87356 30.5828 6.44678C30.3796 5.02 29.7699 3.6819 28.8265 2.59237C27.8832 1.50285 26.6461 0.707991 25.263 0.302771C23.88 -0.102448 22.4095 -0.100887 21.0273 0.307268C19.6452 0.715424 18.4097 1.51291 17.4687 2.60443C16.5276 3.69596 15.9208 5.03535 15.7206 6.46256ZM27.9422 8.36486C27.7432 9.64589 27.0445 10.7958 25.9992 11.5626C24.9539 12.3295 23.6473 12.6508 22.3656 12.4561C21.17 12.2417 20.0966 11.5906 19.3539 10.6294C18.6112 9.66819 18.2521 8.46532 18.3462 7.25424C18.4404 6.04316 18.9811 4.91025 19.8635 4.07538C20.7458 3.2405 21.9069 2.76321 23.1213 2.73613H23.877C24.5139 2.83457 25.1251 3.05769 25.6756 3.39272C26.2261 3.72776 26.7051 4.16811 27.0852 4.68856C27.4652 5.20901 27.7389 5.79933 27.8904 6.4257C28.0419 7.05207 28.0684 7.70218 27.9683 8.3388L27.9422 8.36486Z" fill="#989FAD"/>
</svg>
