<svg width="27" height="20" viewBox="0 0 27 20" fill="none" xmlns="http://www.w3.org/2000/svg">
<path d="M24.5459 20H8.79574V10.2211H7.3033C7.04505 10.2211 6.80783 10.0468 6.71774 9.78531C6.62765 9.52381 6.69672 9.2268 6.89191 9.04278L6.89491 9.03955L16.6693 0L26.4467 9.04278C26.6419 9.2268 26.711 9.52381 26.6209 9.78531C26.5308 10.0468 26.2936 10.2211 26.0354 10.2211H24.5429V20H24.5459ZM9.9969 18.7086H23.3448V8.92978H24.4859L16.6723 1.70137L8.8588 8.92978H9.9999V18.7086H9.9969Z" fill="#4F4F4F"/>
<path d="M19.7537 20.0004H13.5918V12.0585C13.5918 11.6227 13.9221 11.2676 14.3275 11.2676H19.018C19.2162 11.2676 19.3994 11.3515 19.5405 11.5C19.6787 11.6485 19.7567 11.8487 19.7537 12.0618V20.0004ZM14.793 18.7091H18.5526V12.5557H14.793V18.7091Z" fill="#4F4F4F"/>
<path d="M23.7748 8.27096L20.5557 5.29437V2.21124L21.1592 2.20801H23.2493L23.7748 2.35329L23.7778 2.85692V8.27096H23.7748ZM21.7568 4.70034L22.5736 5.45579V3.49614H21.7568V4.70034Z" fill="#4F4F4F"/>
<path d="M9.99733 18.5569H1.72135V10.5956H0.619291C0.364045 10.5956 0.129819 10.4213 0.0397324 10.1662C-0.0503544 9.90795 0.0157092 9.61416 0.207894 9.43014L0.2139 9.42369L8.24364 1.99512L12.3005 5.74653L8.85923 8.92974H10.0003V18.5569H9.99733ZM2.92251 17.2655H8.79617V10.2211H7.30373C7.04248 10.2211 6.81426 10.0532 6.72117 9.79173C6.62808 9.53023 6.69114 9.23967 6.88333 9.05242L6.89534 9.03951L10.4568 5.74653L8.24364 3.69972L2.1838 9.30424H2.92251V17.2655Z" fill="#4F4F4F"/>
<path d="M9.39664 18.5571H5.625V12.0196C5.625 11.5709 5.96433 11.2061 6.38173 11.2061H7.74504V12.4974H6.82315V17.2658H9.39664V18.5571Z" fill="#4F4F4F"/>
</svg>
