<svg width="22" height="22" viewBox="0 0 22 22" fill="none" xmlns="http://www.w3.org/2000/svg">
<path d="M2.85714 19.7686H12.0049C12.9691 20.5954 14.2181 21.1 15.5857 21.1C18.626 21.1 21.0986 18.6266 21.0986 15.5864C21.0986 14.2181 20.594 12.9684 19.7664 12.0035V4.40214C19.7664 3.32263 18.8888 2.445 17.8093 2.445H16.265V2.14357C16.265 1.45838 15.7081 0.900714 15.0221 0.900714H14.9207C14.2347 0.900714 13.6779 1.45838 13.6779 2.14357V2.445H6.98786V2.14286C6.98786 1.45763 6.43023 0.9 5.745 0.9H5.64429C4.95906 0.9 4.40143 1.45763 4.40143 2.14286V2.445H2.85714C1.7776 2.445 0.9 3.32337 0.9 4.40214V17.8114C0.9 18.8909 1.77763 19.7686 2.85714 19.7686ZM1.95643 17.8114V7.79857H18.7086V11.0536C17.8199 10.4384 16.7464 10.0736 15.5843 10.0736C12.544 10.0736 10.0714 12.5469 10.0714 15.5871C10.0714 16.7487 10.4363 17.8234 11.0522 18.7129H2.8574C2.36081 18.7116 1.95643 18.3082 1.95643 17.8114ZM15.5857 20.0421C13.1274 20.0421 11.1293 18.0433 11.1293 15.5864C11.1293 13.1295 13.1274 11.1307 15.5857 11.1307C18.0441 11.1307 20.0421 13.1295 20.0421 15.5864C20.0421 18.0433 18.0426 20.0421 15.5857 20.0421ZM14.735 2.14357C14.735 2.04396 14.8215 1.95786 14.9207 1.95786H15.0236C15.1239 1.95786 15.2093 2.04364 15.2093 2.14357V4.18214C15.2093 4.28159 15.1222 4.36786 15.0236 4.36786H14.9207C14.8209 4.36786 14.735 4.28191 14.735 4.18214V2.14357ZM5.45857 2.14286C5.45857 2.04325 5.54507 1.95714 5.64429 1.95714H5.74714C5.84691 1.95714 5.93286 2.04309 5.93286 2.14286V4.18286C5.93286 4.28247 5.84636 4.36857 5.74714 4.36857H5.64429C5.54451 4.36857 5.45857 4.28263 5.45857 4.18286V2.14286ZM2.85714 3.50214H4.40214V4.18286C4.40214 4.86809 4.95977 5.42571 5.645 5.42571H5.74786C6.43308 5.42571 6.99071 4.86809 6.99071 4.18286V3.50214H13.68V4.18214C13.68 4.86745 14.2384 5.425 14.9236 5.425H15.0264C15.7124 5.425 16.2693 4.86733 16.2693 4.18214V3.50214H17.8136C18.309 3.50214 18.7129 3.9059 18.7129 4.40214V6.74143H1.95643V4.40214C1.95643 3.90604 2.36085 3.50214 2.85714 3.50214Z" fill="#4F4F4F" stroke="#4F4F4F" stroke-width="0.2"/>
<path d="M16.0291 15.1715V12.0965C16.0291 11.8038 15.7912 11.568 15.4999 11.568C15.2082 11.568 14.9713 11.8049 14.9713 12.0965V15.7008C14.9713 15.9931 15.2081 16.2301 15.4999 16.2301H18.6406C18.9331 16.2301 19.1699 15.9924 19.1699 15.7008C19.1699 15.4093 18.9331 15.1715 18.6406 15.1715H16.0291Z" fill="#4F4F4F" stroke="#4F4F4F" stroke-width="0.2"/>
</svg>
