<svg width="16" height="20" viewBox="0 0 16 20" fill="none" xmlns="http://www.w3.org/2000/svg">
<g clip-path="url(#clip0_330_49690)">
<path d="M14.4013 20H1.59874C0.717207 20 0 19.3343 0 18.5161V1.4839C0 0.665691 0.717207 0 1.59874 0H14.4013C15.2828 0 16 0.665691 16 1.4839V18.5161C16 19.3343 15.2828 20 14.4013 20ZM1.91723 18.2205H14.0831V1.77951H1.91723V18.2205Z" fill="white"/>
<path d="M6.72016 8.41587H4.15966C3.80613 8.41587 3.51953 8.14985 3.51953 7.82172V3.86075C3.51953 3.53262 3.80613 3.2666 4.15966 3.2666H6.72016C7.07369 3.2666 7.36029 3.53262 7.36029 3.86075V7.82172C7.36029 8.14985 7.07369 8.41587 6.72016 8.41587Z" fill="white"/>
<path d="M11.8403 8.41587H9.27977C8.92625 8.41587 8.63965 8.14985 8.63965 7.82172V3.86075C8.63965 3.53262 8.92625 3.2666 9.27977 3.2666H11.8403C12.1938 3.2666 12.4804 3.53262 12.4804 3.86075V7.82172C12.4804 8.14985 12.1938 8.41587 11.8403 8.41587Z" fill="white"/>
<path d="M6.72016 16.7342H4.15966C3.80613 16.7342 3.51953 16.4682 3.51953 16.1401V12.1791C3.51953 11.851 3.80613 11.585 4.15966 11.585H6.72016C7.07369 11.585 7.36029 11.851 7.36029 12.1791V16.1401C7.36029 16.4682 7.07369 16.7342 6.72016 16.7342Z" fill="white"/>
<path d="M11.8403 16.7342H9.27977C8.92625 16.7342 8.63965 16.4682 8.63965 16.1401V12.1791C8.63965 11.851 8.92625 11.585 9.27977 11.585H11.8403C12.1938 11.585 12.4804 11.851 12.4804 12.1791V16.1401C12.4804 16.4682 12.1938 16.7342 11.8403 16.7342Z" fill="white"/>
<path d="M6.72016 10.5926H4.15966C3.80613 10.5926 3.51953 10.3266 3.51953 9.99844C3.51953 9.67031 3.80613 9.4043 4.15966 9.4043H6.72016C7.07369 9.4043 7.36029 9.67031 7.36029 9.99844C7.36029 10.3266 7.07369 10.5926 6.72016 10.5926Z" fill="white"/>
</g>
<defs>
<clipPath id="clip0_330_49690">
<rect width="16" height="20" fill="white"/>
</clipPath>
</defs>
</svg>
