<svg width="18" height="20" viewBox="0 0 18 20" fill="none" xmlns="http://www.w3.org/2000/svg">
<path d="M1.50463 8.41205V5.22225H15.0967L13.2069 7.33186C12.913 7.65995 12.913 8.19183 13.2069 8.51955C13.3537 8.6834 13.5463 8.76552 13.7389 8.76552C13.9315 8.76552 14.1238 8.6834 14.2709 8.51955L17.4453 4.97628C17.45 4.97105 17.453 4.96471 17.4577 4.95985C17.4868 4.92551 17.5145 4.88931 17.5382 4.84974C17.5463 4.83631 17.5516 4.821 17.5593 4.80682C17.5767 4.77397 17.5941 4.74113 17.6078 4.70567C17.6145 4.68813 17.6172 4.66946 17.6228 4.65192C17.6332 4.61796 17.6442 4.58436 17.6509 4.5489C17.6606 4.49478 17.666 4.43917 17.666 4.38281C17.666 4.32645 17.6606 4.27083 17.6509 4.21671C17.6442 4.1805 17.6329 4.14691 17.6225 4.11295C17.6172 4.0954 17.6145 4.07711 17.6078 4.05994C17.5941 4.02262 17.5754 3.98828 17.5573 3.95394C17.5506 3.94125 17.5463 3.92781 17.5386 3.9155C17.5112 3.86959 17.4797 3.82704 17.4453 3.78859L14.2719 0.246066C13.978 -0.0820219 13.5018 -0.0820219 13.2079 0.246066C12.914 0.57378 12.914 1.10566 13.2079 1.43375L15.0974 3.54299H0.752313C0.337036 3.54299 0 3.91886 0 4.38281V8.41243C0 8.87638 0.337036 9.25224 0.752313 9.25224C1.16759 9.25224 1.50463 8.876 1.50463 8.41205ZM17.2477 10.7479C16.8324 10.7479 16.4954 11.1237 16.4954 11.5877V14.7775H2.90326L4.79307 12.6679C5.08697 12.3398 5.08697 11.8079 4.79307 11.4802C4.49916 11.1521 4.02303 11.1525 3.72913 11.4802L0.554705 15.0234C0.550024 15.0283 0.547349 15.0346 0.543003 15.0395C0.513579 15.0738 0.485493 15.11 0.461753 15.15C0.454063 15.163 0.449047 15.1776 0.441691 15.191C0.423635 15.2246 0.405914 15.2578 0.39254 15.2941C0.385853 15.3112 0.383178 15.3295 0.377828 15.3467C0.367463 15.381 0.356095 15.415 0.349407 15.4508C0.339711 15.5053 0.334361 15.5606 0.334361 15.6169C0.334361 15.6733 0.339711 15.7285 0.349407 15.783C0.356095 15.8192 0.367463 15.8536 0.377828 15.8879C0.383178 15.9051 0.386187 15.923 0.39254 15.9398C0.406583 15.9778 0.425307 16.0126 0.443697 16.0476C0.450384 16.0596 0.454731 16.0727 0.461753 16.0842C0.489171 16.1301 0.520266 16.1727 0.55504 16.2115L3.72846 19.754C3.87525 19.9179 4.06784 20 4.26043 20C4.45302 20 4.64528 19.9179 4.7924 19.754C5.0863 19.4263 5.0863 18.8944 4.7924 18.5663L2.90292 16.4571H17.2477C17.663 16.4571 18 16.0812 18 15.6173V11.5877C18 11.1237 17.663 10.7479 17.2477 10.7479Z" fill="#4F4F4F"/>
</svg>
