<svg width="91" height="59" viewBox="0 0 91 59" fill="none" xmlns="http://www.w3.org/2000/svg">
<path d="M86.75 56.75H86.05V6.9C86.05 6.69319 85.98 6.50142 85.8393 6.36072C85.6986 6.22003 85.5068 6.15 85.3 6.15H36.6C36.3932 6.15 36.2014 6.22003 36.0607 6.36072C35.92 6.50142 35.85 6.69319 35.85 6.9V56.85H3.95V4.45H86.75V56.75ZM89.3 0.75H1.5C1.29319 0.75 1.10142 0.820028 0.960723 0.960723C0.820028 1.10142 0.75 1.29319 0.75 1.5V4.3C0.75 4.50681 0.820028 4.69858 0.960723 4.83928C1.10142 4.97997 1.29319 5.05 1.5 5.05H2.45V57.6C2.45 57.8068 2.52003 57.9986 2.66072 58.1393C2.80142 58.28 2.99319 58.35 3.2 58.35H36.6C36.8068 58.35 36.9986 58.28 37.1393 58.1393C37.28 57.9986 37.35 57.8068 37.35 57.6V7.65H84.45V57.6C84.45 57.8068 84.52 57.9986 84.6607 58.1393C84.8014 58.28 84.9932 58.35 85.2 58.35H87.5C87.7068 58.35 87.8986 58.28 88.0393 58.1393C88.18 57.9986 88.25 57.8068 88.25 57.6V4.95H89.2C89.4068 4.95 89.5986 4.87997 89.7393 4.73928C89.88 4.59858 89.95 4.40681 89.95 4.2V1.44928C90.0153 1.26063 89.953 1.07449 89.8268 0.948223C89.6953 0.816696 89.5013 0.75 89.3 0.75ZM88.55 3.45H87.6H3.2H2.25V2.15H88.55V3.45Z" fill="#989FAD" stroke="#989FAD" stroke-width="0.5"/>
<path d="M5.99981 53.0498H33.7998C33.9311 53.0498 34.0415 52.9867 34.1141 52.9141C34.1867 52.8415 34.2498 52.7311 34.2498 52.5998V27.9998C34.2498 27.8685 34.1867 27.7581 34.1141 27.6855C34.0415 27.6129 33.9311 27.5498 33.7998 27.5498H5.99981C5.8685 27.5498 5.75811 27.6129 5.68553 27.6855C5.61294 27.7581 5.5498 27.8685 5.5498 27.9998V52.4998C5.5498 52.6113 5.59714 52.7313 5.64793 52.8159C5.67547 52.8618 5.71324 52.9131 5.76264 52.9559C5.80957 52.9966 5.89087 53.0498 5.99981 53.0498ZM6.5498 28.4498H33.3498V51.9498H6.5498V28.4498Z" fill="#989FAD" stroke="#989FAD" stroke-width="0.5"/>
<path d="M5.99981 25.9501H33.7998C33.9311 25.9501 34.0415 25.887 34.1141 25.8144C34.1867 25.7418 34.2498 25.6314 34.2498 25.5001V18.3001C34.2498 18.1688 34.1867 18.0584 34.1141 17.9858C34.0415 17.9132 33.9311 17.8501 33.7998 17.8501H5.99981C5.8685 17.8501 5.75811 17.9132 5.68553 17.9858C5.61294 18.0584 5.5498 18.1688 5.5498 18.3001V25.5001C5.5498 25.6314 5.61294 25.7418 5.68553 25.8144C5.75812 25.887 5.8685 25.9501 5.99981 25.9501ZM6.5498 18.7501H33.3498V24.9501H6.5498V18.7501Z" fill="#989FAD" stroke="#989FAD" stroke-width="0.5"/>
<path d="M5.99981 16.1498H33.7998C33.9311 16.1498 34.0415 16.0867 34.1141 16.0141C34.1867 15.9415 34.2498 15.8311 34.2498 15.6998V8.4998C34.2498 8.3685 34.1867 8.25812 34.1141 8.18553C34.0415 8.11294 33.9311 8.0498 33.7998 8.0498H5.99981C5.8685 8.0498 5.75812 8.11294 5.68553 8.18553C5.61294 8.25811 5.5498 8.36849 5.5498 8.4998V15.6998C5.5498 15.8311 5.61294 15.9415 5.68553 16.0141C5.75811 16.0867 5.8685 16.1498 5.99981 16.1498ZM6.5498 9.0498H33.3498V15.2498H6.5498V9.0498Z" fill="#989FAD" stroke="#989FAD" stroke-width="0.5"/>
</svg>
