<svg width="18" height="22" viewBox="0 0 18 22" fill="none" xmlns="http://www.w3.org/2000/svg">
<path d="M16.9751 17.7L16.9753 17.6999L13.2848 21C13.3693 21.0001 13.4504 20.9675 13.5104 20.9094L13.5799 20.9813L13.58 20.9812L16.9751 17.7ZM1.64 21.1H13.2847L17 17.4062H17.1V17.4062V1.625C17.1 1.43194 17.0214 1.24729 16.8824 1.11151C16.7435 0.975822 16.5555 0.9 16.36 0.9H1.64C1.44449 0.9 1.25653 0.975822 1.11758 1.11151C0.978555 1.24729 0.9 1.43194 0.9 1.625V20.375C0.9 20.5681 0.978555 20.7527 1.11758 20.8885C1.25653 21.0242 1.4445 21.1 1.64 21.1ZM15.5017 17.8188L13.58 19.6954V17.8188H15.5017ZM1.74 1.725H16.26V16.9937H13.48C13.2845 16.9937 13.0965 17.0696 12.9576 17.2053C12.8186 17.341 12.74 17.5257 12.74 17.7188V20.275H1.74V1.725Z" fill="#4F4F4F" stroke="#4F4F4F" stroke-width="0.2"/>
<path d="M8.77945 7.5625V7.19375H9.21945V7.5625C9.21945 7.75556 9.29801 7.94021 9.43704 8.07599C9.57599 8.21168 9.76395 8.2875 9.95945 8.2875H10.9195C11.115 8.2875 11.3029 8.21168 11.4419 8.07599C11.5809 7.94021 11.6595 7.75556 11.6595 7.5625V6.9375C11.6595 6.74444 11.5809 6.55979 11.4419 6.42401C11.3029 6.28832 11.115 6.2125 10.9195 6.2125L9.95945 6.2125L9.95882 6.2125C9.79376 6.21354 9.63391 6.26862 9.50465 6.36875H8.49426C8.36499 6.26862 8.20515 6.21354 8.04008 6.2125V6.2125H8.03945H7.07945C6.88395 6.2125 6.69599 6.28832 6.55704 6.42401C6.41801 6.55979 6.33945 6.74444 6.33945 6.9375V7.5625C6.33945 7.75556 6.41801 7.94021 6.55704 8.07599C6.69599 8.21168 6.88395 8.2875 7.07945 8.2875H8.03945C8.23496 8.2875 8.42292 8.21168 8.56187 8.07599C8.7009 7.94021 8.77945 7.75556 8.77945 7.5625ZM10.0595 7.0375H10.8195V7.4625H10.0595V7.0375ZM7.17945 7.0375H7.93945V7.4625H7.17945V7.0375Z" fill="#4F4F4F" stroke="#4F4F4F" stroke-width="0.2"/>
<path d="M9.4802 9.025H8.5202C8.40956 9.025 8.30299 9.0679 8.22405 9.14498C8.14504 9.22215 8.1002 9.32732 8.1002 9.4375C8.1002 9.54768 8.14504 9.65285 8.22405 9.73002C8.30299 9.8071 8.40956 9.85 8.5202 9.85H9.4802C9.59083 9.85 9.6974 9.8071 9.77634 9.73002C9.85536 9.65285 9.9002 9.54768 9.9002 9.4375C9.9002 9.32732 9.85536 9.22215 9.77634 9.14498C9.6974 9.0679 9.59083 9.025 9.4802 9.025Z" fill="#4F4F4F" stroke="#4F4F4F" stroke-width="0.2"/>
<path d="M5.26299 13.69L5.41797 13.7964L5.41958 13.6084C5.42145 13.3904 5.46752 13.1749 5.55521 12.9742L5.58652 12.9025L5.52455 12.8549C5.31884 12.6966 5.12455 12.5248 4.94306 12.3407C5.31772 12.1722 5.71195 12.0482 6.11729 11.9715C6.44134 11.9112 6.74371 11.7688 6.99402 11.5582C7.20965 11.3769 7.38013 11.1504 7.49317 10.8961C7.92926 11.2099 8.45381 11.3867 8.99689 11.4013L8.99689 11.4014L9.00198 11.4013C9.54681 11.3882 10.0735 11.212 10.5114 10.8976C10.5537 10.9862 10.6015 11.0722 10.6545 11.1552L10.7218 11.2604L10.8097 11.1718L11.2753 10.7031L11.3267 10.6513L11.2932 10.5866C11.2456 10.4948 11.2063 10.3993 11.1756 10.301C12.0244 9.373 12.5572 8.02763 12.5572 6.99352C12.5572 5.15364 10.9537 3.67008 8.99958 3.67008C7.04505 3.67008 5.44198 5.165 5.44198 7.00445C5.44198 8.03251 5.9748 9.37765 6.82489 10.3114C6.72215 10.6342 6.49245 11.0719 5.97412 11.1638L5.97338 11.1639C5.42221 11.266 4.88893 11.4445 4.38973 11.6941C3.89643 11.015 3.56657 10.2357 3.42511 9.41422C3.27893 8.56541 3.33794 7.69499 3.59744 6.87234C3.85695 6.04969 4.30984 5.29745 4.92016 4.67572C5.53049 4.05399 6.28135 3.58001 7.11293 3.29178C7.94452 3.00355 8.83366 2.9091 9.70936 3.01604C10.5851 3.12297 11.4229 3.4283 12.156 3.90751C12.8891 4.38671 13.4972 5.02647 13.9318 5.77558C14.3664 6.52467 14.6156 7.36246 14.6597 8.22208L14.6637 8.30045L14.7408 8.31518C14.9568 8.35646 15.1621 8.4392 15.3449 8.55851L15.5002 8.65984L15.4996 8.47445C15.4961 7.38413 15.2053 6.31316 14.6554 5.36464C14.1055 4.41613 13.315 3.62208 12.3602 3.0587C11.4055 2.49533 10.3185 2.18151 9.20388 2.14728C8.08925 2.11304 6.98425 2.35953 5.9952 2.86317C5.00613 3.36681 4.16616 4.11072 3.55633 5.02355C2.94649 5.93639 2.58738 6.98735 2.51377 8.07529C2.44015 9.16324 2.65453 10.2513 3.13613 11.2347C3.61773 12.2181 4.35026 13.0636 5.26299 13.69ZM6.28198 7.00445V6.91832C6.33148 5.58737 7.52351 4.50602 8.99798 4.50602C10.5041 4.50602 11.7156 5.63434 11.7156 7.00445C11.7156 7.69591 11.4027 8.59435 10.8984 9.32066C10.3923 10.0496 9.71447 10.5763 8.99958 10.5763C8.28496 10.5763 7.60671 10.0457 7.09998 9.3143C6.59514 8.58564 6.28198 7.68717 6.28198 7.00445Z" fill="#4F4F4F" stroke="#4F4F4F" stroke-width="0.2"/>
<path d="M15.2988 9.07264L15.2992 9.0731C15.5279 9.30351 15.6562 9.61229 15.6562 9.93417C15.6562 10.2561 15.5279 10.5648 15.2992 10.7952L15.2988 10.7957L9.64607 16.4206C9.64604 16.4206 9.64602 16.4207 9.64599 16.4207C9.54943 16.517 9.43429 16.5933 9.30738 16.6454C9.18044 16.6976 9.04421 16.7244 8.90665 16.7244C8.76909 16.7244 8.63286 16.6976 8.50592 16.6454C8.37902 16.5933 8.26388 16.517 8.16731 16.4207C8.16729 16.4207 8.16726 16.4206 8.16723 16.4206L6.22018 14.4832C5.94092 14.2059 5.83988 13.8785 5.86856 13.5626C5.89697 13.2497 6.05184 12.954 6.27367 12.7305C6.49553 12.507 6.79014 12.3498 7.10522 12.3215C7.42325 12.293 7.75465 12.3968 8.04114 12.682C8.04116 12.682 8.04118 12.682 8.04121 12.6821M15.2988 9.07264L7.97065 12.7529L8.04121 12.6821M15.2988 9.07264C15.1833 8.95783 15.0457 8.86676 14.8941 8.80463C14.7425 8.74251 14.5797 8.71055 14.4155 8.71055C14.2512 8.71055 14.0885 8.74251 13.9368 8.80463C13.7852 8.86676 13.6476 8.95783 13.5321 9.07264L13.6027 9.14355L13.5321 9.07264L8.97223 13.6072M15.2988 9.07264L8.97223 13.6072M8.04121 12.6821L8.97223 13.6072M8.04121 12.6821L8.97223 13.6072M9.04892 15.8445L9.04866 15.8448C9.03051 15.863 9.00869 15.8776 8.98441 15.8876C8.96012 15.8976 8.93395 15.9028 8.90745 15.9028C8.88095 15.9028 8.85478 15.8976 8.8305 15.8876C8.80621 15.8776 8.78439 15.863 8.76624 15.8448L8.76618 15.8447L6.81898 13.8963L6.81875 13.8961C6.64895 13.7273 6.6894 13.4732 6.85451 13.2944C6.93487 13.2074 7.03645 13.1502 7.13783 13.1379C7.2355 13.1261 7.34223 13.1545 7.44387 13.2564L8.69024 14.5063L8.69026 14.5064C8.72727 14.5435 8.77138 14.5728 8.81992 14.5928C8.86845 14.6128 8.92051 14.6231 8.97305 14.6231C9.02559 14.6231 9.07765 14.6128 9.12619 14.5928C9.17466 14.5728 9.21871 14.5435 9.25568 14.5065C9.25574 14.5065 9.25579 14.5064 9.25584 14.5064L14.1298 9.66389C14.1299 9.66374 14.1301 9.6636 14.1302 9.66345C14.2062 9.59019 14.3092 9.5487 14.4171 9.5487C14.5244 9.5487 14.6271 9.58986 14.703 9.66259C14.7754 9.73867 14.8152 9.83831 14.8149 9.94129C14.8147 10.0446 14.7742 10.1444 14.701 10.2202L9.04892 15.8445Z" fill="#4F4F4F" stroke="#4F4F4F" stroke-width="0.2"/>
<path d="M8.68027 17.15H2.60027C2.48964 17.15 2.38307 17.1929 2.30413 17.27C2.22511 17.3472 2.18027 17.4523 2.18027 17.5625C2.18027 17.6727 2.22511 17.7778 2.30413 17.855C2.38307 17.9321 2.48964 17.975 2.60027 17.975H8.68027C8.79091 17.975 8.89748 17.9321 8.97642 17.855C9.05543 17.7778 9.10027 17.6727 9.10027 17.5625C9.10027 17.4523 9.05543 17.3472 8.97641 17.27C8.89748 17.1929 8.79091 17.15 8.68027 17.15Z" fill="#4F4F4F" stroke="#4F4F4F" stroke-width="0.2"/>
<path d="M8.68027 18.4H2.60027C2.48964 18.4 2.38307 18.4429 2.30413 18.52C2.22511 18.5972 2.18027 18.7023 2.18027 18.8125C2.18027 18.9227 2.22511 19.0278 2.30413 19.105C2.38307 19.1821 2.48964 19.225 2.60027 19.225H8.68027C8.79091 19.225 8.89748 19.1821 8.97642 19.105C9.05543 19.0278 9.10027 18.9227 9.10027 18.8125C9.10027 18.7023 9.05543 18.5972 8.97641 18.52C8.89748 18.4429 8.79091 18.4 8.68027 18.4Z" fill="#4F4F4F" stroke="#4F4F4F" stroke-width="0.2"/>
</svg>
