<svg width="79" height="71" viewBox="0 0 79 71" fill="none" xmlns="http://www.w3.org/2000/svg">
<path d="M53.5149 54.6526C54.9299 54.656 56.3273 54.3396 57.6028 53.727C58.8783 53.1145 59.9989 52.2217 60.8809 51.1153L75.3679 33.0365C75.8202 32.471 76.03 31.7493 75.9514 31.0295C75.8729 30.3096 75.5123 29.6502 74.9487 29.1956C73.8358 28.3935 72.3644 26.6405 70.8438 26.9227C70.4859 26.9609 70.1392 27.0699 69.8237 27.2432C69.5083 27.4166 69.2305 27.6509 69.0064 27.9326L55.3251 45.0123C54.954 45.4778 54.4825 45.8535 53.9459 46.1114C53.4093 46.3692 52.8214 46.5025 52.226 46.5013H38.8135L37.1592 36.8202C37.0909 36.4617 36.8848 36.1444 36.5851 35.9363C36.2853 35.7282 35.9159 35.6459 35.5562 35.7073C35.1965 35.7686 34.8752 35.9686 34.6614 36.2642C34.4476 36.5599 34.3582 36.9277 34.4126 37.2885L35.9868 46.5013H35.2205C35.3577 46.4898 31.4362 25.8925 31.9011 26.223C32.1066 26.2128 32.3085 26.1657 32.4973 26.0839L33.2176 30.2981C33.2485 30.4784 33.3147 30.6509 33.4122 30.8057C33.5098 30.9605 33.6369 31.0945 33.7863 31.2002C33.9357 31.3058 34.1044 31.381 34.2829 31.4215C34.4613 31.4619 34.646 31.4668 34.8264 31.4359C35.0067 31.405 35.1792 31.3389 35.334 31.2413C35.4888 31.1437 35.6228 31.0166 35.7285 30.8672C35.8341 30.7178 35.9093 30.5491 35.9498 30.3706C35.9902 30.1922 35.9951 30.0075 35.9642 29.8272L34.9329 23.7945C37.9501 21.1979 41.7954 19.7641 45.776 19.7513C46.1392 19.7459 46.4856 19.597 46.7394 19.3371C46.9366 19.1422 47.0749 18.8956 47.1384 18.6257C47.4746 16.9046 48.2469 15.2986 49.3814 13.9614C50.7644 12.3619 52.6024 11.2224 54.65 10.6949C54.9032 10.6296 55.1328 10.4945 55.3128 10.3049C55.4928 10.1153 55.6159 9.87895 55.668 9.62278C55.7201 9.3666 55.6991 9.10093 55.6074 8.85611C55.5157 8.61129 55.3571 8.39719 55.1495 8.23823C51.5214 5.46136 47.3601 3.46178 42.9251 2.3642C38.4901 1.26661 33.8765 1.09457 29.3721 1.8588C29.3033 0.854859 28.8405 -0.151135 27.6427 0.0189119C27.4623 0.0496601 27.2897 0.115689 27.1349 0.213219C26.98 0.310749 26.8459 0.437866 26.7402 0.587292C26.6345 0.736718 26.5593 0.90552 26.519 1.08403C26.4786 1.26255 26.4739 1.44727 26.505 1.62763L26.6458 2.44818C17.8973 4.66475 10.1256 9.70819 4.53774 16.7952C4.37092 17.0138 4.27201 17.2766 4.25329 17.5509C4.23457 17.8252 4.29687 18.099 4.43245 18.3383C4.56802 18.5775 4.7709 18.7716 5.01588 18.8965C5.26085 19.0214 5.53713 19.0716 5.81038 19.0408C7.7247 18.8145 9.66442 19.1188 11.4174 19.9206C13.1704 20.7224 14.6692 21.9908 15.7499 23.587C15.9227 23.8377 16.1709 24.027 16.4584 24.1272C16.746 24.2275 17.058 24.2337 17.3493 24.1448C21.0666 22.9724 25.0801 23.1633 28.6694 24.6831L32.394 46.5013H2.73433C2.00936 46.502 1.31429 46.7903 0.801654 47.303C0.289021 47.8156 0.00071213 48.5107 0 49.2356V51.9183C0.00071213 52.6432 0.289021 53.3383 0.801654 53.8509C1.31429 54.3636 2.00936 54.6519 2.73433 54.6526H53.5149ZM37.6288 18.7646C35.879 19.5819 34.2586 20.6513 32.8191 21.9388L30.2625 7.04562L42.3448 17.281C40.7169 17.5762 39.1325 18.0746 37.6288 18.7646ZM42.4877 5.12014C45.6284 5.92207 48.6199 7.223 51.3481 8.97326C48.4697 10.4395 46.2255 12.906 45.0366 15.9095L31.4315 4.38355C35.1311 3.95625 38.8775 4.20588 42.4877 5.12014ZM13.2402 17.6553C11.8132 16.909 10.2596 16.435 8.65897 16.2575C13.1993 11.3405 18.9509 7.70134 25.3386 5.70398C23.6781 8.53767 20.814 13.4202 16.7464 20.3516C15.7394 19.2601 14.5537 18.3483 13.2402 17.6553ZM19.7461 20.7469C23.678 14.0463 26.0673 9.96762 27.5058 7.45744L30.0395 22.2175C26.8138 20.7729 23.2473 20.2634 19.7461 20.7469ZM52.226 49.2887C53.2391 49.291 54.2397 49.0644 55.1529 48.6258C56.0662 48.1872 56.8685 47.548 57.5001 46.7558L71.1078 29.6829L73.1929 31.293L58.706 49.3731C58.084 50.1524 57.2942 50.7812 56.3954 51.2127C55.4966 51.6442 54.512 51.8672 53.5149 51.8652L2.78742 51.9183L2.73433 49.2887H52.226Z" fill="#989FAD"/>
<path d="M77.7403 35.7188C77.9627 35.4299 78.0629 35.0654 78.0196 34.7034C77.9763 34.3415 77.7928 34.0109 77.5086 33.7826C77.2244 33.5543 76.862 33.4465 76.4992 33.4823C76.1365 33.5181 75.8022 33.6946 75.568 33.9741L60.5993 52.608C59.9514 53.4173 59.1294 54.0701 58.1944 54.5179C57.2593 54.9656 56.2354 55.1967 55.1987 55.194C53.7229 55.1912 8.48631 55.196 8.5798 55.194H2.73448C2.36842 55.1995 2.0192 55.3487 1.76227 55.6095C1.50534 55.8703 1.36132 56.2217 1.36133 56.5878C1.36134 56.9539 1.50538 57.3053 1.76233 57.566C2.01928 57.8268 2.36851 57.976 2.73456 57.9814H6.30731L2.35614 66.1913C2.0023 66.9545 1.96298 67.8264 2.24667 68.6184C2.53037 69.4105 3.11431 70.0591 3.8723 70.4241C4.6303 70.7891 5.50148 70.8413 6.29761 70.5693C7.09373 70.2973 7.75086 69.7229 8.12701 68.9704L13.4235 57.9814H34.3593L36.0686 68.0123H10.5904C10.2245 68.018 9.87555 68.1674 9.61881 68.4281C9.36207 68.6889 9.21818 69.0401 9.21819 69.4061C9.2182 69.772 9.36212 70.1233 9.61887 70.384C9.87562 70.6448 10.2246 70.7941 10.5905 70.7998H59.0328C59.3976 70.7924 59.745 70.6424 60.0004 70.3818C60.2558 70.1212 60.3988 69.7709 60.3988 69.406C60.3988 69.0411 60.2557 68.6908 60.0003 68.4302C59.7449 68.1696 59.3975 68.0196 59.0326 68.0123H42.4893L40.779 57.9814H55.1987C55.6008 57.9798 56.0024 57.9535 56.4013 57.9027L61.7331 68.9691C62.0148 69.5315 62.4548 69.9991 62.999 70.3144C63.5432 70.6296 64.1677 70.7788 64.7957 70.7435C65.4236 70.7082 66.0275 70.4899 66.5329 70.1156C67.0383 69.7413 67.4231 69.2273 67.64 68.6369C67.78 68.2399 67.8399 67.8191 67.816 67.3988C67.7922 66.9785 67.6852 66.5671 67.5012 66.1885L62.1376 55.058C62.3573 54.8327 62.5721 54.6014 62.7715 54.3529L77.7403 35.7188ZM5.61717 67.7592C5.56746 67.8553 5.48223 67.9282 5.37961 67.9624C5.27699 67.9967 5.16505 67.9896 5.06759 67.9426C4.97013 67.8956 4.89482 67.8125 4.85767 67.7109C4.82052 67.6093 4.82445 67.4972 4.86862 67.3985L9.40139 57.9814H10.3298L5.61717 67.7592ZM39.663 68.0123H38.895L37.1857 57.9814H37.9527L39.663 68.0123ZM65.0091 67.717C64.981 67.7934 64.9311 67.86 64.8656 67.9084C64.8001 67.9568 64.7218 67.985 64.6405 67.9895C64.5592 67.994 64.4783 67.9745 64.4079 67.9336C64.3375 67.8927 64.2806 67.832 64.2442 67.7591L59.1293 57.144C59.3825 57.0322 59.6283 56.9071 59.8708 56.7738L64.9914 67.3999C65.0153 67.4489 65.0292 67.5022 65.0323 67.5566C65.0353 67.6111 65.0274 67.6656 65.0091 67.717Z" fill="#989FAD"/>
<path d="M33.8008 33.4525C33.8077 33.8176 33.9576 34.1653 34.2182 34.421C34.4789 34.6768 34.8294 34.82 35.1945 34.82C35.5597 34.82 35.9102 34.6767 36.1708 34.421C36.4314 34.1653 36.5813 33.8175 36.5882 33.4524C36.5813 33.0874 36.4314 32.7396 36.1707 32.4839C35.9101 32.2282 35.5596 32.0849 35.1945 32.085C34.8293 32.085 34.4788 32.2282 34.2182 32.484C33.9576 32.7397 33.8077 33.0875 33.8008 33.4525Z" fill="#448DF2"/>
</svg>
