<svg width="23" height="29" viewBox="0 0 23 29" fill="none" xmlns="http://www.w3.org/2000/svg">
<path d="M8.49402 5.40325V2.78564C8.49402 -0.928546 14.1537 -0.928546 14.1537 2.78564V5.36788C17.0543 6.53519 18.9291 9.32968 18.9291 12.4425C18.9291 14.1758 18.9999 15.4846 20.4855 16.3336C21.8297 17.1118 22.714 17.9254 22.6433 19.6586C22.4664 24.3633 14.1184 23.8327 11.3239 23.8327C8.49402 23.8327 0.18131 24.3633 0.00444417 19.6586C-0.0663023 17.9254 0.818028 17.1118 2.16221 16.3336C3.64789 15.4846 3.71863 14.1051 3.71863 12.4425C3.71863 9.2943 5.62879 6.57057 8.49402 5.40325ZM8.10491 26.0966C7.39745 24.7524 9.41372 23.6912 10.1212 25C10.6518 25.9551 12.0313 25.9551 12.5266 25C13.234 23.6912 15.2503 24.7524 14.5428 26.0966C13.1633 28.6434 9.48447 28.6788 8.10491 26.0966ZM11.8545 4.83728V2.78564C11.8545 2.07817 10.7933 2.07817 10.7933 2.78564V4.83728C11.147 4.83728 11.5007 4.83728 11.8545 4.83728ZM6.01789 12.4425C6.01789 14.954 5.62879 17.0057 3.29415 18.3145C2.76355 18.6328 2.26833 18.8097 2.3037 19.5525C2.40982 21.9579 10.298 21.5334 11.3239 21.5334C12.0667 21.5334 20.2733 22.064 20.344 19.5525C20.3794 18.8097 19.8842 18.6328 19.3536 18.3145C17.0897 17.041 16.6299 14.9894 16.6299 12.4425C16.6299 9.50654 14.2599 7.13654 11.3239 7.13654C8.3879 7.13654 6.01789 9.50654 6.01789 12.4425Z" fill="#828282"/>
</svg>
