<svg width="73" height="37" viewBox="0 0 73 37" fill="none" xmlns="http://www.w3.org/2000/svg">
<path d="M71.4484 34.1796H63.5778C64.5528 33.2345 65.4079 32.1733 66.1242 31.0198C66.2258 30.8439 66.2793 30.6443 66.2793 30.4411C66.2793 30.2379 66.2258 30.0383 66.1242 29.8624C66.0247 29.6853 65.8803 29.5375 65.7056 29.4339C65.5308 29.3303 65.3319 29.2745 65.1288 29.2721H51.7604C53.7655 28.0576 55.343 26.2495 56.2744 24.0984C56.4111 24.0032 56.5224 23.8761 56.5985 23.728C57.3593 22.0044 58.527 20.4911 60.0014 19.3182C62.9644 17.2579 65.7885 14.781 66.2168 10.7184C66.338 9.83206 66.2696 8.93007 66.0163 8.0721C65.7628 7.21412 65.3302 6.41973 64.7468 5.74146C64.2272 5.16256 63.5895 4.70183 62.8767 4.39035C62.1639 4.07887 61.3926 3.92389 60.6148 3.93586C59.3838 3.94796 58.1809 4.30483 57.1425 4.96597V1.71359C57.1425 1.40662 57.0206 1.11222 56.8035 0.895158C56.5864 0.678097 56.292 0.556152 55.9851 0.556152H26.0423C25.7353 0.556152 25.4409 0.678097 25.2238 0.895158C25.0068 1.11222 24.8848 1.40662 24.8848 1.71359V19.3297C24.8487 21.3188 25.338 23.2823 26.3033 25.0218C27.2686 26.7614 28.6757 28.2155 30.3826 29.2374H16.968C16.7649 29.2397 16.5659 29.2956 16.3912 29.3992C16.2165 29.5028 16.0721 29.6506 15.9726 29.8277C15.871 30.0036 15.8175 30.2032 15.8175 30.4064C15.8175 30.6095 15.871 30.8091 15.9726 30.9851C16.693 32.1357 17.5478 33.1964 18.5189 34.1449H1.15743C0.850463 34.1449 0.556065 34.2668 0.339005 34.4839C0.121944 34.7009 0 34.9953 0 35.3023C0 35.6093 0.121944 35.9037 0.339005 36.1207C0.556065 36.3378 0.850463 36.4598 1.15743 36.4598H71.4484C71.7554 36.4598 72.0498 36.3378 72.2668 36.1207C72.4839 35.9037 72.6058 35.6093 72.6058 35.3023C72.6058 34.9953 72.4839 34.7009 72.2668 34.4839C72.0498 34.2668 71.7554 34.1449 71.4484 34.1449V34.1796ZM60.6148 6.22758C61.0694 6.21241 61.5219 6.29557 61.9414 6.47135C62.3609 6.64714 62.7374 6.91141 63.0454 7.24612C63.4133 7.68677 63.6838 8.20018 63.8394 8.7527C63.995 9.30521 64.0321 9.88437 63.9482 10.4522C63.6241 13.4268 61.6333 15.3945 58.6935 17.3968C58.1623 17.7712 57.6699 18.1977 57.2235 18.67V8.0216C57.6044 7.47342 58.1111 7.02448 58.7011 6.71235C59.2911 6.40022 59.9473 6.23399 60.6148 6.22758ZM39.2254 29.2374C33.6697 29.2374 27.1881 26.6216 27.1881 19.2834V2.85945H54.9665V19.3297C54.9665 26.61 48.5891 29.2374 43.0681 29.2837H39.2486L39.2254 29.2374ZM23.195 34.1796C21.8292 34.1796 20.3245 32.8254 19.2481 31.5754H62.9297C61.8417 32.8254 60.337 34.1796 58.9712 34.1796H23.195Z" fill="#989FAD"/>
</svg>
