<svg width="17" height="19" viewBox="0 0 17 19" fill="none" xmlns="http://www.w3.org/2000/svg">
<path fill-rule="evenodd" clip-rule="evenodd" d="M10.1989 0L5.86742 0.0126021L5.85407 1.30049H10.2431C10.2433 1.1636 10.2982 0 10.1989 0ZM5.85432 5.0379V13.9877H5.03073V5.0379H1.01139L1.63976 17.0987C1.6662 17.6087 2.03957 18.05 2.55997 18.05H13.5374C14.0578 18.05 14.4312 17.6087 14.4576 17.0987L15.086 5.0379H11.0669V13.9877H10.2433V5.0379H5.85432ZM11.0669 2.12408C7.49038 2.12408 3.91408 2.12408 0.33754 2.12408C0.152708 2.12408 0 2.27654 0 2.46162V3.87702C0 3.97017 0.0378065 4.05468 0.0985934 4.11596L0.0993348 4.11522C0.22758 4.24347 0.390914 4.21456 0.578711 4.21456H15.7643C15.855 4.21332 15.9378 4.17552 15.9981 4.11522L15.9988 4.11596C16.0596 4.05468 16.0974 3.97017 16.0974 3.87702V2.46162C16.0974 2.27679 15.9449 2.12408 15.7599 2.12408H11.0669Z" fill="#858D9D"/>
</svg>
