<svg width="22" height="22" viewBox="0 0 22 22" fill="none" xmlns="http://www.w3.org/2000/svg">
<mask id="path-1-outside-1_2433_2983" maskUnits="userSpaceOnUse" x="0" y="0" width="22" height="22" fill="black">
<rect fill="white" width="22" height="22"/>
<path d="M9.32806 1.00102C9.27421 1.0113 9.22572 1.04027 9.19115 1.08282C9.15658 1.12536 9.13815 1.17876 9.13912 1.23357V2.14195C8.02509 2.37447 6.98819 2.80491 6.06515 3.40642L5.35297 2.69425C5.33129 2.67184 5.30532 2.65401 5.2766 2.64184C5.24789 2.62967 5.21702 2.6234 5.18583 2.6234C5.15464 2.6234 5.12378 2.62967 5.09506 2.64184C5.06635 2.65401 5.04038 2.67184 5.01869 2.69425L2.69323 5.01971C2.65019 5.06325 2.62605 5.122 2.62605 5.18322C2.62605 5.24444 2.65019 5.3032 2.69323 5.34673L3.41993 6.07344C2.81956 6.99487 2.38197 8.02647 2.1482 9.14014H1.23255C1.17087 9.14015 1.11173 9.16465 1.06812 9.20826C1.02451 9.25187 1.00001 9.31102 1 9.37269V12.6283C1.00001 12.69 1.02451 12.7492 1.06812 12.7928C1.11173 12.8364 1.17087 12.8609 1.23255 12.8609H2.1482C2.38194 13.97 2.82238 15.002 3.41993 15.9203L2.69323 16.647C2.65019 16.6906 2.62605 16.7493 2.62605 16.8105C2.62605 16.8718 2.65019 16.9305 2.69323 16.974L5.01869 19.2995C5.04038 19.3219 5.06635 19.3397 5.09506 19.3519C5.12378 19.3641 5.15464 19.3704 5.18583 19.3704C5.21702 19.3704 5.24789 19.3641 5.2766 19.3519C5.30532 19.3397 5.33129 19.3219 5.35297 19.2995L6.18869 18.4638C6.23163 18.4194 6.25524 18.3598 6.25438 18.298C6.25352 18.2362 6.22825 18.1773 6.18409 18.1341C6.13993 18.0909 6.08047 18.067 6.0187 18.0675C5.95693 18.0679 5.89786 18.0929 5.8544 18.1368L5.18583 18.8053L3.19465 16.8142L3.87049 16.1311C3.90671 16.0924 3.92862 16.0424 3.93259 15.9896C3.93655 15.9367 3.92233 15.8841 3.89229 15.8404C3.23404 14.8755 2.76241 13.7747 2.54062 12.5847C2.53057 12.5321 2.50267 12.4846 2.46163 12.4501C2.42058 12.4157 2.36891 12.3965 2.31534 12.3958H1.46509V9.60523H2.31534C2.36995 9.60419 2.42246 9.58396 2.46365 9.54808C2.50484 9.51221 2.53209 9.46298 2.54062 9.40902C2.76241 8.21906 3.23404 7.12546 3.89229 6.16064C3.92423 6.11633 3.93955 6.06218 3.93556 6.00771C3.93157 5.95323 3.90854 5.90189 3.87049 5.86269L3.19465 5.18686L5.18583 3.18841L5.8544 3.85698C5.8927 3.89613 5.94357 3.92051 5.99808 3.92583C6.05258 3.93115 6.10721 3.91706 6.15235 3.88605C7.11586 3.22724 8.22354 2.76325 9.41527 2.54164C9.46789 2.5316 9.51543 2.5037 9.54986 2.46265C9.58428 2.4216 9.60348 2.36993 9.60421 2.31636V1.46612H12.3948V2.31636C12.3955 2.36993 12.4147 2.4216 12.4491 2.46265C12.4835 2.5037 12.5311 2.5316 12.5837 2.54164C13.7754 2.76325 14.8831 3.22724 15.8466 3.88605C15.8918 3.91706 15.9464 3.93115 16.0009 3.92583C16.0554 3.92051 16.1063 3.89613 16.1446 3.85698L16.8131 3.18841L18.8043 5.18686L18.1285 5.86269C18.0904 5.90189 18.0674 5.95323 18.0634 6.00771C18.0594 6.06218 18.0747 6.11633 18.1067 6.16064C18.7649 7.12546 19.2366 8.21906 19.4584 9.40902C19.4669 9.46298 19.4941 9.51221 19.5353 9.54808C19.5765 9.58396 19.629 9.60419 19.6836 9.60523H20.5339V12.3958H19.6836C19.6301 12.3965 19.5784 12.4157 19.5373 12.4501C19.4963 12.4846 19.4684 12.5321 19.4584 12.5847C19.2366 13.7747 18.7649 14.8755 18.1067 15.8404C18.0766 15.8841 18.0624 15.9367 18.0664 15.9896C18.0704 16.0424 18.0923 16.0924 18.1285 16.1311L18.8043 16.8142L16.8131 18.8053L16.1446 18.1368C16.1063 18.0976 16.0554 18.0732 16.0009 18.0679C15.9464 18.0626 15.8918 18.0767 15.8466 18.1077C14.8831 18.7665 13.7754 19.2305 12.5837 19.4521C12.5299 19.4624 12.4814 19.4914 12.4468 19.5339C12.4122 19.5765 12.3938 19.6298 12.3948 19.6847V20.5349H9.60421V19.6847C9.60518 19.6298 9.58675 19.5765 9.55218 19.5339C9.51761 19.4914 9.46912 19.4624 9.41527 19.4521C8.78759 19.3354 8.17136 19.1623 7.60577 18.9216L7.14794 18.6963C7.12038 18.6782 7.08927 18.6662 7.05669 18.661C7.0241 18.6558 6.99079 18.6576 6.95896 18.6663C6.92713 18.675 6.89751 18.6903 6.87207 18.7113C6.84663 18.7323 6.82595 18.7585 6.8114 18.7881C6.79686 18.8177 6.78878 18.8501 6.7877 18.8831C6.78663 18.916 6.79258 18.9489 6.80516 18.9794C6.81775 19.0099 6.83668 19.0373 6.86069 19.06C6.88471 19.0826 6.91327 19.0998 6.94446 19.1106L7.40956 19.3431C7.41192 19.3456 7.41435 19.348 7.41682 19.3504C7.96092 19.582 8.55055 19.7314 9.13912 19.8518V20.7675C9.13912 20.8291 9.16363 20.8883 9.20724 20.9319C9.25085 20.9755 9.30999 21 9.37166 21H12.6273C12.689 21 12.7481 20.9755 12.7917 20.9319C12.8353 20.8883 12.8599 20.8291 12.8599 20.7675V19.8518C13.9739 19.6193 15.0108 19.1889 15.9338 18.5873L16.646 19.2995C16.6677 19.3219 16.6937 19.3397 16.7224 19.3519C16.7511 19.3641 16.782 19.3704 16.8131 19.3704C16.8443 19.3704 16.8752 19.3641 16.9039 19.3519C16.9326 19.3397 16.9586 19.3219 16.9803 19.2995L19.3057 16.974C19.3488 16.9305 19.3729 16.8718 19.3729 16.8105C19.3729 16.7493 19.3488 16.6906 19.3057 16.647L18.579 15.9203C19.1766 15.002 19.617 13.97 19.8508 12.8609H20.7664C20.8281 12.8609 20.8872 12.8364 20.9309 12.7928C20.9745 12.7492 20.999 12.69 20.999 12.6283V9.37269C20.999 9.31102 20.9745 9.25187 20.9309 9.20826C20.8872 9.16465 20.8281 9.14015 20.7664 9.14014H19.8508C19.617 8.02647 19.1794 6.99487 18.579 6.07344L19.3057 5.34673C19.3488 5.3032 19.3729 5.24444 19.3729 5.18322C19.3729 5.122 19.3488 5.06325 19.3057 5.01971L16.9803 2.69425C16.9586 2.67184 16.9326 2.65401 16.9039 2.64184C16.8752 2.62967 16.8443 2.6234 16.8131 2.6234C16.782 2.6234 16.7511 2.62967 16.7224 2.64184C16.6937 2.65401 16.6677 2.67184 16.646 2.69425L15.9338 3.40642C15.0108 2.80496 13.9739 2.37447 12.8599 2.14195V1.23357C12.8599 1.1719 12.8353 1.11275 12.7917 1.06914C12.7481 1.02553 12.689 1.00103 12.6273 1.00102H9.37166C9.35716 0.999659 9.34256 0.999659 9.32806 1.00102ZM10.9995 4.25667C7.27772 4.25667 4.25565 7.27874 4.25565 11.0005C4.25565 14.7223 7.27772 17.7444 10.9995 17.7444C14.7213 17.7444 17.7433 14.7223 17.7433 11.0005C17.7433 7.27874 14.7213 4.25667 10.9995 4.25667ZM10.9995 4.72176C14.4699 4.72176 17.2782 7.53009 17.2782 11.0005C17.2782 12.756 16.5556 14.3379 15.3961 15.477C15.2252 13.5506 13.8816 11.7087 12.075 11.1677C12.6839 10.8011 13.0924 10.133 13.0924 9.37269C13.0924 8.21956 12.1526 7.27977 10.9995 7.27977C9.84636 7.27977 8.90657 8.21956 8.90657 9.37269C8.90657 10.133 9.3151 10.8011 9.92396 11.1677C8.11742 11.7087 6.77381 13.5506 6.60291 15.477C5.44334 14.3379 4.72074 12.756 4.72074 11.0005C4.72074 7.53009 7.52908 4.72176 10.9995 4.72176ZM10.9995 7.74486C11.9013 7.74486 12.6273 8.47091 12.6273 9.37269C12.6273 10.2745 11.9013 11.0005 10.9995 11.0005C10.0977 11.0005 9.37166 10.2745 9.37166 9.37269C9.37166 8.47091 10.0977 7.74486 10.9995 7.74486ZM10.9995 11.4656C11.0767 11.4656 11.1558 11.4672 11.232 11.4729C11.2326 11.49 11.235 11.5071 11.2393 11.5237L11.9369 14.0817C11.9432 14.1049 11.953 14.127 11.966 14.1472L10.9995 15.2954L10.033 14.1472C10.046 14.127 10.0558 14.1049 10.062 14.0817L10.7597 11.5237C10.764 11.5071 10.7664 11.49 10.7669 11.4729C10.8432 11.4672 10.9223 11.4656 10.9995 11.4656ZM10.2655 11.5528L9.67688 13.7257L8.61589 12.4757C8.61352 12.4733 8.6111 12.4708 8.60862 12.4685C9.09134 12.03 9.64975 11.6986 10.2655 11.5528ZM11.7335 11.5528C12.3477 11.6982 12.9084 12.0244 13.3904 12.4612C13.3878 12.466 13.3853 12.4708 13.3831 12.4757L12.3221 13.7257L11.7335 11.5528ZM8.2816 12.7882L10.8251 15.7968C10.8469 15.8215 10.8737 15.8413 10.9038 15.8549C10.9339 15.8685 10.9665 15.8755 10.9995 15.8755C11.0325 15.8755 11.0651 15.8685 11.0952 15.8549C11.1252 15.8413 11.1521 15.8215 11.1739 15.7968L13.7174 12.7882C14.474 13.6273 14.9528 14.7585 14.9528 15.884C13.8739 16.7582 12.4976 17.2793 10.9995 17.2793C9.50134 17.2793 8.12511 16.7582 7.0462 15.884C7.0462 14.7585 7.52497 13.6273 8.2816 12.7882Z"/>
</mask>
<path d="M9.32806 1.00102C9.27421 1.0113 9.22572 1.04027 9.19115 1.08282C9.15658 1.12536 9.13815 1.17876 9.13912 1.23357V2.14195C8.02509 2.37447 6.98819 2.80491 6.06515 3.40642L5.35297 2.69425C5.33129 2.67184 5.30532 2.65401 5.2766 2.64184C5.24789 2.62967 5.21702 2.6234 5.18583 2.6234C5.15464 2.6234 5.12378 2.62967 5.09506 2.64184C5.06635 2.65401 5.04038 2.67184 5.01869 2.69425L2.69323 5.01971C2.65019 5.06325 2.62605 5.122 2.62605 5.18322C2.62605 5.24444 2.65019 5.3032 2.69323 5.34673L3.41993 6.07344C2.81956 6.99487 2.38197 8.02647 2.1482 9.14014H1.23255C1.17087 9.14015 1.11173 9.16465 1.06812 9.20826C1.02451 9.25187 1.00001 9.31102 1 9.37269V12.6283C1.00001 12.69 1.02451 12.7492 1.06812 12.7928C1.11173 12.8364 1.17087 12.8609 1.23255 12.8609H2.1482C2.38194 13.97 2.82238 15.002 3.41993 15.9203L2.69323 16.647C2.65019 16.6906 2.62605 16.7493 2.62605 16.8105C2.62605 16.8718 2.65019 16.9305 2.69323 16.974L5.01869 19.2995C5.04038 19.3219 5.06635 19.3397 5.09506 19.3519C5.12378 19.3641 5.15464 19.3704 5.18583 19.3704C5.21702 19.3704 5.24789 19.3641 5.2766 19.3519C5.30532 19.3397 5.33129 19.3219 5.35297 19.2995L6.18869 18.4638C6.23163 18.4194 6.25524 18.3598 6.25438 18.298C6.25352 18.2362 6.22825 18.1773 6.18409 18.1341C6.13993 18.0909 6.08047 18.067 6.0187 18.0675C5.95693 18.0679 5.89786 18.0929 5.8544 18.1368L5.18583 18.8053L3.19465 16.8142L3.87049 16.1311C3.90671 16.0924 3.92862 16.0424 3.93259 15.9896C3.93655 15.9367 3.92233 15.8841 3.89229 15.8404C3.23404 14.8755 2.76241 13.7747 2.54062 12.5847C2.53057 12.5321 2.50267 12.4846 2.46163 12.4501C2.42058 12.4157 2.36891 12.3965 2.31534 12.3958H1.46509V9.60523H2.31534C2.36995 9.60419 2.42246 9.58396 2.46365 9.54808C2.50484 9.51221 2.53209 9.46298 2.54062 9.40902C2.76241 8.21906 3.23404 7.12546 3.89229 6.16064C3.92423 6.11633 3.93955 6.06218 3.93556 6.00771C3.93157 5.95323 3.90854 5.90189 3.87049 5.86269L3.19465 5.18686L5.18583 3.18841L5.8544 3.85698C5.8927 3.89613 5.94357 3.92051 5.99808 3.92583C6.05258 3.93115 6.10721 3.91706 6.15235 3.88605C7.11586 3.22724 8.22354 2.76325 9.41527 2.54164C9.46789 2.5316 9.51543 2.5037 9.54986 2.46265C9.58428 2.4216 9.60348 2.36993 9.60421 2.31636V1.46612H12.3948V2.31636C12.3955 2.36993 12.4147 2.4216 12.4491 2.46265C12.4835 2.5037 12.5311 2.5316 12.5837 2.54164C13.7754 2.76325 14.8831 3.22724 15.8466 3.88605C15.8918 3.91706 15.9464 3.93115 16.0009 3.92583C16.0554 3.92051 16.1063 3.89613 16.1446 3.85698L16.8131 3.18841L18.8043 5.18686L18.1285 5.86269C18.0904 5.90189 18.0674 5.95323 18.0634 6.00771C18.0594 6.06218 18.0747 6.11633 18.1067 6.16064C18.7649 7.12546 19.2366 8.21906 19.4584 9.40902C19.4669 9.46298 19.4941 9.51221 19.5353 9.54808C19.5765 9.58396 19.629 9.60419 19.6836 9.60523H20.5339V12.3958H19.6836C19.6301 12.3965 19.5784 12.4157 19.5373 12.4501C19.4963 12.4846 19.4684 12.5321 19.4584 12.5847C19.2366 13.7747 18.7649 14.8755 18.1067 15.8404C18.0766 15.8841 18.0624 15.9367 18.0664 15.9896C18.0704 16.0424 18.0923 16.0924 18.1285 16.1311L18.8043 16.8142L16.8131 18.8053L16.1446 18.1368C16.1063 18.0976 16.0554 18.0732 16.0009 18.0679C15.9464 18.0626 15.8918 18.0767 15.8466 18.1077C14.8831 18.7665 13.7754 19.2305 12.5837 19.4521C12.5299 19.4624 12.4814 19.4914 12.4468 19.5339C12.4122 19.5765 12.3938 19.6298 12.3948 19.6847V20.5349H9.60421V19.6847C9.60518 19.6298 9.58675 19.5765 9.55218 19.5339C9.51761 19.4914 9.46912 19.4624 9.41527 19.4521C8.78759 19.3354 8.17136 19.1623 7.60577 18.9216L7.14794 18.6963C7.12038 18.6782 7.08927 18.6662 7.05669 18.661C7.0241 18.6558 6.99079 18.6576 6.95896 18.6663C6.92713 18.675 6.89751 18.6903 6.87207 18.7113C6.84663 18.7323 6.82595 18.7585 6.8114 18.7881C6.79686 18.8177 6.78878 18.8501 6.7877 18.8831C6.78663 18.916 6.79258 18.9489 6.80516 18.9794C6.81775 19.0099 6.83668 19.0373 6.86069 19.06C6.88471 19.0826 6.91327 19.0998 6.94446 19.1106L7.40956 19.3431C7.41192 19.3456 7.41435 19.348 7.41682 19.3504C7.96092 19.582 8.55055 19.7314 9.13912 19.8518V20.7675C9.13912 20.8291 9.16363 20.8883 9.20724 20.9319C9.25085 20.9755 9.30999 21 9.37166 21H12.6273C12.689 21 12.7481 20.9755 12.7917 20.9319C12.8353 20.8883 12.8599 20.8291 12.8599 20.7675V19.8518C13.9739 19.6193 15.0108 19.1889 15.9338 18.5873L16.646 19.2995C16.6677 19.3219 16.6937 19.3397 16.7224 19.3519C16.7511 19.3641 16.782 19.3704 16.8131 19.3704C16.8443 19.3704 16.8752 19.3641 16.9039 19.3519C16.9326 19.3397 16.9586 19.3219 16.9803 19.2995L19.3057 16.974C19.3488 16.9305 19.3729 16.8718 19.3729 16.8105C19.3729 16.7493 19.3488 16.6906 19.3057 16.647L18.579 15.9203C19.1766 15.002 19.617 13.97 19.8508 12.8609H20.7664C20.8281 12.8609 20.8872 12.8364 20.9309 12.7928C20.9745 12.7492 20.999 12.69 20.999 12.6283V9.37269C20.999 9.31102 20.9745 9.25187 20.9309 9.20826C20.8872 9.16465 20.8281 9.14015 20.7664 9.14014H19.8508C19.617 8.02647 19.1794 6.99487 18.579 6.07344L19.3057 5.34673C19.3488 5.3032 19.3729 5.24444 19.3729 5.18322C19.3729 5.122 19.3488 5.06325 19.3057 5.01971L16.9803 2.69425C16.9586 2.67184 16.9326 2.65401 16.9039 2.64184C16.8752 2.62967 16.8443 2.6234 16.8131 2.6234C16.782 2.6234 16.7511 2.62967 16.7224 2.64184C16.6937 2.65401 16.6677 2.67184 16.646 2.69425L15.9338 3.40642C15.0108 2.80496 13.9739 2.37447 12.8599 2.14195V1.23357C12.8599 1.1719 12.8353 1.11275 12.7917 1.06914C12.7481 1.02553 12.689 1.00103 12.6273 1.00102H9.37166C9.35716 0.999659 9.34256 0.999659 9.32806 1.00102ZM10.9995 4.25667C7.27772 4.25667 4.25565 7.27874 4.25565 11.0005C4.25565 14.7223 7.27772 17.7444 10.9995 17.7444C14.7213 17.7444 17.7433 14.7223 17.7433 11.0005C17.7433 7.27874 14.7213 4.25667 10.9995 4.25667ZM10.9995 4.72176C14.4699 4.72176 17.2782 7.53009 17.2782 11.0005C17.2782 12.756 16.5556 14.3379 15.3961 15.477C15.2252 13.5506 13.8816 11.7087 12.075 11.1677C12.6839 10.8011 13.0924 10.133 13.0924 9.37269C13.0924 8.21956 12.1526 7.27977 10.9995 7.27977C9.84636 7.27977 8.90657 8.21956 8.90657 9.37269C8.90657 10.133 9.3151 10.8011 9.92396 11.1677C8.11742 11.7087 6.77381 13.5506 6.60291 15.477C5.44334 14.3379 4.72074 12.756 4.72074 11.0005C4.72074 7.53009 7.52908 4.72176 10.9995 4.72176ZM10.9995 7.74486C11.9013 7.74486 12.6273 8.47091 12.6273 9.37269C12.6273 10.2745 11.9013 11.0005 10.9995 11.0005C10.0977 11.0005 9.37166 10.2745 9.37166 9.37269C9.37166 8.47091 10.0977 7.74486 10.9995 7.74486ZM10.9995 11.4656C11.0767 11.4656 11.1558 11.4672 11.232 11.4729C11.2326 11.49 11.235 11.5071 11.2393 11.5237L11.9369 14.0817C11.9432 14.1049 11.953 14.127 11.966 14.1472L10.9995 15.2954L10.033 14.1472C10.046 14.127 10.0558 14.1049 10.062 14.0817L10.7597 11.5237C10.764 11.5071 10.7664 11.49 10.7669 11.4729C10.8432 11.4672 10.9223 11.4656 10.9995 11.4656ZM10.2655 11.5528L9.67688 13.7257L8.61589 12.4757C8.61352 12.4733 8.6111 12.4708 8.60862 12.4685C9.09134 12.03 9.64975 11.6986 10.2655 11.5528ZM11.7335 11.5528C12.3477 11.6982 12.9084 12.0244 13.3904 12.4612C13.3878 12.466 13.3853 12.4708 13.3831 12.4757L12.3221 13.7257L11.7335 11.5528ZM8.2816 12.7882L10.8251 15.7968C10.8469 15.8215 10.8737 15.8413 10.9038 15.8549C10.9339 15.8685 10.9665 15.8755 10.9995 15.8755C11.0325 15.8755 11.0651 15.8685 11.0952 15.8549C11.1252 15.8413 11.1521 15.8215 11.1739 15.7968L13.7174 12.7882C14.474 13.6273 14.9528 14.7585 14.9528 15.884C13.8739 16.7582 12.4976 17.2793 10.9995 17.2793C9.50134 17.2793 8.12511 16.7582 7.0462 15.884C7.0462 14.7585 7.52497 13.6273 8.2816 12.7882Z" fill="#4F4F4F"/>
<path d="M9.32806 1.00102C9.27421 1.0113 9.22572 1.04027 9.19115 1.08282C9.15658 1.12536 9.13815 1.17876 9.13912 1.23357V2.14195C8.02509 2.37447 6.98819 2.80491 6.06515 3.40642L5.35297 2.69425C5.33129 2.67184 5.30532 2.65401 5.2766 2.64184C5.24789 2.62967 5.21702 2.6234 5.18583 2.6234C5.15464 2.6234 5.12378 2.62967 5.09506 2.64184C5.06635 2.65401 5.04038 2.67184 5.01869 2.69425L2.69323 5.01971C2.65019 5.06325 2.62605 5.122 2.62605 5.18322C2.62605 5.24444 2.65019 5.3032 2.69323 5.34673L3.41993 6.07344C2.81956 6.99487 2.38197 8.02647 2.1482 9.14014H1.23255C1.17087 9.14015 1.11173 9.16465 1.06812 9.20826C1.02451 9.25187 1.00001 9.31102 1 9.37269V12.6283C1.00001 12.69 1.02451 12.7492 1.06812 12.7928C1.11173 12.8364 1.17087 12.8609 1.23255 12.8609H2.1482C2.38194 13.97 2.82238 15.002 3.41993 15.9203L2.69323 16.647C2.65019 16.6906 2.62605 16.7493 2.62605 16.8105C2.62605 16.8718 2.65019 16.9305 2.69323 16.974L5.01869 19.2995C5.04038 19.3219 5.06635 19.3397 5.09506 19.3519C5.12378 19.3641 5.15464 19.3704 5.18583 19.3704C5.21702 19.3704 5.24789 19.3641 5.2766 19.3519C5.30532 19.3397 5.33129 19.3219 5.35297 19.2995L6.18869 18.4638C6.23163 18.4194 6.25524 18.3598 6.25438 18.298C6.25352 18.2362 6.22825 18.1773 6.18409 18.1341C6.13993 18.0909 6.08047 18.067 6.0187 18.0675C5.95693 18.0679 5.89786 18.0929 5.8544 18.1368L5.18583 18.8053L3.19465 16.8142L3.87049 16.1311C3.90671 16.0924 3.92862 16.0424 3.93259 15.9896C3.93655 15.9367 3.92233 15.8841 3.89229 15.8404C3.23404 14.8755 2.76241 13.7747 2.54062 12.5847C2.53057 12.5321 2.50267 12.4846 2.46163 12.4501C2.42058 12.4157 2.36891 12.3965 2.31534 12.3958H1.46509V9.60523H2.31534C2.36995 9.60419 2.42246 9.58396 2.46365 9.54808C2.50484 9.51221 2.53209 9.46298 2.54062 9.40902C2.76241 8.21906 3.23404 7.12546 3.89229 6.16064C3.92423 6.11633 3.93955 6.06218 3.93556 6.00771C3.93157 5.95323 3.90854 5.90189 3.87049 5.86269L3.19465 5.18686L5.18583 3.18841L5.8544 3.85698C5.8927 3.89613 5.94357 3.92051 5.99808 3.92583C6.05258 3.93115 6.10721 3.91706 6.15235 3.88605C7.11586 3.22724 8.22354 2.76325 9.41527 2.54164C9.46789 2.5316 9.51543 2.5037 9.54986 2.46265C9.58428 2.4216 9.60348 2.36993 9.60421 2.31636V1.46612H12.3948V2.31636C12.3955 2.36993 12.4147 2.4216 12.4491 2.46265C12.4835 2.5037 12.5311 2.5316 12.5837 2.54164C13.7754 2.76325 14.8831 3.22724 15.8466 3.88605C15.8918 3.91706 15.9464 3.93115 16.0009 3.92583C16.0554 3.92051 16.1063 3.89613 16.1446 3.85698L16.8131 3.18841L18.8043 5.18686L18.1285 5.86269C18.0904 5.90189 18.0674 5.95323 18.0634 6.00771C18.0594 6.06218 18.0747 6.11633 18.1067 6.16064C18.7649 7.12546 19.2366 8.21906 19.4584 9.40902C19.4669 9.46298 19.4941 9.51221 19.5353 9.54808C19.5765 9.58396 19.629 9.60419 19.6836 9.60523H20.5339V12.3958H19.6836C19.6301 12.3965 19.5784 12.4157 19.5373 12.4501C19.4963 12.4846 19.4684 12.5321 19.4584 12.5847C19.2366 13.7747 18.7649 14.8755 18.1067 15.8404C18.0766 15.8841 18.0624 15.9367 18.0664 15.9896C18.0704 16.0424 18.0923 16.0924 18.1285 16.1311L18.8043 16.8142L16.8131 18.8053L16.1446 18.1368C16.1063 18.0976 16.0554 18.0732 16.0009 18.0679C15.9464 18.0626 15.8918 18.0767 15.8466 18.1077C14.8831 18.7665 13.7754 19.2305 12.5837 19.4521C12.5299 19.4624 12.4814 19.4914 12.4468 19.5339C12.4122 19.5765 12.3938 19.6298 12.3948 19.6847V20.5349H9.60421V19.6847C9.60518 19.6298 9.58675 19.5765 9.55218 19.5339C9.51761 19.4914 9.46912 19.4624 9.41527 19.4521C8.78759 19.3354 8.17136 19.1623 7.60577 18.9216L7.14794 18.6963C7.12038 18.6782 7.08927 18.6662 7.05669 18.661C7.0241 18.6558 6.99079 18.6576 6.95896 18.6663C6.92713 18.675 6.89751 18.6903 6.87207 18.7113C6.84663 18.7323 6.82595 18.7585 6.8114 18.7881C6.79686 18.8177 6.78878 18.8501 6.7877 18.8831C6.78663 18.916 6.79258 18.9489 6.80516 18.9794C6.81775 19.0099 6.83668 19.0373 6.86069 19.06C6.88471 19.0826 6.91327 19.0998 6.94446 19.1106L7.40956 19.3431C7.41192 19.3456 7.41435 19.348 7.41682 19.3504C7.96092 19.582 8.55055 19.7314 9.13912 19.8518V20.7675C9.13912 20.8291 9.16363 20.8883 9.20724 20.9319C9.25085 20.9755 9.30999 21 9.37166 21H12.6273C12.689 21 12.7481 20.9755 12.7917 20.9319C12.8353 20.8883 12.8599 20.8291 12.8599 20.7675V19.8518C13.9739 19.6193 15.0108 19.1889 15.9338 18.5873L16.646 19.2995C16.6677 19.3219 16.6937 19.3397 16.7224 19.3519C16.7511 19.3641 16.782 19.3704 16.8131 19.3704C16.8443 19.3704 16.8752 19.3641 16.9039 19.3519C16.9326 19.3397 16.9586 19.3219 16.9803 19.2995L19.3057 16.974C19.3488 16.9305 19.3729 16.8718 19.3729 16.8105C19.3729 16.7493 19.3488 16.6906 19.3057 16.647L18.579 15.9203C19.1766 15.002 19.617 13.97 19.8508 12.8609H20.7664C20.8281 12.8609 20.8872 12.8364 20.9309 12.7928C20.9745 12.7492 20.999 12.69 20.999 12.6283V9.37269C20.999 9.31102 20.9745 9.25187 20.9309 9.20826C20.8872 9.16465 20.8281 9.14015 20.7664 9.14014H19.8508C19.617 8.02647 19.1794 6.99487 18.579 6.07344L19.3057 5.34673C19.3488 5.3032 19.3729 5.24444 19.3729 5.18322C19.3729 5.122 19.3488 5.06325 19.3057 5.01971L16.9803 2.69425C16.9586 2.67184 16.9326 2.65401 16.9039 2.64184C16.8752 2.62967 16.8443 2.6234 16.8131 2.6234C16.782 2.6234 16.7511 2.62967 16.7224 2.64184C16.6937 2.65401 16.6677 2.67184 16.646 2.69425L15.9338 3.40642C15.0108 2.80496 13.9739 2.37447 12.8599 2.14195V1.23357C12.8599 1.1719 12.8353 1.11275 12.7917 1.06914C12.7481 1.02553 12.689 1.00103 12.6273 1.00102H9.37166C9.35716 0.999659 9.34256 0.999659 9.32806 1.00102ZM10.9995 4.25667C7.27772 4.25667 4.25565 7.27874 4.25565 11.0005C4.25565 14.7223 7.27772 17.7444 10.9995 17.7444C14.7213 17.7444 17.7433 14.7223 17.7433 11.0005C17.7433 7.27874 14.7213 4.25667 10.9995 4.25667ZM10.9995 4.72176C14.4699 4.72176 17.2782 7.53009 17.2782 11.0005C17.2782 12.756 16.5556 14.3379 15.3961 15.477C15.2252 13.5506 13.8816 11.7087 12.075 11.1677C12.6839 10.8011 13.0924 10.133 13.0924 9.37269C13.0924 8.21956 12.1526 7.27977 10.9995 7.27977C9.84636 7.27977 8.90657 8.21956 8.90657 9.37269C8.90657 10.133 9.3151 10.8011 9.92396 11.1677C8.11742 11.7087 6.77381 13.5506 6.60291 15.477C5.44334 14.3379 4.72074 12.756 4.72074 11.0005C4.72074 7.53009 7.52908 4.72176 10.9995 4.72176ZM10.9995 7.74486C11.9013 7.74486 12.6273 8.47091 12.6273 9.37269C12.6273 10.2745 11.9013 11.0005 10.9995 11.0005C10.0977 11.0005 9.37166 10.2745 9.37166 9.37269C9.37166 8.47091 10.0977 7.74486 10.9995 7.74486ZM10.9995 11.4656C11.0767 11.4656 11.1558 11.4672 11.232 11.4729C11.2326 11.49 11.235 11.5071 11.2393 11.5237L11.9369 14.0817C11.9432 14.1049 11.953 14.127 11.966 14.1472L10.9995 15.2954L10.033 14.1472C10.046 14.127 10.0558 14.1049 10.062 14.0817L10.7597 11.5237C10.764 11.5071 10.7664 11.49 10.7669 11.4729C10.8432 11.4672 10.9223 11.4656 10.9995 11.4656ZM10.2655 11.5528L9.67688 13.7257L8.61589 12.4757C8.61352 12.4733 8.6111 12.4708 8.60862 12.4685C9.09134 12.03 9.64975 11.6986 10.2655 11.5528ZM11.7335 11.5528C12.3477 11.6982 12.9084 12.0244 13.3904 12.4612C13.3878 12.466 13.3853 12.4708 13.3831 12.4757L12.3221 13.7257L11.7335 11.5528ZM8.2816 12.7882L10.8251 15.7968C10.8469 15.8215 10.8737 15.8413 10.9038 15.8549C10.9339 15.8685 10.9665 15.8755 10.9995 15.8755C11.0325 15.8755 11.0651 15.8685 11.0952 15.8549C11.1252 15.8413 11.1521 15.8215 11.1739 15.7968L13.7174 12.7882C14.474 13.6273 14.9528 14.7585 14.9528 15.884C13.8739 16.7582 12.4976 17.2793 10.9995 17.2793C9.50134 17.2793 8.12511 16.7582 7.0462 15.884C7.0462 14.7585 7.52497 13.6273 8.2816 12.7882Z" stroke="#4F4F4F" stroke-width="0.6" mask="url(#path-1-outside-1_2433_2983)"/>
</svg>
