<svg width="55" height="63" viewBox="0 0 55 63" fill="none" xmlns="http://www.w3.org/2000/svg">
<path d="M1.33738 61.5599C1.68063 61.5599 2.00983 61.4235 2.25254 61.1808C2.49526 60.9381 2.63162 60.6089 2.63162 60.2656C2.63122 59.757 2.78641 59.2603 3.07635 58.8424C3.3663 58.4244 3.77713 58.1052 4.25373 57.9274C4.38254 57.8751 4.50201 57.8022 4.60749 57.7117C4.71033 57.6198 4.79773 57.512 4.86634 57.3924V57.3407C4.93067 57.2162 4.97438 57.0822 4.99576 56.9438C5.079 56.346 5.37546 55.7985 5.83052 55.4021C6.28558 55.0057 6.86857 54.7872 7.47207 54.7867C7.67032 54.7848 7.86785 54.811 8.05879 54.8644H8.16233H8.33489H8.43843H8.6714H8.75768C8.85073 54.837 8.94045 54.7994 9.02515 54.7522L9.21498 54.6055C9.27966 54.5622 9.34031 54.5131 9.39617 54.4588L9.49108 54.4071C9.56196 54.3286 9.62282 54.2417 9.67227 54.1482C9.82422 53.8549 10.0327 53.5946 10.2858 53.3823C10.5388 53.17 10.8314 53.0099 11.1467 52.9112C11.4619 52.8126 11.7935 52.7773 12.1225 52.8074C12.4514 52.8376 12.7711 52.9326 13.0632 53.0869H13.1063L13.2357 53.1387H13.3479H13.4773H13.8052H13.9433H14.0468L14.1762 53.0869L14.2711 53.0352L14.3833 52.9575L14.5127 52.8799L14.6076 52.7849L14.668 52.7159L14.7457 52.5951V52.5434V52.5002L14.7975 52.3708V52.2586C14.7975 52.2586 14.7975 52.181 14.7975 52.1378C14.7999 52.0918 14.7999 52.0458 14.7975 51.9998C14.7975 51.9998 14.7975 51.9998 14.7975 51.948C14.7975 51.2844 15.0611 50.6479 15.5303 50.1787C15.9996 49.7094 16.636 49.4458 17.2997 49.4458C17.8756 49.4125 18.4451 49.5814 18.9098 49.9232C19.3745 50.2651 19.7052 50.7584 19.845 51.3181V51.3872C19.857 51.4311 19.8714 51.4743 19.8881 51.5166L19.9485 51.6374L20.0003 51.7323L20.0952 51.8531L20.147 51.9135L20.3195 52.017H20.3713L20.5266 52.1119H20.587L20.7078 52.2327H20.7941H20.9408H21.2255C21.7838 52.232 22.3262 52.4187 22.7658 52.7629C23.2054 53.1071 23.5168 53.5888 23.65 54.131V54.1827C23.684 54.2954 23.7334 54.4028 23.7967 54.502V54.5624C23.8669 54.663 23.9512 54.7531 24.0469 54.8298H24.0901C24.1879 54.9021 24.2953 54.9602 24.4093 55.0024C24.5294 55.0406 24.6544 55.061 24.7803 55.0628H24.8666H25.0565H25.2808C25.4585 55.0168 25.6409 54.9908 25.8244 54.9852C25.9891 55.13 26.1892 55.2286 26.4044 55.2711C26.6196 55.3135 26.8422 55.2982 27.0496 55.2267C27.4829 55.4336 27.8476 55.7609 28.1 56.1694C28.3525 56.5779 28.482 57.0504 28.4732 57.5305C28.4732 57.5995 28.4732 57.6772 28.4732 57.7462C28.4548 58.0154 28.5215 58.2836 28.664 58.5128C28.8065 58.742 29.0174 58.9206 29.267 59.0232L29.4655 59.0836H29.5518H29.6553H29.7589C30.4225 59.0836 31.0589 59.3472 31.5282 59.8164C31.9974 60.2857 32.261 60.9221 32.261 61.5858C32.261 61.929 32.3974 62.2582 32.6401 62.5009C32.8828 62.7436 33.212 62.88 33.5553 62.88C33.8985 62.88 34.2277 62.7436 34.4704 62.5009C34.7132 62.2582 34.8495 61.929 34.8495 61.5858C34.8463 60.449 34.4633 59.3459 33.7614 58.4517C33.0595 57.5575 32.0789 56.9235 30.9754 56.6504C30.7861 55.4507 30.1741 54.3581 29.2498 53.5701L29.4137 53.4407L29.4914 53.363C29.5581 53.2895 29.616 53.2084 29.6639 53.1214C29.874 52.7123 30.1931 52.3693 30.586 52.1302C30.9788 51.8911 31.4301 51.7654 31.89 51.7668C32.2992 51.7682 32.7018 51.8689 33.0635 52.0602H33.1066L33.236 52.1119H33.3482H33.4776H33.8573H33.9867H34.0902L34.2197 52.0602L34.3059 52.017L34.4095 51.948L34.513 51.8876L34.5993 51.8013L34.677 51.7064L34.7546 51.5942V51.5339V51.4821L34.8064 51.3527V51.2319C34.8064 51.2319 34.8064 51.1542 34.8064 51.1111C34.8089 51.0651 34.8089 51.019 34.8064 50.973C34.8064 50.973 34.8064 50.973 34.8064 50.9212C34.8064 50.2576 35.07 49.6212 35.5393 49.1519C36.0085 48.6827 36.645 48.419 37.3086 48.419C37.8849 48.3841 38.4552 48.5523 38.9202 48.8944C39.3853 49.2365 39.7157 49.7308 39.8539 50.2914V50.369V50.4812L39.9143 50.602L39.9661 50.6883L40.061 50.8177L40.1128 50.8781L40.2422 50.9903H40.2939L40.5097 51.1542H40.5528L40.7081 51.2146H40.7944H40.9411H41.2431C41.8017 51.2124 42.3449 51.3985 42.7848 51.7429C43.2247 52.0873 43.5357 52.5699 43.6676 53.1128V53.225C43.7015 53.3377 43.7509 53.4451 43.8143 53.5442V53.6046C43.8838 53.7083 43.9681 53.8013 44.0645 53.8807C44.1623 53.953 44.2698 54.0111 44.3837 54.0533C44.5038 54.0915 44.6288 54.1119 44.7548 54.1137H44.8324H45.0309H45.1517C45.5239 54.0065 45.916 53.9874 46.2968 54.0581C46.6777 54.1288 47.0368 54.2872 47.3458 54.5208C47.6548 54.7544 47.9051 55.0568 48.0769 55.404C48.2487 55.7512 48.3372 56.1336 48.3355 56.521C48.3355 56.59 48.3355 56.6677 48.3355 56.7367C48.3149 57.0268 48.3933 57.3152 48.5579 57.555C48.7224 57.7948 48.9634 57.9717 49.2415 58.0568H49.4658H49.5521H49.6556H49.7591C50.4228 58.0568 51.0592 58.3204 51.5285 58.7897C51.9977 59.2589 52.2613 59.8954 52.2613 60.559C52.2613 60.9023 52.3977 61.2315 52.6404 61.4742C52.8831 61.7169 53.2123 61.8532 53.5556 61.8532C53.8988 61.8532 54.228 61.7169 54.4707 61.4742C54.7135 61.2315 54.8498 60.9023 54.8498 60.559C54.8466 59.4222 54.4636 58.3192 53.7617 57.425C53.0598 56.5308 52.0792 55.8968 50.9757 55.6236C50.7762 54.4372 50.1636 53.3594 49.2463 52.581C48.3289 51.8026 47.1658 51.3736 45.9627 51.3699H45.747C45.3833 50.6623 44.8578 50.0504 44.2131 49.5842C43.5684 49.1179 42.8228 48.8103 42.0369 48.6865C41.606 47.7737 40.9131 47.0098 40.0465 46.4923C39.1798 45.9748 38.1787 45.7271 37.1707 45.7808C36.1627 45.8345 35.1935 46.1871 34.3868 46.7937C33.58 47.4004 32.9721 48.2335 32.6407 49.187C31.7737 49.0442 30.8843 49.1334 30.063 49.4456C29.2416 49.7578 28.5175 50.2818 27.9642 50.9644V47.5476C29.4206 47.3223 30.8055 46.7646 32.0115 45.9177C33.2175 45.0708 34.2123 43.9574 34.9185 42.664H35.2551H35.7641C38.7031 42.6325 41.5209 41.4887 43.6503 39.4629C45.147 38.0175 46.3441 36.2913 47.1732 34.3829C48.0023 32.4745 48.4471 30.4215 48.4822 28.3411C48.7496 20.2392 43.3915 13.3883 36.4975 12.9138C36.5407 12.5341 36.5838 12.1545 36.5924 11.7748C36.7995 5.53661 32.6062 0.256112 27.248 0.00589299C26.0631 -0.0372981 24.8816 0.157277 23.7731 0.578138C22.6647 0.998999 21.6517 1.63762 20.7941 2.45632C18.4991 4.67804 17.1775 7.71833 17.1185 10.912C17.0977 11.5747 17.1265 12.2381 17.2047 12.8965C10.2159 13.2416 4.75417 20.1615 5.02164 28.3411C5.05674 30.4215 5.50154 32.4745 6.33062 34.3829C7.1597 36.2913 8.3568 38.0175 9.85347 39.4629C11.9802 41.4874 14.7949 42.6312 17.7311 42.664H18.2315L18.801 42.6209C19.4716 43.8613 20.4079 44.9384 21.5429 45.7751C22.6779 46.6118 23.9838 47.1876 25.3671 47.4613V51.6029L25.2463 51.6633C24.4567 50.6396 23.305 49.9572 22.0279 49.7564C21.5928 48.8473 20.8971 48.0881 20.0294 47.5753C19.1617 47.0626 18.1611 46.8194 17.1548 46.8768C16.1486 46.9341 15.1821 47.2894 14.3782 47.8974C13.5744 48.5054 12.9695 49.3387 12.6404 50.2914C11.752 50.1467 10.8409 50.2451 10.0039 50.5763C9.16693 50.9074 8.43515 51.459 7.88622 52.1723H7.56698C6.46625 52.1756 5.39623 52.5356 4.51732 53.1982C3.63842 53.8609 2.99798 54.7906 2.69202 55.848C1.89007 56.2773 1.21755 56.9133 0.744203 57.6901C0.270856 58.4669 0.013908 59.3561 1.99865e-07 60.2656C-9.63022e-05 60.4393 0.0347542 60.6112 0.102477 60.7711C0.1702 60.931 0.269409 61.0756 0.394197 61.1964C0.518985 61.3172 0.666799 61.4116 0.828837 61.474C0.990875 61.5365 1.16382 61.5657 1.33738 61.5599ZM20.7078 40.6881L20.6647 40.6191L20.587 40.4897L20.5094 40.4034L20.4231 40.3085L20.3282 40.2308L20.2246 40.1532L20.1211 40.0928L20.0089 40.041H19.8881H19.7673H19.6293H19.4912H19.3359H19.2583C18.8855 40.1142 18.5076 40.1575 18.128 40.1704C16.9302 40.2081 15.737 40.0061 14.6184 39.5765C13.4997 39.1468 12.4782 38.498 11.6136 37.6682C9.09898 35.2211 7.65896 31.8755 7.61012 28.367C7.38579 21.5161 11.7603 15.7783 17.36 15.5195C17.7775 15.4972 18.1962 15.5116 18.6111 15.5626H18.8096H19.0426H19.103L19.2324 15.5109L19.3445 15.4677H19.4049C19.5313 15.3981 19.6451 15.3077 19.7414 15.2003C19.7869 15.1097 19.8217 15.0141 19.845 14.9155V14.8465C19.8718 14.7935 19.8948 14.7387 19.914 14.6826V14.6135C19.9183 14.5532 19.9183 14.4927 19.914 14.4323C19.914 14.4323 19.914 14.3806 19.914 14.3547C19.9328 14.252 19.9328 14.1468 19.914 14.0441C19.914 14.0441 19.914 13.9837 19.914 13.9492C19.6697 12.9971 19.5622 12.0151 19.5948 11.0328C19.6271 8.53116 20.6512 6.14465 22.4421 4.39768C23.0503 3.81904 23.7684 3.36821 24.5538 3.07181C25.3393 2.77542 26.1762 2.63948 27.0151 2.67202C30.9668 2.85322 34.0557 6.93438 33.9177 11.7662C33.8935 12.5109 33.7923 13.2512 33.6157 13.975C33.6157 13.975 33.6157 14.0182 33.6157 14.0441C33.6129 14.0929 33.6129 14.1419 33.6157 14.1907C33.6157 14.1907 33.6157 14.277 33.6157 14.3202C33.6157 14.3633 33.6157 14.3719 33.6157 14.3978C33.6157 14.4237 33.6157 14.3978 33.6157 14.4496C33.6135 14.4927 33.6135 14.5359 33.6157 14.579C33.6157 14.579 33.6157 14.6567 33.6157 14.6912C33.6306 14.7352 33.6479 14.7784 33.6675 14.8206L33.8314 14.9155L33.9177 15.0449L33.9694 15.1226L34.0816 15.2348L34.1506 15.2952L34.2628 15.3728L34.375 15.4418H34.4699L34.6252 15.5022H34.7028H34.8754H35.0739C35.433 15.4796 35.7932 15.4796 36.1524 15.5022C41.7521 15.7611 46.118 21.4989 45.8937 28.2807C45.8449 31.7892 44.4048 35.1348 41.8902 37.582C41.0273 38.4152 40.0064 39.0674 38.8877 39.5001C37.7689 39.9328 36.5748 40.1373 35.3758 40.1014C35.052 40.0856 34.7293 40.0511 34.4095 39.9979H34.0816H33.9436H33.8314L33.7106 40.041L33.6071 40.0928L33.4949 40.1618L33.4 40.2308L33.2964 40.3171L33.2102 40.4034L33.1325 40.4983L33.0635 40.6191V40.6795C32.6069 41.7289 31.9098 42.6562 31.0284 43.3861C30.147 44.1161 29.1062 44.6284 27.9901 44.8815V34.1652L36.5148 24.6741C36.7436 24.4178 36.8613 24.0811 36.8418 23.738C36.8224 23.395 36.6675 23.0737 36.4112 22.8449C36.1549 22.6161 35.8182 22.4984 35.4752 22.5178C35.1322 22.5372 34.8109 22.6921 34.582 22.9484L27.9555 30.2825V14.9155C27.9555 14.5723 27.8192 14.2431 27.5765 14.0004C27.3338 13.7576 27.0046 13.6213 26.6613 13.6213C26.3181 13.6213 25.9889 13.7576 25.7461 14.0004C25.5034 14.2431 25.3671 14.5723 25.3671 14.9155V40.7226L18.9822 30.6621C18.8934 30.5136 18.7757 30.3844 18.6362 30.2822C18.4966 30.1799 18.338 30.1067 18.1697 30.0668C18.0013 30.027 17.8267 30.0212 17.6561 30.05C17.4855 30.0788 17.3224 30.1414 17.1765 30.2343C17.0305 30.3272 16.9047 30.4484 16.8063 30.5907C16.708 30.7331 16.6393 30.8937 16.6041 31.0631C16.5689 31.2325 16.5681 31.4072 16.6016 31.5769C16.6351 31.7467 16.7023 31.9079 16.7992 32.0512L24.8321 44.6744C22.987 43.9392 21.5054 42.5072 20.7078 40.6881Z" fill="#989FAD"/>
</svg>
