<svg width="18" height="18" viewBox="0 0 18 18" fill="none" xmlns="http://www.w3.org/2000/svg">
<path fill-rule="evenodd" clip-rule="evenodd" d="M16.8826 0.632033C16.0399 -0.210682 14.6736 -0.210673 13.8309 0.632033L6.22958 8.23338C6.10394 8.35902 6.01829 8.51904 5.98344 8.69328L5.4174 11.5235C5.35838 11.8185 5.45074 12.1236 5.66352 12.3364C5.8763 12.5491 6.18134 12.6416 6.47642 12.5825L9.30671 12.0164C9.48095 11.9816 9.64097 11.896 9.76661 11.7704L17.3679 4.16903C18.2106 3.32632 18.2106 1.96002 17.3679 1.11731L16.8826 0.632033ZM7.69508 9.31347L13.0926 3.91596L14.0839 4.90737L8.68643 10.3049L7.44722 10.5527L7.69508 9.31347ZM14.3653 2.64317L15.3568 3.63459L16.095 2.89623C16.2348 2.75647 16.2348 2.52986 16.095 2.3901L15.6098 1.90482C15.4701 1.76506 15.2435 1.76506 15.1037 1.90482L14.3653 2.64317Z" fill="#858D9D"/>
<path d="M1.8 4.4998C1.8 4.00275 2.20295 3.5998 2.7 3.5998H8.1V1.7998H2.7C1.20883 1.7998 0 3.00864 0 4.4998V15.2998C0 16.791 1.20883 17.9998 2.7 17.9998H13.5C14.9912 17.9998 16.2 16.791 16.2 15.2998V9.89981H14.4V15.2998C14.4 15.7969 13.9971 16.1998 13.5 16.1998H2.7C2.20295 16.1998 1.8 15.7969 1.8 15.2998V4.4998Z" fill="#858D9D"/>
</svg>
