<svg width="80" height="100" viewBox="0 0 80 100" fill="none" xmlns="http://www.w3.org/2000/svg">
<path d="M2.13871 81.1028H11.3358V73.5142H13.4745V91.0508H11.3358V83.0295H2.13871V91.0508H0V73.5142H2.13871V81.1028Z" fill="#679767"/>
<path d="M16.1641 91.0497L23.3146 73.5132H25.1647L32.3152 91.0497H29.9932L27.8969 85.7678H20.5573L18.461 91.0497H16.1651H16.1641ZM24.2197 76.2394C23.4366 78.422 22.6886 80.4058 21.9763 82.1896L21.3199 83.8411H27.1379L26.4726 82.1912C25.7524 80.3749 25.0191 78.3912 24.2721 76.2394H24.2197Z" fill="#679767"/>
<path d="M39.8578 91.0497H37.7191V75.4399H31.8545V73.5132H45.7223V75.4399H39.8578V91.0497Z" fill="#679767"/>
<path d="M48.4785 91.0497V73.5132H50.6172V91.0497H48.4785Z" fill="#679767"/>
<path d="M64.3795 91.0497H63.3952L58.9738 80.5774C58.3614 79.1358 57.7491 77.5676 57.1368 75.8721H57.032C57.1546 78.3101 57.2159 80.5424 57.2159 82.5695V91.0492H55.0771V73.5127H58.1603L62.2931 83.4345C62.7656 84.5706 63.2858 85.9379 63.8546 87.537H63.9201C64.5497 85.7631 65.0699 84.3958 65.4816 83.4345L69.6144 73.5127H72.6976V91.0492H70.5589V82.5695C70.5589 80.5863 70.6201 78.3535 70.7427 75.8721H70.638C69.9905 77.6633 69.3782 79.2321 68.801 80.5774L64.3795 91.0497Z" fill="#679767"/>
<path d="M77.1582 91.0497V73.5132H79.2969V91.0497H77.1582Z" fill="#679767"/>
<path d="M5.22727 97.4851V99.8916H4.51855V94.0791H6.02608C6.28065 94.0791 6.49698 94.0885 6.6756 94.1074C6.8537 94.1262 7.0166 94.156 7.16431 94.1963C7.56974 94.3062 7.87984 94.4941 8.09408 94.7588C8.30831 95.0236 8.41569 95.3548 8.41569 95.7515C8.41569 95.9859 8.37798 96.1963 8.30255 96.3815C8.22712 96.5668 8.12131 96.7274 7.98512 96.864C7.84893 97 7.68603 97.1115 7.49589 97.1983C7.30574 97.2852 7.09517 97.349 6.86312 97.3893V97.4066L8.58489 99.8916H7.87617L6.08474 97.4851H5.22832H5.22727ZM5.22727 94.718V96.8467H5.92708C6.14446 96.8467 6.32989 96.8394 6.48389 96.8247C6.63736 96.8101 6.77512 96.7844 6.89717 96.7468C7.14336 96.6714 7.3335 96.5511 7.46655 96.3862C7.60012 96.2214 7.66665 96.0053 7.66665 95.7389C7.6635 95.4899 7.60012 95.2894 7.47546 95.1372C7.35079 94.9849 7.17846 94.876 6.95793 94.8091C6.8537 94.7771 6.72903 94.7541 6.58393 94.7395C6.43884 94.7248 6.25498 94.7175 6.03132 94.7175H5.22674L5.22727 94.718Z" fill="#679767"/>
<path d="M14.9509 99.2527H17.934V99.8911H14.2422V94.0786H17.7732V94.7169H14.9509V96.5934H17.4599V97.2318H14.9509V99.2517V99.2527Z" fill="#679767"/>
<path d="M25.6916 99.8916H24.9829V94.718H23.0391V94.0796H27.6355V94.718H25.6916V99.8916Z" fill="#679767"/>
<path d="M33.7107 97.4851V99.8916H33.002V94.0791H34.5095C34.764 94.0791 34.9804 94.0885 35.159 94.1074C35.3371 94.1262 35.5 94.156 35.6477 94.1963C36.0531 94.3062 36.3632 94.4941 36.5775 94.7588C36.7917 95.0236 36.8991 95.3548 36.8991 95.7515C36.8991 95.9859 36.8614 96.1963 36.786 96.3815C36.7105 96.5668 36.6047 96.7274 36.4685 96.864C36.3323 97 36.1694 97.1115 35.9793 97.1983C35.7897 97.2852 35.5786 97.349 35.3465 97.3893V97.4066L37.0683 99.8916H36.3596L34.5681 97.4851H33.7117H33.7107ZM33.7107 94.718V96.8467H34.4105C34.6279 96.8467 34.8133 96.8394 34.9673 96.8247C35.1208 96.8101 35.2585 96.7844 35.3806 96.7468C35.6268 96.6714 35.8169 96.5511 35.9499 96.3862C36.0835 96.2214 36.15 96.0053 36.15 95.7389C36.1469 95.4899 36.0835 95.2894 35.9589 95.1372C35.8342 94.9849 35.6619 94.876 35.4413 94.8091C35.3371 94.7771 35.2124 94.7541 35.0673 94.7395C34.9222 94.7248 34.7384 94.7175 34.5147 94.7175H33.7101L33.7107 94.718Z" fill="#679767"/>
<path d="M43.4343 99.2527H46.4174V99.8911H42.7256V94.0786H46.2566V94.7169H43.4343V96.5934H45.9434V97.2318H43.4343V99.2517V99.2527Z" fill="#679767"/>
<path d="M51.501 99.8916L53.8707 94.0791H54.4841L56.8538 99.8916H56.0843L55.3897 98.1408H52.9572L52.2626 99.8916H51.5015H51.501ZM54.1708 94.9828C53.9116 95.7065 53.6633 96.3637 53.4275 96.955L53.2102 97.5024H55.1383L54.9178 96.9555C54.6789 96.3538 54.4359 95.696 54.1881 94.9828H54.1708Z" fill="#679767"/>
<path d="M63.8069 99.8916H63.0982V94.718H61.1543V94.0796H65.7507V94.718H63.8069V99.8916Z" fill="#679767"/>
<path d="M71.6816 95.617C71.6816 95.7881 71.7162 95.9289 71.7858 96.0403C71.855 96.1518 71.9482 96.2439 72.0656 96.3161C72.1829 96.3883 72.3185 96.448 72.4731 96.494C72.6276 96.5406 72.7889 96.584 72.9566 96.6243C73.1818 96.6792 73.4039 96.7399 73.6223 96.8069C73.8407 96.8734 74.0351 96.9655 74.2053 97.0827C74.3761 97.1999 74.5138 97.3527 74.6196 97.5411C74.7249 97.7295 74.7778 97.9712 74.7778 98.2663C74.7778 98.5615 74.7207 98.8273 74.6066 99.046C74.4924 99.2647 74.3342 99.4442 74.1325 99.5845C73.9308 99.7252 73.692 99.8294 73.417 99.8974C73.1415 99.9654 72.8403 99.9994 72.5124 99.9994C72.3615 99.9994 72.207 99.99 72.0493 99.9712C71.8911 99.9523 71.7408 99.9272 71.5973 99.8953C71.4537 99.8634 71.3238 99.8273 71.2081 99.7864C71.0923 99.7462 71.0006 99.7053 70.9341 99.6651V99.0178C71.0384 99.0701 71.1557 99.1177 71.2861 99.1611C71.4166 99.2046 71.5517 99.2417 71.6905 99.2721C71.8293 99.3024 71.9702 99.3265 72.1122 99.3438C72.2541 99.361 72.3877 99.3699 72.5124 99.3699C72.7151 99.3699 72.9089 99.3527 73.0927 99.3176C73.2771 99.2831 73.4385 99.225 73.5778 99.1439C73.7166 99.0628 73.8271 98.9518 73.9083 98.8116C73.9895 98.6713 74.0304 98.495 74.0304 98.2836C74.0304 98.1099 73.9947 97.9665 73.9235 97.8535C73.8523 97.7404 73.7575 97.6473 73.6385 97.5735C73.5196 97.4997 73.3824 97.4396 73.2279 97.393C73.0728 97.3469 72.9099 97.303 72.7386 97.2627C72.5124 97.2104 72.2918 97.1518 72.0755 97.0869C71.8597 97.0215 71.6669 96.9315 71.4972 96.8153C71.3275 96.6997 71.1913 96.5505 71.0881 96.3679C70.9855 96.1853 70.9336 95.9524 70.9336 95.6683C70.9336 95.3841 70.9876 95.1188 71.096 94.9059C71.2039 94.6929 71.3506 94.5171 71.5349 94.3779C71.7198 94.2387 71.9325 94.1361 72.1729 94.0697C72.4134 94.0032 72.67 93.9697 72.9424 93.9697C73.2525 93.9697 73.5416 93.9996 73.8098 94.0587C74.078 94.1183 74.3237 94.1958 74.5468 94.291V94.9472C74.3064 94.8457 74.0576 94.7635 73.8009 94.6997C73.5443 94.6359 73.2693 94.6029 72.977 94.5997C72.7565 94.5997 72.5653 94.6238 72.4029 94.6714C72.2405 94.7191 72.1059 94.7871 71.9985 94.8755C71.8911 94.9639 71.8115 95.0712 71.7591 95.1968C71.7067 95.3229 71.6811 95.4626 71.6811 95.6159L71.6816 95.617Z" fill="#679767"/>
<path d="M39.65 0C55.6445 0 68.657 13.0437 68.657 29.0768V60.2656C68.657 61.5811 67.7372 62.5 66.4203 62.5H47.8361V61.4571H66.4203C67.2364 61.4571 67.7136 61.0662 67.7136 60.2122V29.0768C67.7136 14.1855 55.2643 0.973292 39.65 0.973292C24.0358 0.973292 11.5864 14.1855 11.5864 29.0768V60.2122C11.5864 61.0668 12.0636 61.4571 12.8797 61.4571H31.4639V62.5H12.8802C11.5634 62.5 10.6436 61.5811 10.6436 60.2656V29.0768C10.643 13.0437 23.6555 0 39.65 0Z" fill="#679767"/>
<path d="M34.6881 66.4554H10.6416V64.3215L32.4913 64.3822V43.8086C32.4913 40.9274 31.7679 38.1373 22.134 33.904C18.7512 32.4179 16.679 31.0496 15.4104 29.9407V59.1165H13.2743V29.5938C13.2743 28.7079 13.3183 27.8152 13.4057 26.9392C13.4057 26.9392 13.5849 25.0366 14.2019 23.3684C14.4895 25.1413 15.5083 26.788 15.5083 26.788C15.6246 27.0544 16.7241 29.1961 22.9935 31.9507C31.7364 35.792 34.6876 38.7689 34.6876 43.7474V66.4549L34.6881 66.4554Z" fill="#679767"/>
<path d="M44.3755 43.7474C44.3755 38.7684 47.4047 35.7915 56.1476 31.9507C62.4171 29.1961 63.5171 27.0544 63.6329 26.788C63.6329 26.788 64.6517 25.1418 64.9392 23.3684C65.5568 25.0361 65.7354 26.9392 65.7354 26.9392C65.8229 27.8152 65.8669 28.7084 65.8669 29.5938V59.1165H63.7308V29.9407C62.4621 31.049 60.3899 32.4179 57.0072 33.904C47.3733 38.1368 46.5891 40.8662 46.5891 43.7479V64.3215H68.6546V66.4554H44.375V43.7479L44.3755 43.7474Z" fill="#679767"/>
<path d="M42.4533 23.3684C42.4533 23.3684 41.2313 24.9953 39.7478 24.9953C38.2644 24.9953 37.1016 23.3684 37.1016 23.3684C37.1016 23.3684 38.2524 21.7416 39.7478 21.7416C41.0532 21.7416 42.4533 23.3684 42.4533 23.3684Z" fill="#679767"/>
<path d="M32.9046 32.4703C32.9046 32.4703 30.8859 32.7356 29.8482 31.677C28.8022 30.6095 29.161 28.6499 29.161 28.6499C29.161 28.6499 31.13 28.3338 32.1755 29.4013C33.0885 30.3332 32.9041 32.4708 32.9041 32.4708L32.9046 32.4703Z" fill="#679767"/>
<path d="M21.5673 25.9398C21.5673 25.9398 19.349 25.8598 18.4255 24.5338C17.4947 23.1973 18.2354 21.1555 18.2354 21.1555C18.2354 21.1555 20.4092 21.1717 21.34 22.5082C22.1524 23.6751 21.5673 25.9398 21.5673 25.9398Z" fill="#679767"/>
<path d="M46.2022 32.4703C46.2022 32.4703 48.221 32.7356 49.2587 31.677C50.3047 30.6095 49.9459 28.6499 49.9459 28.6499C49.9459 28.6499 47.9769 28.3338 46.9314 29.4013C46.0184 30.3332 46.2028 32.4708 46.2028 32.4708L46.2022 32.4703Z" fill="#679767"/>
<path d="M57.9743 25.9398C57.9743 25.9398 60.1927 25.8598 61.1161 24.5338C62.047 23.1973 61.3063 21.1555 61.3063 21.1555C61.3063 21.1555 59.1325 21.1717 58.2017 22.5082C57.3892 23.6751 57.9743 25.9398 57.9743 25.9398Z" fill="#679767"/>
<path d="M49.8418 15.7166C49.8418 15.7166 52.1686 15.6328 53.1371 14.242C54.1135 12.8401 53.3367 10.6984 53.3367 10.6984C53.3367 10.6984 51.0565 10.7151 50.0802 12.1175C49.2279 13.3414 49.8418 15.7171 49.8418 15.7171V15.7166Z" fill="#679767"/>
<path d="M29.4157 15.7166C29.4157 15.7166 27.089 15.6328 26.1204 14.242C25.144 12.8401 25.9209 10.6984 25.9209 10.6984C25.9209 10.6984 28.201 10.7151 29.1774 12.1175C30.0296 13.3414 29.4157 15.7171 29.4157 15.7171V15.7166Z" fill="#679767"/>
<path d="M39.6288 13.2075C39.6288 13.2075 37.3047 11.465 37.3047 9.35042C37.3047 7.23586 39.6288 5.57812 39.6288 5.57812C39.6288 5.57812 41.953 7.21912 41.953 9.35042C41.953 11.2112 39.6288 13.2075 39.6288 13.2075Z" fill="#679767"/>
<path d="M45.2391 51.3574H33.7666V53.5441H45.2391V51.3574Z" fill="#679767"/>
<path d="M36.6659 31.913C33.9814 35.4048 32.499 39.5287 32.499 44.8677H34.688C34.688 40.1875 35.9226 36.557 38.2321 33.4519C37.7612 32.9443 37.2411 32.431 36.6665 31.913H36.6659Z" fill="#679767"/>
<path d="M58.6499 10.5367L58.5933 10.5351C58.5829 10.7983 58.233 17.0321 49.3387 22.0278C44.737 24.6122 40.9116 27.2019 38.0752 30.2505C38.6404 30.7586 39.1605 31.2652 39.6361 31.7675C42.2777 28.9094 45.9156 26.4589 50.4114 23.9336C57.4263 19.9933 59.6944 15.2079 60.4288 12.5727C59.8699 11.8642 59.278 11.1834 58.6499 10.5367Z" fill="#679767"/>
<path d="M30.5845 22.9974C20.8877 17.1341 20.6504 11.2483 20.6494 11.186H20.597C19.9821 11.8642 19.4059 12.5764 18.8643 13.3158C19.6468 15.8045 21.9516 20.1304 28.7134 24.4123C29.3279 23.8844 29.9596 23.415 30.5845 22.9974Z" fill="#679767"/>
<path d="M32.7744 24.2407C32.1133 24.6337 31.4266 25.0937 30.752 25.6243C30.984 25.754 31.2187 25.8833 31.4596 26.0125C43.4564 32.4352 44.3888 39.782 44.3888 41.8808V49.9089H46.5778V41.8808C46.5778 39.4926 45.571 31.206 32.7744 24.2412V24.2407Z" fill="#679767"/>
<path d="M51.5684 25.7368C51.5244 25.7614 51.482 25.786 51.4385 25.8106C53.308 27.7132 54.1932 29.8424 54.1932 32.7738H56.3822C56.3822 29.3537 55.2921 26.8095 53.3362 24.662C52.7826 25.0257 52.1954 25.3846 51.5684 25.7368Z" fill="#679767"/>
<path d="M49.6861 24.291C49.9532 24.1377 50.223 23.9843 50.4954 23.831C50.9176 23.594 51.3146 23.3533 51.6996 23.111C48.9271 20.806 45.0525 18.8772 40.4157 16.5727C31.9379 12.3593 31.2444 5.15846 31.1883 4.12238C30.4686 4.37826 29.7636 4.66449 29.0742 4.98002C29.3969 7.48337 31.0427 14.3566 39.4404 18.5308C43.9137 20.7542 47.296 22.4883 49.6856 24.291H49.6861Z" fill="#679767"/>
<path d="M27.307 26.0816C27.351 26.1062 27.3934 26.1308 27.4369 26.1554C25.5674 28.0581 24.6822 30.1873 24.6822 33.1186H22.4932C22.4932 29.6985 23.5832 27.1544 25.5391 25.0068C26.0928 25.3705 26.68 25.7295 27.307 26.0816Z" fill="#679767"/>
<path d="M38.6935 18.0828C39.0853 18.2775 39.4697 18.469 39.8506 18.6589C47.8916 14.4507 49.7254 7.26513 50.0428 4.80416C49.3535 4.48863 48.7082 4.29397 47.9885 4.03809C47.9324 5.07469 46.9372 12.7041 38.4598 16.9175C38.122 17.0854 37.7904 17.2503 37.4609 17.4141C37.8538 17.6432 38.2608 17.8677 38.6935 18.0828Z" fill="#679767"/>
<path d="M35.1738 18.5626C31.9969 20.1801 29.3134 21.6787 27.2266 23.4139C27.6116 23.6562 27.875 23.8058 28.2558 24.1052C28.5612 24.3459 28.8362 24.54 29.1034 24.6933C31.1206 23.1722 33.9088 21.6567 37.4183 19.8849C36.6069 19.4674 35.8605 19.0247 35.1738 18.5631V18.5626Z" fill="#679767"/>
</svg>
