<svg width="58" height="57" viewBox="0 0 58 57" fill="none" xmlns="http://www.w3.org/2000/svg">
<path d="M39.6765 18.4747C39.6864 18.9081 39.6042 19.3388 39.4353 19.7381C39.2664 20.1374 39.0147 20.4964 38.6967 20.7912C38.5354 20.9582 38.409 21.1558 38.325 21.3724C38.2411 21.5889 38.2012 21.8201 38.2078 22.0522C38.2144 22.2844 38.2672 22.5129 38.3633 22.7244C38.4594 22.9358 38.5968 23.1259 38.7674 23.2836C38.9379 23.4412 39.1383 23.5632 39.3566 23.6424C39.575 23.7215 39.8069 23.7563 40.0389 23.7446C40.2709 23.7329 40.4981 23.675 40.7074 23.5742C40.9167 23.4735 41.1038 23.332 41.2576 23.158C41.8726 22.5446 42.3589 21.8146 42.688 21.0108C43.0171 20.207 43.1823 19.3456 43.1741 18.477C43.1575 17.4351 42.913 16.4094 42.4577 15.4721C42.0025 14.5347 41.3476 13.7084 40.5389 13.0511C39.4897 12.0114 38.9411 11.4077 38.9411 10.1045C38.9411 8.80133 39.4873 8.20244 40.5389 7.16516C41.3476 6.50894 42.0026 5.68348 42.4578 4.74687C42.9131 3.81026 43.1576 2.78525 43.1741 1.74398C43.1741 1.28145 42.9903 0.837858 42.6633 0.510799C42.3362 0.18374 41.8926 0 41.4301 0C40.9675 0 40.524 0.18374 40.1969 0.510799C39.8698 0.837858 39.6861 1.28145 39.6861 1.74398C39.6861 3.04477 39.1399 3.64606 38.0883 4.68334C37.2796 5.33956 36.6246 6.16502 36.1693 7.10163C35.7141 8.03824 35.4696 9.06325 35.4531 10.1045C35.4697 11.1465 35.7142 12.1721 36.1695 13.1095C36.6247 14.0469 37.2796 14.8732 38.0883 15.5305C39.116 16.5798 39.6765 17.1715 39.6765 18.4747Z" fill="#989FAD"/>
<path d="M16.5219 18.4747C16.5317 18.9081 16.4494 19.3387 16.2805 19.738C16.1116 20.1373 15.86 20.4963 15.5422 20.7912C15.3868 20.9595 15.266 21.1567 15.1868 21.3717C15.1077 21.5867 15.0716 21.8151 15.0807 22.044C15.0992 22.5063 15.3005 22.9424 15.6404 23.2562C15.9803 23.5701 16.431 23.7361 16.8932 23.7176C17.3555 23.6992 17.7916 23.4979 18.1054 23.158C18.7204 22.5446 19.2067 21.8146 19.5358 21.0108C19.8649 20.207 20.0302 19.3456 20.0219 18.477C20.0051 17.4351 19.7606 16.4095 19.3053 15.4722C18.8501 14.5348 18.1953 13.7085 17.3867 13.0511C16.3351 12.0114 15.7865 11.4077 15.7865 10.1045C15.7865 8.80133 16.3351 8.20004 17.3844 7.16516C18.1927 6.50872 18.8476 5.68322 19.3028 4.74665C19.7581 3.81009 20.0027 2.78519 20.0195 1.74398C20.0195 1.28145 19.8357 0.837857 19.5087 0.510798C19.1816 0.183739 18.738 0 18.2755 0C17.813 0 17.3694 0.183739 17.0423 0.510798C16.7153 0.837857 16.5315 1.28145 16.5315 1.74398C16.5315 3.04477 15.9829 3.64606 14.9337 4.68334C14.1219 5.33927 13.4638 6.16534 13.0061 7.10327C12.5483 8.04121 12.3018 9.06816 12.2842 10.1117C12.3023 11.152 12.5476 12.1757 13.0027 13.1113C13.4579 14.0469 14.112 14.8717 14.9193 15.5281C15.9734 16.5798 16.5219 17.1715 16.5219 18.4747Z" fill="#989FAD"/>
<path d="M26.8337 15.3503C27.1759 15.3511 27.5108 15.2512 27.7966 15.0631C28.0824 14.8749 28.3066 14.6068 28.4412 14.2922C28.5758 13.9776 28.6148 13.6304 28.5535 13.2937C28.4921 12.9571 28.3331 12.6459 28.0962 12.399C27.7669 12.1152 27.504 11.7626 27.326 11.366C27.148 10.9695 27.0593 10.5386 27.0661 10.104C27.0661 8.85352 27.5811 8.30014 28.652 7.26526C29.4616 6.62605 30.1193 5.81506 30.5775 4.89082C31.0357 3.96658 31.2829 2.95215 31.3015 1.92073C31.3015 1.4582 31.1177 1.01462 30.7907 0.687557C30.4636 0.360498 30.02 0.176758 29.5575 0.176758C29.095 0.176758 28.6514 0.360498 28.3243 0.687557C27.9972 1.01462 27.8135 1.4582 27.8135 1.92073C27.8135 3.17122 27.2985 3.7246 26.2276 4.75949C25.4164 5.39921 24.7575 6.21119 24.2984 7.13673C23.8394 8.06227 23.5917 9.07824 23.5733 10.1112C23.5684 10.9913 23.7435 11.8631 24.0879 12.673C24.4323 13.483 24.9387 14.2139 25.576 14.8209C25.7392 14.9893 25.9348 15.1229 26.1509 15.2139C26.367 15.3049 26.5992 15.3513 26.8337 15.3503Z" fill="#989FAD"/>
<path d="M54.756 51.9892H54.0014C54.0014 51.5101 53.9798 51.1484 53.9678 51.031C53.5307 45.2227 51.1621 39.7279 47.2396 35.422C43.3171 31.1162 38.0663 28.247 32.3238 27.2717C32.3716 27.0278 32.3957 26.7799 32.3957 26.5315C32.4306 26.071 32.37 25.6083 32.2178 25.1724C32.0655 24.7364 31.8249 24.3366 31.5109 23.998C31.197 23.6593 30.8165 23.3892 30.3933 23.2044C29.9701 23.0197 29.5133 22.9243 29.0515 22.9243C28.5897 22.9243 28.1329 23.0197 27.7097 23.2044C27.2865 23.3892 26.906 23.6593 26.592 23.998C26.2781 24.3366 26.0375 24.7364 25.8852 25.1724C25.733 25.6083 25.6724 26.071 25.7073 26.5315C25.7079 26.7849 25.7336 27.0377 25.7839 27.2861C19.9389 28.2829 14.6066 31.2373 10.6622 35.6645C6.71786 40.0916 4.39593 45.7282 4.07764 51.649C4.07764 51.6898 4.07764 51.8167 4.07764 51.9892H2.40074C2.08915 51.9792 1.77873 52.0319 1.48792 52.1443C1.19711 52.2566 0.931853 52.4263 0.707903 52.6431C0.483954 52.86 0.305884 53.1197 0.184275 53.4067C0.0626662 53.6938 0 54.0024 0 54.3141C0 54.6259 0.0626662 54.9344 0.184275 55.2215C0.305884 55.5085 0.483954 55.7682 0.707903 55.9851C0.931853 56.202 1.19711 56.3716 1.48792 56.484C1.77873 56.5963 2.08915 56.649 2.40074 56.639H54.756C55.0676 56.649 55.378 56.5963 55.6688 56.484C55.9596 56.3716 56.2249 56.202 56.4488 55.9851C56.6728 55.7682 56.8508 55.5085 56.9724 55.2215C57.094 54.9344 57.1567 54.6259 57.1567 54.3141C57.1567 54.0024 57.094 53.6938 56.9724 53.4067C56.8508 53.1197 56.6728 52.86 56.4488 52.6431C56.2249 52.4263 55.9596 52.2566 55.6688 52.1443C55.378 52.0319 55.0676 51.9792 54.756 51.9892ZM38.8494 51.9509C39.1794 50.3224 39.3487 48.6655 39.3548 47.004C39.3664 41.9007 37.866 36.9083 35.0428 32.6569C38.9668 34.0874 42.3982 36.6133 44.9301 39.9349C47.462 43.2566 48.9882 47.2347 49.3276 51.3975C49.3276 51.4957 49.3276 51.6969 49.3468 51.9581L38.8494 51.9509Z" fill="#989FAD"/>
</svg>
