<svg width="22" height="22" viewBox="0 0 22 22" fill="none" xmlns="http://www.w3.org/2000/svg">
<path d="M17.0518 16.0322L17.1222 16.0697L17.1927 16.0322L18.1382 15.529L18.2177 15.4867V15.3966V14.3899V14.2998L18.1382 14.2575L17.1927 13.7543L17.1222 13.7168L17.0518 13.7543L16.1063 14.2575L16.0268 14.2998V14.3899V15.3966V15.4867L16.1063 15.529L17.0518 16.0322ZM17.1222 15.4091L16.628 15.146V14.6405L17.1222 14.3774L17.6165 14.6405V15.146L17.1222 15.4091Z" fill="#4F4F4F" stroke="#4F4F4F" stroke-width="0.3"/>
<path d="M21.1349 10.2306V10.1615L21.0824 10.1166L19.7918 9.01289L21.1365 6.06651L21.1684 5.99644L21.1301 5.92962L19.8259 3.65522L19.7999 3.60984L19.7513 3.59048L14.0344 1.31331L13.9841 1.29326L13.9326 1.30999L12.6536 1.72538L9.98312 0.857347L9.92024 0.836907L9.86273 0.869536L7.94405 1.95814L7.88767 1.99013L7.87233 2.05311L7.58959 3.21409L5.9265 4.20038L5.8674 4.23543L5.85534 4.30308L5.48883 6.35966H3.41868H3.36216L3.31969 6.39695L0.901018 8.52111L0.849961 8.56595L0.85 8.6339L0.856024 19.195L0.856062 19.2608L0.904432 19.3053L2.86528 21.1104L2.90834 21.15H2.96687H19.1084H19.1733L19.2177 21.1027L21.1002 19.1005L21.141 19.0571L21.141 18.9976L21.1349 12.3887V12.3885V10.2306ZM20.5002 6.02567L19.3195 8.61032L19.1183 8.43905L19.0763 8.40328H19.0211H8.96153L11.6415 2.66618L13.9618 1.90897L19.3749 4.06617L20.5002 6.02567ZM9.98643 1.47127L11.717 2.03131L11.2636 2.17958L11.2019 2.19978L11.1744 2.25863L8.30213 8.40356H6.93803L8.41347 2.36213L9.98643 1.47127ZM18.8479 8.98099L20.5334 10.4219V12.2387H16.2681H16.2115L16.1691 12.276L14.6239 13.634L14.5729 13.6788V13.7466V15.971V16.0367L14.6211 16.0812L16.1633 17.5059L16.2064 17.5457H16.2651H20.5395V18.8331L18.9047 20.5726H3.14896L1.45719 19.0128L1.45124 8.82136L3.59569 6.93736H5.38701L5.12698 8.40328H3.47861H3.32861V8.55328V8.83099V8.98099H3.47861H18.8479ZM5.73632 8.40328L6.41574 4.59025L7.393 4.01045L6.319 8.40328H5.73632ZM20.5337 12.8164V16.9677H16.4502L15.1741 15.7915V13.9336L16.4451 12.8164H20.5337Z" fill="#4F4F4F" stroke="#4F4F4F" stroke-width="0.3"/>
</svg>
