<svg width="65" height="70" viewBox="0 0 65 70" fill="none" xmlns="http://www.w3.org/2000/svg">
<path d="M42.6071 32.2019C42.6071 31.8898 42.4689 31.5906 42.223 31.37C41.9772 31.1493 41.6437 31.0254 41.2959 31.0254H23.7598C23.4121 31.0254 23.0786 31.1493 22.8327 31.37C22.5869 31.5906 22.4487 31.8898 22.4487 32.2019V37.7901C22.4487 38.1021 22.5869 38.4014 22.8327 38.622C23.0786 38.8426 23.4121 38.9666 23.7598 38.9666H41.2959C41.6437 38.9666 41.9772 38.8426 42.223 38.622C42.4689 38.4014 42.6071 38.1021 42.6071 37.7901V32.2019ZM25.071 33.3783H39.8209V36.6136H25.071V33.3783Z" fill="#989FAD"/>
<path d="M42.6071 49.8581C42.6071 49.5461 42.4689 49.2469 42.223 49.0262C41.9772 48.8056 41.6437 48.6816 41.2959 48.6816H23.7598C23.4121 48.6816 23.0786 48.8056 22.8327 49.0262C22.5869 49.2469 22.4487 49.5461 22.4487 49.8581V55.4463C22.4487 55.7584 22.5869 56.0576 22.8327 56.2782C23.0786 56.4989 23.4121 56.6228 23.7598 56.6228H41.2959C41.6437 56.6228 41.9772 56.4989 42.223 56.2782C42.4689 56.0576 42.6071 55.7584 42.6071 55.4463V49.8581ZM39.8209 54.2699H25.071V51.0346H39.8209V54.2699Z" fill="#989FAD"/>
<path d="M42.6071 14.5617C42.6071 14.2497 42.4689 13.9505 42.223 13.7298C41.9772 13.5092 41.6437 13.3853 41.2959 13.3853H23.7598C23.4121 13.3853 23.0786 13.5092 22.8327 13.7298C22.5869 13.9505 22.4487 14.2497 22.4487 14.5617V20.15C22.4487 20.462 22.5869 20.7612 22.8327 20.9819C23.0786 21.2025 23.4121 21.3264 23.7598 21.3264H41.2959C41.6437 21.3264 41.9772 21.2025 42.223 20.9819C42.4689 20.7612 42.6071 20.462 42.6071 20.15V14.5617ZM25.071 15.7382H39.8209V18.9735H25.071V15.7382Z" fill="#989FAD"/>
<path d="M1.31111 9.70588H4.91667V68.8235C4.91667 69.1356 5.0548 69.4348 5.30068 69.6554C5.54656 69.8761 5.88005 70 6.22778 70C6.57551 70 6.90899 69.8761 7.15487 69.6554C7.40075 69.4348 7.53889 69.1356 7.53889 68.8235V62.6471H57.3611V68.8235C57.3611 69.1356 57.4992 69.4348 57.7451 69.6554C57.991 69.8761 58.3245 70 58.6722 70C59.0199 70 59.3534 69.8761 59.5993 69.6554C59.8452 69.4348 59.9833 69.1356 59.9833 68.8235V9.70588H63.5889C63.9366 9.70588 64.2701 9.58193 64.516 9.3613C64.7619 9.14067 64.9 8.84143 64.9 8.52941V1.17647C64.9 0.864451 64.7619 0.565211 64.516 0.34458C64.2701 0.123949 63.9366 0 63.5889 0H1.31111C0.963383 0 0.629897 0.123949 0.384016 0.34458C0.138135 0.565211 0 0.864451 0 1.17647V8.52941C0 8.84143 0.138135 9.14067 0.384016 9.3613C0.629897 9.58193 0.963383 9.70588 1.31111 9.70588ZM57.3611 42.6471H7.53889V27.3529H57.3611V42.6471ZM7.53889 60.2941V45H57.3611V60.2941H7.53889ZM57.3611 25H7.53889V9.70588H57.3611V25ZM2.62222 2.35294H62.2778V7.35294H2.62222V2.35294Z" fill="#989FAD"/>
</svg>
