<svg width="22" height="22" viewBox="0 0 22 22" fill="none" xmlns="http://www.w3.org/2000/svg">
<path d="M17.9223 8.6246L18.0087 8.56103L19.7894 7.25049L18.6789 5.46989L16.6002 6.33396L16.5085 6.37205L16.4376 6.30261L16.2509 6.11975L17.9223 8.6246ZM17.9223 8.6246L17.9545 8.72688M17.9223 8.6246L17.9545 8.72688M17.9545 8.72688L18.0324 8.97429L18.0326 8.97499M17.9545 8.72688L18.0326 8.97499M18.0326 8.97499C18.4559 10.2966 18.4559 11.7083 18.0326 13.03L18.0324 13.0307M18.0326 8.97499L18.0324 13.0307M18.0324 13.0307L17.9545 13.2781L17.9223 13.3805M18.0324 13.0307L17.9223 13.3805M17.9223 13.3805L18.0089 13.4441M17.9223 13.3805L18.0089 13.4441M18.0089 13.4441L19.7896 14.75L18.6837 16.5349L16.6053 15.671L16.5137 15.6329M18.0089 13.4441L16.5137 15.6329M16.5137 15.6329L16.4428 15.7023M16.5137 15.6329L16.4428 15.7023M16.4428 15.7023L16.2563 15.8851C16.2562 15.8851 16.2561 15.8852 16.2561 15.8852C15.2983 16.8169 14.0844 17.4741 12.7524 17.7811L12.7513 17.7813M16.4428 15.7023L12.7513 17.7813M12.7513 17.7813L12.4917 17.8432L12.391 17.8672M12.7513 17.7813L12.391 17.8672M12.391 17.8672L12.3777 17.9699M12.391 17.8672L12.3777 17.9699M12.3777 17.9699L12.1013 20.1053H9.91169L9.63526 17.9699L9.62197 17.8672M12.3777 17.9699L9.62197 17.8672M9.62197 17.8672L9.52127 17.8432M9.62197 17.8672L9.52127 17.8432M9.52127 17.8432L9.26166 17.7813L9.26071 17.7811M9.52127 17.8432L9.26071 17.7811M9.26071 17.7811C7.92802 17.4728 6.71401 16.8138 5.75686 15.8802L5.57017 15.6974L5.49928 15.6279M9.26071 17.7811L5.49928 15.6279M5.49928 15.6279L5.40764 15.666M5.49928 15.6279L5.40764 15.666M5.40764 15.666L3.329 16.5301L2.22098 14.7497L4.00158 13.4415L4.08808 13.378M5.40764 15.666L4.08808 13.378M4.08808 13.378L4.05585 13.2756M4.08808 13.378L4.05585 13.2756M4.05585 13.2756L3.97797 13.0282L3.97775 13.0275M4.05585 13.2756L3.97775 13.0275M3.97775 13.0275C3.55452 11.7058 3.55452 10.2942 3.97775 8.97252L3.97797 8.97181M3.97775 13.0275L3.97797 8.97181M3.97797 8.97181L4.05585 8.72441L4.08808 8.62203M3.97797 8.97181L4.08808 8.62203M4.08808 8.62203L4.00158 8.55848M4.08808 8.62203L4.00158 8.55848M4.00158 8.55848L2.22075 7.25014L3.32665 5.46509L5.40504 6.32901L5.49668 6.3671M4.00158 8.55848L5.49668 6.3671M5.49668 6.3671L5.56758 6.29766M5.49668 6.3671L5.56758 6.29766M5.56758 6.29766L5.75413 6.11494C5.75418 6.11489 5.75423 6.11484 5.75429 6.11478C6.71204 5.18312 7.92594 4.52589 9.25799 4.21891L9.25906 4.21865M5.56758 6.29766L9.25906 4.21865M9.25906 4.21865L9.51867 4.1568L9.61937 4.13281M9.25906 4.21865L9.61937 4.13281M9.61937 4.13281L9.63266 4.03014M9.61937 4.13281L9.63266 4.03014M9.63266 4.03014L9.90909 1.89468H12.0961L12.3725 4.03014L12.3858 4.13281M9.63266 4.03014L12.3858 4.13281M12.3858 4.13281L12.4865 4.1568M12.3858 4.13281L12.4865 4.1568M12.4865 4.1568L12.7461 4.21866L12.7471 4.21887M12.4865 4.1568L12.7471 4.21887M12.7471 4.21887C14.0797 4.52722 15.2936 5.18614 16.2507 6.11953L12.7471 4.21887ZM11.0053 5.81784H11.0052C9.93273 5.81784 8.8838 6.12088 7.99101 6.68938C7.09814 7.25793 6.40111 8.06678 5.9892 9.01448C5.57724 9.96229 5.46932 11.0057 5.67944 12.0124C5.88955 13.019 6.40797 13.9426 7.16792 14.6669C7.9278 15.391 8.89508 15.8834 9.94711 16.0828C10.9991 16.2823 12.0896 16.18 13.081 15.7886C14.0724 15.3973 14.9209 14.7341 15.5185 13.8818C16.1161 13.0295 16.4356 12.0266 16.4356 11V10.9998C16.4341 9.62351 15.8597 8.30549 14.8409 7.33458C13.8224 6.36391 12.4428 5.81918 11.0053 5.81784ZM19.1804 4.2584L19.1132 4.14993L18.9953 4.19897L16.7465 5.13479C15.7845 4.27682 14.6246 3.64715 13.361 3.29619L13.0673 0.981122L13.0507 0.85H12.9185H9.0919H8.96015L8.94315 0.980649L8.64192 3.29624C7.38092 3.64819 6.22369 4.27778 5.26381 5.13477L3.01505 4.19897L2.8975 4.15005L2.83014 4.2581L0.872713 7.39763L0.799279 7.51541L0.911019 7.59775L2.84256 9.021C2.49456 10.3194 2.49456 11.6806 2.84256 12.979L0.911019 14.4023L0.799279 14.4846L0.872713 14.6024L2.83014 17.7419L2.8975 17.8499L3.01505 17.801L5.26386 16.8652C6.22595 17.7233 7.38595 18.353 8.64972 18.7039L8.95094 21.0194L8.96794 21.15H9.09969H12.9185H13.0502L13.0672 21.0194L13.3685 18.7038C14.6295 18.3518 15.7867 17.7222 16.7466 16.8652L18.9953 17.801L19.1132 17.8501L19.1804 17.7416L21.1275 14.6021L21.2005 14.4844L21.089 14.4023L19.1574 12.979C19.5054 11.6806 19.5054 10.3194 19.1574 9.021L21.089 7.59775L21.2005 7.51561L21.1275 7.39793L19.1804 4.2584ZM13.1464 8.64811L13.0268 8.56936L12.9426 8.68514L10.5304 12.0011L8.97355 10.7376L8.86244 10.6474L8.76713 10.7541L8.2635 11.3182L8.15881 11.4355L8.28082 11.5345L10.6173 13.4321L10.7402 13.532L10.8332 13.4038L13.8239 9.28206L13.9161 9.15502L13.785 9.06869L13.1464 8.64811ZM11.005 15.14C10.1429 15.1399 9.30062 14.8962 8.58483 14.4404C7.86906 13.9847 7.31232 13.3376 6.98386 12.5819C6.65545 11.8263 6.56965 10.9953 6.73697 10.1937C6.90429 9.39205 7.31752 8.65462 7.92559 8.07513C8.53375 7.49557 9.30943 7.10012 10.1549 6.93985C11.0004 6.77957 11.8767 6.86189 12.6728 7.17612C13.4688 7.49033 14.148 8.02198 14.6253 8.70274C15.1025 9.38336 15.3567 10.1827 15.3567 10.9998C15.3554 12.0951 14.8984 13.1467 14.0833 13.9234C13.2679 14.7004 12.161 15.1387 11.005 15.14Z" fill="#4F4F4F" stroke="#4F4F4F" stroke-width="0.3"/>
</svg>
