<svg width="86" height="63" viewBox="0 0 86 63" fill="none" xmlns="http://www.w3.org/2000/svg">
<path d="M79.1523 36.6854V39.5809C79.1523 43.2525 76.4737 46.2414 73.1833 46.2414H42.8205H12.4578C9.16736 46.2414 6.48877 43.2525 6.48877 39.5809V36.6854C6.48877 33.0138 9.16736 30.0249 12.4578 30.0249H42.8205H73.1833C76.4737 30.0249 79.1523 33.0127 79.1523 36.6854Z" fill="#4F4F4F"/>
<path d="M85.6374 25.9689C85.6374 29.0618 84.0807 31.8532 81.7342 33.3004C80.4781 29.374 77.1249 26.5475 73.1808 26.5475H70.6164C70.6059 26.3511 70.585 26.1653 70.585 25.9689C70.585 21.3353 73.9582 17.5713 78.1107 17.5713C82.2642 17.5713 85.6374 21.3353 85.6374 25.9689Z" fill="#4F4F4F"/>
<path d="M15.0515 25.9689C15.0515 26.1653 15.0306 26.3511 15.0201 26.5475H12.4557C8.51154 26.5475 5.15831 29.374 3.90227 33.3004C1.55672 31.8521 0 29.0607 0 25.9689C0 21.3353 3.37322 17.5713 7.52574 17.5713C11.6783 17.5713 15.0515 21.3353 15.0515 25.9689Z" fill="#4F4F4F"/>
<path d="M63.2387 0H22.4024C16.3829 0 11.5024 5.44478 11.5024 12.1626V14.9657C15.4057 16.7261 18.167 20.9891 18.167 25.9699C18.167 26.1664 18.1461 26.3522 18.1356 26.5486H67.5054C67.495 26.3522 67.474 26.1664 67.474 25.9699C67.474 20.9891 70.2354 16.7272 74.1386 14.9657V12.1626C74.1386 5.44584 69.2582 0 63.2387 0Z" fill="#4F4F4F"/>
<path d="M75.6463 48.7026H9.98991C7.92031 48.7026 6.22656 50.5926 6.22656 52.9019C6.22656 55.2113 7.92031 57.1013 9.98991 57.1013H12.3069V60.8132C12.3069 61.7731 13.0034 62.5503 13.8636 62.5503C14.7238 62.5503 15.4204 61.7731 15.4204 60.8132V57.1013H69.6582V60.8132C69.6582 61.7731 70.3548 62.5503 71.215 62.5503C72.0752 62.5503 72.7717 61.7731 72.7717 60.8132V57.1013H75.6453C77.715 57.1013 79.4087 55.2113 79.4087 52.9019C79.4087 50.5926 77.7159 48.7026 75.6463 48.7026Z" fill="#4F4F4F"/>
</svg>
